<svg xmlns="http://www.w3.org/2000/svg" viewBox="0 0 500 308.67"><defs><style>.cls-1{fill:#fff;}.cls-2{fill:#eceff6;}.cls-20,.cls-3{fill:none;stroke-miterlimit:10;}.cls-3{stroke:#252525;stroke-width:0.5px;}.cls-4{fill:#fac1a7;}.cls-5{fill:#feeee7;}.cls-6{opacity:0.15;}.cls-7{fill:#ddd;}.cls-8{fill:#999;}.cls-9{fill:#f4f5fa;}.cls-10{fill:#f26322;}.cls-11{fill:#2cacb3;}.cls-12{fill:#f5f7f9;}.cls-13{fill:#e0e4f0;}.cls-14{fill:#fdfdfe;}.cls-15{fill:#f8d6ca;}.cls-16{fill:#31639c;}.cls-17,.cls-27{fill:#231f20;}.cls-17{opacity:0.3;}.cls-18{fill:#454545;}.cls-19{fill:#252525;}.cls-20{stroke:#fff;}.cls-21{fill:#f1f2f2;}.cls-22{fill:#dfe2ec;}.cls-23{fill:#efefef;}.cls-24{fill:#23287e;}.cls-25{fill:#5a82b0;}.cls-26,.cls-27{opacity:0.1;}</style></defs><title>about_mg</title><g id="Bg"><rect class="cls-1" width="500" height="308.67"/></g><g id="Graphics"><g id="Layer_7" data-name="Layer 7"><rect class="cls-2" x="240.77" y="76.46" width="119.23" height="155.31"/><polyline class="cls-3" points="240.77 111.72 240.77 76.46 360 76.46 360 129.5"/><rect class="cls-1" x="244.95" y="91.84" width="110.93" height="63.87"/><circle class="cls-1" cx="252.6" cy="84.68" r="1.82"/><circle class="cls-1" cx="261.06" cy="84.68" r="1.82"/><circle class="cls-1" cx="269.53" cy="84.68" r="1.82"/><rect class="cls-4" x="311.79" y="98.5" width="39.7" height="6.32"/><rect class="cls-5" x="249.12" y="112.52" width="102.37" height="3.16"/><rect class="cls-5" x="249.23" y="122.01" width="102.37" height="3.16"/><rect class="cls-5" x="249.35" y="131.51" width="102.37" height="3.16"/><rect class="cls-5" x="249.47" y="141" width="102.37" height="3.16"/><g class="cls-6"><path class="cls-7" d="M83.82,231.82c-5.73-8.91-11.52-17.88-18.95-25.42-2.45-2.48-6-5-9.13-3.49-2.9,1.36-3.5,5.2-3.31,8.39.88,15,10.25,28.17,20.7,39a168.91,168.91,0,0,0,40,30.52l2.56.49Z"/><path class="cls-8" d="M110.67,277.59C87.78,261.51,69.73,237.09,59,211.47c-.39-.92-1.74-.15-1.35.76a157.11,157.11,0,0,0,21.84,36.56c9,11.26,19.61,20.27,31.11,28.87a0,0,0,0,0,0-.07Z"/><path class="cls-8" d="M56,223.8a22.55,22.55,0,0,0,10.4,5.54.48.48,0,0,0,.26-.92,23.75,23.75,0,0,1-10-5.25c-.42-.38-1.05.24-.63.63Z"/><path class="cls-8" d="M63.8,235.92c2.83,3,7,6.61,11,7.65a.23.23,0,0,0,.17-.42c-1.67-1.23-3.68-2-5.43-3.13a59.75,59.75,0,0,1-5.64-4.24.1.1,0,0,0-.14.14Z"/><path class="cls-8" d="M75.71,250.6a21.56,21.56,0,0,0,8,4.24.33.33,0,0,0,.18-.64,30.92,30.92,0,0,1-8-3.83c-.14-.09-.31.12-.18.23Z"/><path class="cls-8" d="M67.77,219.39c.67,4.67,1.34,8.77.82,13.51-.09.85,1.21.84,1.32,0,.56-4.4.4-9.69-1.41-13.81-.19-.44-.78-.12-.73.29Z"/><path class="cls-8" d="M75.24,230.09a32.35,32.35,0,0,1,3,14.12.53.53,0,0,0,1.06,0,27.11,27.11,0,0,0-3.72-14.32.18.18,0,0,0-.31.18Z"/><path class="cls-8" d="M85.37,242.47c2.46,5.44,4.43,10.17,4.85,16.22.07,1,1.62,1,1.55,0-.39-5.73-2.1-12.18-5.8-16.7-.29-.35-.76.1-.6.46Z"/><path class="cls-7" d="M105.64,276.85l-40.1-22.2c-4.72-2.61-9.5-5.25-14.73-6.58s-11-1.2-15.7,1.49A5.18,5.18,0,0,0,33.38,251c-1.34,2-.09,4.59,1.31,6.49,11.11,15.05,30.51,21.22,48.87,24.78,11,2.13,22.67,3.58,33-.72A87.3,87.3,0,0,1,105.64,276.85Z"/><path class="cls-8" d="M38.27,254.26c9.59,6.42,20.26,10.74,31,14.69,12,4.38,24,8.66,35.86,13.17.94.35,1.54-1.1.6-1.43-11.55-4-23-8.27-34.52-12.44-11.2-4.07-22.39-8.18-32.45-14.69-.48-.31-1,.38-.54.7Z"/><path class="cls-8" d="M41.94,262.38a115.41,115.41,0,0,0,11.84,1.51c.94.05,1.17-1.35.21-1.46A117,117,0,0,0,42,262c-.27,0-.34.38-.06.42Z"/><path class="cls-8" d="M57.68,271l7.73-.25a36.55,36.55,0,0,0,7.69-.55c.48-.12.57-.84,0-.92a34.86,34.86,0,0,0-7.36.21l-8.18.59c-.59,0-.47.93.11.92Z"/><path class="cls-8" d="M77.5,278.45A40.36,40.36,0,0,1,84,276.92c1.84-.21,3.81.25,5.58-.22.49-.13.34-.76,0-.95-1.72-1-4.58-.51-6.44-.16a14.72,14.72,0,0,0-6,2.38c-.27.19,0,.56.28.48Z"/><path class="cls-8" d="M49.16,252.54A51.73,51.73,0,0,1,52.72,259c.78,1.73,1.22,3.68,2.33,5.22a.25.25,0,0,0,.44-.18c-.14-2.17-1.43-4.28-2.4-6.19a65.37,65.37,0,0,0-3.33-5.8c-.26-.41-.86,0-.6.46Z"/><path class="cls-8" d="M62.34,259.48c2.23,2.68,4.33,5.9,7,8.19.18.16.4-.1.28-.27-1.88-2.92-4.77-5.44-7.1-8-.07-.08-.2,0-.13.1Z"/><path class="cls-8" d="M75.86,264.76c1.2,1.61,2.49,3.19,3.63,4.85,1,1.45,1.78,3.15,3.28,4.13a.32.32,0,0,0,.49-.37c-.54-1.71-2-2.92-3.09-4.28-1.28-1.56-2.46-3.21-3.68-4.81a.4.4,0,0,0-.63.48Z"/><path class="cls-7" d="M102.32,209.13c-2-1.86-5.29-2.61-7.48-1-2,1.49-2.38,4.28-2.47,6.77-.76,22.43,11.31,46.1,21.79,66l2.28.61c-1.65-22-3.36-44.29-10.27-65.25C105.32,213.66,104.32,211,102.32,209.13Z"/><path class="cls-8" d="M113.35,273.88c-5.88-18.94-9.92-38.27-14-57.66-.13-.65-1.16-.52-1,.12,4.52,19.25,8.17,38.95,14.68,57.66.07.2.37.08.3-.12Z"/><path class="cls-8" d="M95.36,223.07,98.25,227a14.3,14.3,0,0,0,2.73,3.26.37.37,0,0,0,.56-.42,14.16,14.16,0,0,0-2.4-3.52l-3-3.83a.51.51,0,0,0-.82.62Z"/><path class="cls-8" d="M97.68,234c1.7,2.76,3.3,6.14,5.55,8.48a.23.23,0,0,0,.4-.23c-.84-3.14-3.43-6.18-5.56-8.55a.25.25,0,0,0-.39.3Z"/><path class="cls-8" d="M101.28,247.39a23.28,23.28,0,0,0,2.47,4.94,27.45,27.45,0,0,0,2.42,4.17.23.23,0,0,0,.4-.22,31.45,31.45,0,0,0-2.36-5,19.85,19.85,0,0,0-2.34-4.24.34.34,0,0,0-.59.33Z"/><path class="cls-8" d="M106.64,228.64a20.89,20.89,0,0,0-2.44,5.73c-.4,1.54-1.07,3.81-.44,5.34a.35.35,0,0,0,.64,0c.7-1.43.53-3.48.86-5.07a35.27,35.27,0,0,1,1.8-5.76c.1-.25-.27-.5-.42-.25Z"/><path class="cls-8" d="M110.39,244c-.35,2-.58,4-.78,6.07a24.14,24.14,0,0,0-.35,5.55c0,.37.64.5.76.11a25.49,25.49,0,0,0,.56-5.86c.12-2,.19-3.9.17-5.86,0-.22-.33-.2-.36,0Z"/></g><g class="cls-6"><path class="cls-7" d="M366.77,284.57c1.41-12,3.28-21,12.08-29.59,4.12-4,9.58-6.88,12.83-11.61,4-5.76,4.28-13.78,9.73-18.27,5.84-4.82,15.22-3.5,21.24-8.11,4.29-3.29,5.86-8.82,8.94-13.19a24.26,24.26,0,0,1,23.24-9.51c-8.77,2.06-15,11.38-13.23,19.93,1.11,5.46,5,10.46,4.49,16-.94,11-17.62,15.74-18.91,26.73-.35,3,.56,6,.69,9,.39,9.35-8.05,18.21-17.75,18.62Z"/><path class="cls-8" d="M432.34,221.73a155.29,155.29,0,0,0-23,27.11c-6.34,9.5-10.82,19.59-16,29.68a.93.93,0,0,1-1.69-.69c6.75-21.65,23.49-41.29,40.65-56.13,0,0,.05,0,0,0Z"/><path class="cls-8" d="M431.6,232.9a17.26,17.26,0,0,0-7.15.58c-2.43.74-4.08,2.27-6.3,3.29-.25.12-.6-.13-.42-.39,2.73-3.88,9.56-4.58,13.92-3.89.24,0,.19.44,0,.41Z"/><path class="cls-8" d="M426.21,245a21.61,21.61,0,0,0-10-.12c-3,.73-5.4,2.37-8.09,3.77a.45.45,0,0,1-.55-.69c4.5-4.69,12.86-5.07,18.75-3.15a.1.1,0,1,1-.06.19Z"/><path class="cls-8" d="M420.26,261c-9.24-1.08-15.36.71-22.34,6.69-.41.36-1.15-.11-.81-.6,4.54-6.62,15.74-9.82,23.27-6.51a.22.22,0,0,1-.12.42Z"/><path class="cls-8" d="M414.35,227.47c3.72,3.93,2.36,11.73-1.24,15.3-.13.13-.37,0-.27-.2a14.17,14.17,0,0,0,2.85-7.66c.08-2.69-1-4.71-1.81-7.18a.28.28,0,0,1,.47-.26Z"/><path class="cls-8" d="M407.41,236.3c1.9,5.08,1.69,11.83-1.39,16.47-.15.23-.56.09-.47-.19,1.79-5.66,2.59-10.23,1.36-16.15a.26.26,0,0,1,.5-.13Z"/><path class="cls-8" d="M396.67,246c3.32,7.14,2.86,15-.25,22.16-.28.65-1.4.37-1.11-.3,3-7.14,2.83-14.25.7-21.58-.11-.38.49-.65.66-.28Z"/></g><rect class="cls-9" x="107.22" y="100.34" width="162.81" height="184.1"/><polyline class="cls-3" points="107.22 244.39 107.22 100.34 270.03 100.34 270.03 247.83"/><rect class="cls-1" x="113.51" y="118.3" width="149.41" height="166.75"/><rect class="cls-5" x="117.96" y="123.59" width="140.16" height="39.64"/><rect class="cls-5" x="117.96" y="167.82" width="57.62" height="116.61"/><path class="cls-1" d="M124.66,109.05a1.62,1.62,0,1,1-1.62-1.61A1.61,1.61,0,0,1,124.66,109.05Z"/><path class="cls-1" d="M134,109.05a1.62,1.62,0,1,1-1.61-1.61A1.61,1.61,0,0,1,134,109.05Z"/><path class="cls-1" d="M143.41,109.05a1.62,1.62,0,1,1-1.62-1.61A1.61,1.61,0,0,1,143.41,109.05Z"/><rect class="cls-2" x="275.89" y="129.85" width="119.23" height="155.31"/><line class="cls-3" x1="395.11" y1="129.85" x2="395.11" y2="285.15"/><polyline class="cls-3" points="275.89 169.79 275.89 129.85 395.11 129.85"/><rect class="cls-1" x="280.07" y="145.23" width="110.93" height="139.67"/><path class="cls-1" d="M289.53,138.06a1.82,1.82,0,1,1-1.82-1.82A1.82,1.82,0,0,1,289.53,138.06Z"/><path class="cls-1" d="M298,138.06a1.82,1.82,0,1,1-1.82-1.82A1.82,1.82,0,0,1,298,138.06Z"/><path class="cls-1" d="M306.47,138.06a1.82,1.82,0,1,1-1.82-1.82A1.82,1.82,0,0,1,306.47,138.06Z"/><rect class="cls-5" x="284" y="223.71" width="104.74" height="4.61"/><rect class="cls-5" x="283.98" y="234.27" width="104.74" height="4.61"/><rect class="cls-5" x="283.95" y="244.83" width="104.74" height="4.61"/><rect class="cls-5" x="283.92" y="255.38" width="104.74" height="4.61"/><rect class="cls-5" x="283.9" y="265.94" width="104.74" height="4.61"/><rect id="_Rectangle_" data-name="&lt;Rectangle&gt;" class="cls-1" x="93.9" y="248.47" width="66.78" height="36.18"/><rect id="_Rectangle_2" data-name="&lt;Rectangle&gt;" class="cls-10" x="93.9" y="277.12" width="66.78" height="7.53"/><rect id="_Rectangle_3" data-name="&lt;Rectangle&gt;" class="cls-11" x="123.61" y="280.12" width="34" height="1.42" transform="translate(281.22 561.67) rotate(180)"/><rect id="_Rectangle_4" data-name="&lt;Rectangle&gt;" class="cls-1" x="97.17" y="280.12" width="31.22" height="1.42" transform="translate(225.56 561.67) rotate(180)"/><path id="_Path_" data-name="&lt;Path&gt;" class="cls-1" d="M122,280.75a1.6,1.6,0,1,0,1.6-1.6A1.6,1.6,0,0,0,122,280.75Z"/><path id="_Path_2" data-name="&lt;Path&gt;" class="cls-10" d="M122.72,280.75a.89.89,0,1,0,.89-.89A.89.89,0,0,0,122.72,280.75Z"/><path id="_Path_3" data-name="&lt;Path&gt;" class="cls-10" d="M132.88,262.73l-10.33,6a1,1,0,0,1-1.57-.9V255.86a1,1,0,0,1,1.57-.91l10.33,6A1,1,0,0,1,132.88,262.73Z"/><polyline id="_Path_4" data-name="&lt;Path&gt;" class="cls-3" points="93.9 284.44 93.9 248.47 156.69 248.47"/><g id="_Group_" data-name="&lt;Group&gt;"><path id="_Compound_Path_" data-name="&lt;Compound Path&gt;" class="cls-1" d="M382.05,284.83H338.18v-53.3a2.19,2.19,0,0,1,2.18-2.18h39.51a2.19,2.19,0,0,1,2.18,2.18Z"/><path id="_Compound_Path_2" data-name="&lt;Compound Path&gt;" class="cls-3" d="M341.19,229.35H380a2,2,0,0,1,2,2v53.47"/><rect id="_Rectangle_5" data-name="&lt;Rectangle&gt;" class="cls-12" x="342.29" y="241.03" width="35.64" height="43.59"/><line class="cls-3" x1="353.72" y1="234.69" x2="366.44" y2="234.69"/><polygon id="_Path_5" data-name="&lt;Path&gt;" class="cls-10" points="342.29 272.92 342.29 284.83 349.99 284.81 349.99 266.47 342.29 272.92"/><polygon id="_Path_6" data-name="&lt;Path&gt;" class="cls-10" points="356.71 269.47 356.69 269.46 356.69 284.83 365.52 284.8 365.52 262.89 356.71 269.47"/><polygon id="_Path_7" data-name="&lt;Path&gt;" class="cls-4" points="350.05 266.44 349.99 266.49 349.99 284.83 356.69 284.81 356.69 269.44 350.05 266.44"/><polygon id="_Path_8" data-name="&lt;Path&gt;" class="cls-10" points="377.93 260.05 371 266.02 371 284.83 377.93 284.81 377.93 260.05"/><polygon id="_Path_9" data-name="&lt;Path&gt;" class="cls-4" points="371 266 365.52 262.92 365.52 284.83 371 284.81 371 266 371 266"/></g></g><g id="Layer_6" data-name="Layer 6"><g id="_Group_2" data-name="&lt;Group&gt;"><g id="_Group_3" data-name="&lt;Group&gt;"><path class="cls-13" d="M172,175H324.89a1.25,1.25,0,0,1,1.25,1.25v96.4a0,0,0,0,1,0,0H170.78a0,0,0,0,1,0,0v-96.4A1.25,1.25,0,0,1,172,175Z"/></g><g id="_Group_4" data-name="&lt;Group&gt;"><path class="cls-3" d="M172,175H324.89a1.25,1.25,0,0,1,1.25,1.25v96.4a0,0,0,0,1,0,0H170.78a0,0,0,0,1,0,0v-96.4A1.25,1.25,0,0,1,172,175Z"/></g><g id="obalka"><path class="cls-1" d="M178.75,184c0,.12,7,5.35,15.5,11.61s24.36,17.91,35.19,25.91L249.2,236l.71-.5c2.23-1.46,68.1-51.2,68.21-51.47s-14-.3-69.63-.3C208.19,183.74,178.75,183.84,178.75,184Z"/><path class="cls-1" d="M178.75,225v39.53H318.17V185.4l-4.55,4.07c-2.54,2.22-12.72,11.24-22.65,20s-18.09,16-18.09,16,9.36,8,20.82,17.74C313.4,260,318.09,264,316.54,262.83c-.88-.64-45.27-34.21-45.9-34.7-.43-.35-1.17.25-8.73,6.94-4.55,4-9.27,8.14-10.47,9.18l-2.24,1.91-10.56-9.09C232.83,232,228,228,227.86,228s-32.68,24-44.94,33.14a16.81,16.81,0,0,1-2.26,1.56c0-.08,10-8.4,22.24-18.48s22.23-18.48,22.23-18.58-35.63-31.06-44.8-38.86l-1.58-1.34Z"/></g><g id="_Group_5" data-name="&lt;Group&gt;"><path class="cls-12" d="M335.19,277H161.73a26.4,26.4,0,0,0,18.61,7.67H316.59a26.39,26.39,0,0,0,18.6-7.67Z"/></g><g id="_Group_6" data-name="&lt;Group&gt;"><rect class="cls-14" x="161.73" y="272.1" width="173.46" height="4.88"/></g><g id="_Group_7" data-name="&lt;Group&gt;"><path class="cls-13" d="M259.2,275.86H237.73a1.33,1.33,0,0,1-1.33-1.32h0a1.34,1.34,0,0,1,1.33-1.33H259.2a1.33,1.33,0,0,1,1.32,1.33h0A1.32,1.32,0,0,1,259.2,275.86Z"/></g><line class="cls-3" x1="178.75" y1="264.71" x2="318.17" y2="264.71"/></g></g><g id="Layer_8" data-name="Layer 8"><path class="cls-12" d="M182,171.65l4.75,8a3.33,3.33,0,0,1-.62,4.16l-7.86,7.25-4-5.08Z"/><polygon class="cls-15" points="163.73 280.32 152.26 280.32 156.42 277.44 157.34 274.78 163.73 274.78 163.73 280.32"/><path class="cls-16" d="M178.59,209.62s.77,26.12,0,27.66c0,0,8,12.71,16.2,27.1H184.23l-16.42-24,4.47-30.77Z"/><path class="cls-17" d="M171.66,242.21s5.54-25.09,5.7-26.94c0-.51.59-1.08,1.33-1.73-.05-2.36-.1-3.92-.1-3.92h-6.31l-4.47,30.77L176,252.32C176.07,250.8,171.83,243.33,171.66,242.21Z"/><path class="cls-16" d="M160.46,206.58l-2.39,36.11-1.5,33.57h8.12s4.43-28.42,5.12-34c0,0,5.55-25.09,5.7-26.94s6.93-4.47,6.08-9.32l-4.93-4.32-15.16,1.63Z"/><path class="cls-18" d="M164.69,276.8v5.05a1.71,1.71,0,0,1-1.7,1.71H147l-6.69-1.16h0a3.5,3.5,0,0,1,2.19-2l6.93-2.18,5.2-3.41,2,4.16h5.76Z"/><path class="cls-19" d="M163.09,284.83H142.75a2.42,2.42,0,0,1-2.42-2.43h24.83v.36A2.07,2.07,0,0,1,163.09,284.83Z"/><line class="cls-20" x1="149.97" y1="277.85" x2="150.61" y2="279.02"/><line class="cls-20" x1="151.48" y1="276.86" x2="152.12" y2="278.03"/><line class="cls-20" x1="152.99" y1="275.87" x2="153.63" y2="277.03"/><g id="_Group_8" data-name="&lt;Group&gt;"><polygon id="_Path_10" data-name="&lt;Path&gt;" class="cls-21" points="142.65 155.56 140.42 159.01 141.49 159.73 143.6 157.25 142.65 155.56"/><path id="_Path_11" data-name="&lt;Path&gt;" class="cls-16" d="M142.66,155.53l-2.38,8.53a.25.25,0,0,0,.17.3l3.83,1.06a.24.24,0,0,0,.3-.16l2.37-8.53Z"/><path id="_Path_12" data-name="&lt;Path&gt;" class="cls-16" d="M149.12,155.25a3.41,3.41,0,1,0,1.83-6.56Z"/><path id="_Path_13" data-name="&lt;Path&gt;" class="cls-16" d="M124.64,148a3.16,3.16,0,1,1,1.69-6.08Z"/><rect id="_Path_14" data-name="&lt;Path&gt;" class="cls-21" x="141.94" y="146.42" width="8.86" height="8.86" transform="translate(-38.22 251.38) rotate(-74.44)"/><rect id="_Path_15" data-name="&lt;Path&gt;" class="cls-22" x="143.56" y="148.55" width="4.43" height="8.86" transform="translate(-40.71 252.37) rotate(-74.44)"/><rect id="_Path_16" data-name="&lt;Path&gt;" class="cls-23" x="114.02" y="143.9" width="21.42" height="1.6" transform="translate(-48.13 226.03) rotate(-74.44)"/><rect id="_Path_17" data-name="&lt;Path&gt;" class="cls-24" x="144.4" y="152.37" width="1.1" height="6.5" transform="translate(-43.85 253.51) rotate(-74.44)"/><path id="_Path_18" data-name="&lt;Path&gt;" class="cls-24" d="M144.94,157.23l1.74.48-.41,1.46-1.74-.48a.76.76,0,0,1,.41-1.46Z"/><path id="_Path_19" data-name="&lt;Path&gt;" class="cls-24" d="M144.25,159.71l1.74.49-.41,1.46-1.74-.49a.76.76,0,0,1-.53-.93A.78.78,0,0,1,144.25,159.71Z"/><path id="_Path_20" data-name="&lt;Path&gt;" class="cls-24" d="M143.56,162.19l1.74.49-.41,1.46-1.74-.49a.76.76,0,1,1,.41-1.46Z"/><polygon id="_Path_21" data-name="&lt;Path&gt;" class="cls-25" points="128.37 134.61 143.28 145.4 142.13 149.54 125.5 144.91 128.37 134.61"/><polygon id="_Path_22" data-name="&lt;Path&gt;" class="cls-16" points="142.13 149.54 140.91 153.94 122.63 155.22 125.5 144.91 142.13 149.54"/></g><path class="cls-15" d="M160.25,154.36s2.57,2.88,2.5,5.29v2.5h7s-1.37-11.18,0-12.07H165Z"/><path class="cls-15" d="M154.17,142.64c.12-.3.26-.61.4-.92,0,0,0-.08,0-.12Z"/><path class="cls-15" d="M168.22,145.13a12.65,12.65,0,0,0-1-1.9c-1.07-1.76-2.41-3.53-4.35-4.23a9.49,9.49,0,0,0-3.48-.41,6,6,0,0,0-2.59.45,5.2,5.2,0,0,0-2.25,2.68,20.26,20.26,0,0,0,.15,10.46,5.66,5.66,0,0,0,1.47,2.5,5.34,5.34,0,0,0,2.28,1.11,6.06,6.06,0,0,0,2.71.15,8.65,8.65,0,0,0,2.31-1,14.26,14.26,0,0,0,2.65-1.67A7.5,7.5,0,0,0,168.22,145.13Z"/><path class="cls-19" d="M170.92,148.21a3,3,0,0,0,.32-3.76.75.75,0,0,1-.2-.41.74.74,0,0,1,.19-.41,2.16,2.16,0,0,0,0-2.32,1.1,1.1,0,0,1-.22-.43,1.07,1.07,0,0,1,.07-.39,2.21,2.21,0,0,0-.5-2.06,2.19,2.19,0,0,0-2-.62,3.17,3.17,0,0,0-.29-1.76,1.13,1.13,0,0,0-1.55-.43c0-1.15-1.62-1.36-2.45-1.43a6.11,6.11,0,0,0-1.86,0,3.3,3.3,0,0,0-.9.35c-.08,0-.64.51-.65.5a3.58,3.58,0,0,0-4.15,1.2,1.86,1.86,0,0,0-1.87-.26,1.8,1.8,0,0,0-.85.76c-.15.25-.16.56-.36.77s-.75.36-1.05.61a2,2,0,0,0-.66.88,2.85,2.85,0,0,0,0,1.27,2.23,2.23,0,0,0,.32,1.07,1.87,1.87,0,0,0,.76.56,5,5,0,0,0,1.81.52,2.06,2.06,0,0,0,1.28-.49c.23-.16,1.31-1.12,1-1.43a4,4,0,0,0,1.26,1,1.42,1.42,0,0,0,1.51-.2c-.3.71,0,1.43,0,2.18a7.77,7.77,0,0,0,.15,2.5,11.74,11.74,0,0,1,.89,2.27,3.08,3.08,0,0,0,0,.61.56.56,0,0,0,.38.43.58.58,0,0,0,.45-.14,1.6,1.6,0,0,0,.4-1.2c0-.61-.1-1.22-.12-1.83s-.08-1.14.56-1.32a2.65,2.65,0,0,1,3,.87c.56.87.34,2,.63,3a3.83,3.83,0,0,0,2.2,2.36,7.64,7.64,0,0,0,3.25.56A3.1,3.1,0,0,0,170.92,148.21Z"/><path class="cls-19" d="M169.14,153.66l1.26.61a20.76,20.76,0,0,1,11.75,16.92,53.45,53.45,0,0,1,.12,6.2c0,.62-1.46,8.35-1.54,9-.29,2.26,1.68,21.8,1.68,21.8-11.22-4.28-19.36,4.46-24.34.94l1.47-37.66a20.17,20.17,0,0,1,.92-5.39l2.23-7.13Z"/><path class="cls-15" d="M167.64,163.78l-10.59,9.61a1.36,1.36,0,0,1-1.94-.12l-8.53-9.8,1.48-1.76a2.69,2.69,0,0,0,.63-1.9h0a2.45,2.45,0,0,0-1.62-2.15l-.37-.14-.16,1.47-1.75-.51-2.17-2.36h0a2.11,2.11,0,0,0-2.31-.8l-.59.17-.56.79.29.9-.5,1,.23,1.44-.18.43a2.54,2.54,0,0,0,0,1.84l.68,1.84a1.58,1.58,0,0,0,.64.8l2.46,1.6,9.43,16.31a3.43,3.43,0,0,0,4.92,1.11l17-11.65a5.22,5.22,0,0,0,.88-7.85h0A5.22,5.22,0,0,0,167.64,163.78Z"/><path class="cls-12" d="M147.09,163.4l8,9.87a1.36,1.36,0,0,0,1.94.12l10.59-9.61a5.22,5.22,0,0,1,7.34.31h0a5.22,5.22,0,0,1-.88,7.85l-17,11.65a3.43,3.43,0,0,1-4.92-1.11L142.9,167Z"/><polygon class="cls-12" points="169.99 152.67 170.77 154.91 161.31 166.51 159.79 160.1 169.99 152.67"/></g><g id="Layer_10" data-name="Layer 10"><rect class="cls-15" x="332.56" y="273.84" width="5.73" height="5.21"/><path class="cls-19" d="M318.39,199.29a19,19,0,0,0,0,12.2l5.49,24.42-19.67,28.58,8.58,0,23.56-24.15,1.93-39.91Z"/><path class="cls-18" d="M331.73,277.46l-1.58,4v3.17H349.6v-.88a1.7,1.7,0,0,0-1.31-1.65l-3.13-.75-6.56-3.91h-1.16l-.53,1.16h-3.38l-.32-1.16Z"/><path class="cls-1" d="M330.15,283v1.69H349.6v-.88a1.71,1.71,0,0,0-.21-.81Z"/><path class="cls-15" d="M330,165.73l-13.46,8.1a1.74,1.74,0,0,0-.84,1.75l3.19,23.14,2.68-.73-.17-19.25a1.61,1.61,0,0,1,1-1.5l11-4.64Z"/><path class="cls-26" d="M337.19,222.93l-1.14-16-18.61-.62a20.69,20.69,0,0,0,.95,5.17l2.41,10.72a174.34,174.34,0,0,1,7.94,19.16l.28,7.1,7.33-8.17Z"/><path class="cls-19" d="M337.52,206.46l2.6,36.53-1,33h-7.58l-1.36-35.07s-5.92-17.17-10.47-23.35c-5-6.76-1.6-11.73-1.6-11.73Z"/><path class="cls-15" d="M341.3,154.52s-2.24,1.35-2.24,7l-7.53-3.82s1.23-3,1-4.33Z"/><path class="cls-19" d="M324.42,142.86l.46-.27c-1.2-2.25-1.42-5.14-3.37-6.78a4.53,4.53,0,0,0-7.42,3,7.93,7.93,0,0,0,.38,3,36.33,36.33,0,0,0,2.47,6.54,22.5,22.5,0,0,1,2.17,5.11,5.43,5.43,0,0,1-1.28,5.16,8.86,8.86,0,0,0,5-4c1.95-3.36,1.43-7.7-.25-11.2-.11-.24-.23-.55-.06-.75C323,142.12,324.11,143.49,324.42,142.86Z"/><path class="cls-15" d="M341.81,144.59a22,22,0,0,0-5.17-5.41l-.5-.21c-2.69,1.46-5.61,3.19-6.5,6.11a7.72,7.72,0,0,0,.51,5.32,6.83,6.83,0,0,0,1.49,2.22c1.48,1.41,3.64,1.78,5.66,2.08a11.22,11.22,0,0,0,4.65.06,1.48,1.48,0,0,0,.61-.28,1.58,1.58,0,0,0,.36-.56,8.61,8.61,0,0,0,.62-2.16A10.78,10.78,0,0,0,341.81,144.59Z"/><path class="cls-19" d="M336.44,138.61A14.64,14.64,0,0,0,328,140a7.37,7.37,0,0,0-3.7,6.95,6.34,6.34,0,0,0,1.75,4.18,8.09,8.09,0,0,0,1.69,1.08,20.73,20.73,0,0,0,2.23,1.07,8.43,8.43,0,0,1,3.06,1.69l0-.38c-.32-.87-.63-1.75-.95-2.62-.11-.28-.15-.81-.35-1s-.5-.23-.74-.37a2.56,2.56,0,0,1-.73-.62,2.7,2.7,0,0,1-.44-1.47.41.41,0,0,1,0-.19.45.45,0,0,1,.12-.16,1.42,1.42,0,0,1,.59-.29,2.91,2.91,0,0,1,.51,0c1.33,0,2.2.09,3.27-.87a6.31,6.31,0,0,0,.86-1,10.47,10.47,0,0,0,1.76-4.08c.13-.69.12-1.4.3-2.08S337.13,138.77,336.44,138.61Z"/><path class="cls-11" d="M324.88,141.73l-1,1.52a.51.51,0,0,0,.13.71h0a.51.51,0,0,0,.71-.13l1-1.53a.51.51,0,0,0-.13-.71h0A.5.5,0,0,0,324.88,141.73Z"/><polygon class="cls-12" points="330.79 157.06 341.3 162.13 341.91 166.94 330.79 158.88 330.79 157.06"/><path class="cls-10" d="M330.79,158.88s-7.34,3.21-6.85,14.47a36.91,36.91,0,0,1-.59,9c-1.14,5.66-7.81,23.88-7.81,23.88,9.34,8.06,18.35-.85,25.76,3.5,0,0-2.24-26.06.61-28.91l.25-.29a6.72,6.72,0,0,0,1.46-5.84l-1.71-7.78Z"/><path class="cls-27" d="M339.34,152.53l2.67,2.21a1.33,1.33,0,0,0,.55-.26,1.58,1.58,0,0,0,.36-.56,8.61,8.61,0,0,0,.62-2.16,10.63,10.63,0,0,0-1.47-6.72l-.31,0-.71.37-.38.07a1,1,0,0,0-.73,1.26l2,5.83-.51-.38A1.51,1.51,0,0,0,339.34,152.53Z"/><path class="cls-15" d="M330.21,168.88a3.76,3.76,0,0,1,5-2.23l13,5.44A.92.92,0,0,0,349.5,171l-3.4-13.61-5.9-4.88h0a1.49,1.49,0,0,1,2.08-.3l.52.38-2-5.83a1,1,0,0,1,.73-1.26l.38-.07.71-.37.79-.12.94-.28,4.47,6.22,2.32,8.71,5,15.63a3.35,3.35,0,0,1-3.64,4.35l-9.86-2.46-10.13-3.45a3.77,3.77,0,0,1-2.34-4.8Z"/><path class="cls-10" d="M343.44,178.27l-11.65-4.36a4.2,4.2,0,0,1-2.61-5.36h0a4.19,4.19,0,0,1,5.58-2.5l11.34,4.74C344.1,172,345.24,177.43,343.44,178.27Z"/></g><g id="Layer_11" data-name="Layer 11"><line class="cls-3" x1="62" y1="284.57" x2="193.18" y2="284.57"/><line class="cls-3" x1="59" y1="284.57" x2="41" y2="284.57"/><line class="cls-3" x1="303.41" y1="285.15" x2="443" y2="285.15"/><line class="cls-3" x1="454.5" y1="284.57" x2="448.5" y2="284.57"/></g><g id="Magento"><g id="Logo-2"><polygon class="cls-10" points="208.99 208.2 196.55 215.38 196.55 229.72 200.1 231.77 200.08 217.43 208.97 212.29 217.85 217.43 217.85 231.76 221.41 229.72 221.41 215.36 208.99 208.2"/><polygon class="cls-10" points="210.75 231.77 208.98 232.8 207.2 231.78 207.2 217.43 203.65 219.47 203.66 233.82 208.98 236.89 214.3 233.82 214.3 219.47 210.75 217.43 210.75 231.77"/><path class="cls-19" d="M229.54,215.46l4.88,12.34h0l4.76-12.34h1.86V229.6H239.8V217.28h0c-.07.22-.14.45-.22.67s-.14.39-.23.61-.16.44-.22.64L235,229.6h-1.16l-4.14-10.4-.23-.6c-.08-.22-.16-.43-.22-.63s-.16-.47-.24-.69h0V229.6h-1.22V215.46Z"/><path class="cls-19" d="M244.82,229.66a3,3,0,0,1-1.06-.54,2.43,2.43,0,0,1-.7-.89,2.83,2.83,0,0,1-.26-1.24,2.92,2.92,0,0,1,.34-1.48,2.51,2.51,0,0,1,.91-.92,4.3,4.3,0,0,1,1.33-.52,12.91,12.91,0,0,1,1.63-.28c.5,0,.93-.11,1.28-.17a4.08,4.08,0,0,0,.85-.23,1,1,0,0,0,.47-.36,1.15,1.15,0,0,0,.15-.63v-.2a1.86,1.86,0,0,0-.64-1.55,2.87,2.87,0,0,0-1.81-.5c-1.82,0-2.78.76-2.87,2.27h-1.21a3.38,3.38,0,0,1,1.1-2.37,4.36,4.36,0,0,1,3-.89,4.28,4.28,0,0,1,2.65.74,2.87,2.87,0,0,1,1,2.43v5.55a1.07,1.07,0,0,0,.17.66.64.64,0,0,0,.5.23l.21,0,.25-.06h.06v.89a1.93,1.93,0,0,1-.34.11,2,2,0,0,1-.49.05,1.52,1.52,0,0,1-1.07-.35,1.47,1.47,0,0,1-.44-1.09v-.22h-.05a6.18,6.18,0,0,1-.52.61,3.27,3.27,0,0,1-.75.58,3.89,3.89,0,0,1-1,.41,4.67,4.67,0,0,1-1.3.16,4.89,4.89,0,0,1-1.32-.18m3-1.08a3.43,3.43,0,0,0,1.08-.68,2.79,2.79,0,0,0,.87-2v-1.84a4.12,4.12,0,0,1-1.2.43c-.47.1-1,.18-1.45.25s-.84.13-1.21.2a3,3,0,0,0-1,.35,1.71,1.71,0,0,0-.64.64,2.05,2.05,0,0,0-.24,1.06,1.86,1.86,0,0,0,.19.89,1.61,1.61,0,0,0,.5.57,1.86,1.86,0,0,0,.72.31,4.14,4.14,0,0,0,.87.09,3.78,3.78,0,0,0,1.47-.27"/><path class="cls-19" d="M254.21,232.42a2.72,2.72,0,0,1-1.17-1.91h1.19a1.63,1.63,0,0,0,1,1.27,4.34,4.34,0,0,0,1.91.39,3.32,3.32,0,0,0,2.43-.78,2.91,2.91,0,0,0,.78-2.15v-1.62h-.06a4.43,4.43,0,0,1-1.33,1.33,3.69,3.69,0,0,1-1.92.45,4.22,4.22,0,0,1-1.81-.38,4,4,0,0,1-1.39-1,4.73,4.73,0,0,1-.88-1.61,6.51,6.51,0,0,1-.31-2.07,6.23,6.23,0,0,1,.36-2.2,4.64,4.64,0,0,1,.95-1.61,3.81,3.81,0,0,1,1.39-1,4.47,4.47,0,0,1,1.69-.34,3.67,3.67,0,0,1,2,.49,4,4,0,0,1,1.28,1.31h.06v-1.58h1.21v9.82a3.92,3.92,0,0,1-.95,2.75,4.47,4.47,0,0,1-3.42,1.23,4.81,4.81,0,0,1-2.92-.77m5.36-5.17a5,5,0,0,0,.81-3,6.57,6.57,0,0,0-.2-1.66,3.81,3.81,0,0,0-.61-1.3,2.93,2.93,0,0,0-1-.84,3.49,3.49,0,0,0-1.46-.29,2.77,2.77,0,0,0-2.36,1.12,4.91,4.91,0,0,0-.84,3,6.29,6.29,0,0,0,.2,1.61,3.87,3.87,0,0,0,.59,1.28,2.79,2.79,0,0,0,1,.85,2.92,2.92,0,0,0,1.4.31,2.88,2.88,0,0,0,2.51-1.13"/><path class="cls-19" d="M265.75,229.45a4.22,4.22,0,0,1-1.49-1.13,5,5,0,0,1-.92-1.7,6.88,6.88,0,0,1-.31-2.12,6.65,6.65,0,0,1,.33-2.13,5.24,5.24,0,0,1,.94-1.69,4.23,4.23,0,0,1,1.46-1.13,4.48,4.48,0,0,1,1.93-.41,4.18,4.18,0,0,1,2.06.47,3.88,3.88,0,0,1,1.37,1.24,5.21,5.21,0,0,1,.74,1.79,9.64,9.64,0,0,1,.22,2.07h-7.79a6,6,0,0,0,.25,1.62,3.83,3.83,0,0,0,.65,1.29,2.87,2.87,0,0,0,1.08.87,3.44,3.44,0,0,0,1.52.32,2.88,2.88,0,0,0,2-.63,3.37,3.37,0,0,0,1-1.67H272a4.34,4.34,0,0,1-1.38,2.44,4.14,4.14,0,0,1-2.79.9,4.89,4.89,0,0,1-2-.4m4.83-7.12a3.6,3.6,0,0,0-.58-1.14,2.63,2.63,0,0,0-.95-.77,3.14,3.14,0,0,0-1.36-.27,3.27,3.27,0,0,0-1.38.27,3,3,0,0,0-1,.77,4,4,0,0,0-.66,1.13,5.39,5.39,0,0,0-.32,1.43h6.48a5.67,5.67,0,0,0-.21-1.42"/><path class="cls-19" d="M274.82,219.38v1.56h.05a4.23,4.23,0,0,1,1.35-1.28,4,4,0,0,1,2.06-.5,3.4,3.4,0,0,1,2.35.82,3,3,0,0,1,.92,2.36v7.26h-1.23v-7.14a2.16,2.16,0,0,0-.62-1.71,2.54,2.54,0,0,0-1.71-.54,3.43,3.43,0,0,0-1.23.22,3.15,3.15,0,0,0-1,.6,2.69,2.69,0,0,0-.68.92,2.72,2.72,0,0,0-.25,1.16v6.49H273.6V219.38Z"/><path class="cls-19" d="M284.71,229.25a1.68,1.68,0,0,1-.53-1.41v-7.45h-1.55v-1h1.55v-3.15h1.22v3.15h1.9v1h-1.9v7.25a.92.92,0,0,0,.25.76,1.11,1.11,0,0,0,.74.21,2.12,2.12,0,0,0,.44-.05,2.26,2.26,0,0,0,.37-.11h.06v1.05a3.61,3.61,0,0,1-1.13.18,2.23,2.23,0,0,1-1.42-.43"/><path class="cls-19" d="M290.93,229.45a4.28,4.28,0,0,1-1.5-1.13,5.11,5.11,0,0,1-.94-1.7,7.22,7.22,0,0,1,0-4.25,5.11,5.11,0,0,1,.94-1.7,4.4,4.4,0,0,1,1.5-1.13,5.1,5.1,0,0,1,4,0,4.33,4.33,0,0,1,1.48,1.13,4.92,4.92,0,0,1,.93,1.7,7.31,7.31,0,0,1,.32,2.13,6.88,6.88,0,0,1-.32,2.12,4.92,4.92,0,0,1-.93,1.7,4.21,4.21,0,0,1-1.48,1.13,5.1,5.1,0,0,1-4,0m3.49-1a3,3,0,0,0,1.08-.93,4,4,0,0,0,.66-1.38,6.6,6.6,0,0,0,0-3.36,4.16,4.16,0,0,0-.66-1.39,3,3,0,0,0-1.08-.92,3.19,3.19,0,0,0-1.5-.34,3.27,3.27,0,0,0-1.52.34,3.1,3.1,0,0,0-1.08.92,4.18,4.18,0,0,0-.67,1.39,6.6,6.6,0,0,0,0,3.36,4.13,4.13,0,0,0,.67,1.38,3,3,0,0,0,1.08.93,3.31,3.31,0,0,0,1.52.34,3.19,3.19,0,0,0,1.5-.34"/><path class="cls-19" d="M299.18,221.08a1.32,1.32,0,0,1,0-2.64,1.32,1.32,0,0,1,0,2.64m0-2.49a1.17,1.17,0,1,0,1.11,1.17,1.07,1.07,0,0,0-1.11-1.17m.38,1.88-.43-.63H299v.6h-.25V219h.44c.3,0,.51.16.51.43a.4.4,0,0,1-.3.4l.42.6Zm-.38-1.26H299v.43h.18c.16,0,.26-.06.26-.21s-.09-.22-.25-.22"/></g></g></g></svg>