<svg xmlns="http://www.w3.org/2000/svg" viewBox="0 0 500 308.67"><defs><style>.cls-1{fill:#fff;}.cls-2{fill:#eceff6;}.cls-21,.cls-3,.cls-36{fill:none;}.cls-3{stroke:#252525;stroke-width:0.5px;}.cls-21,.cls-3{stroke-miterlimit:10;}.cls-4{fill:#bbb3e3;}.cls-5{fill:#f6f5fb;}.cls-6{opacity:0.15;}.cls-7{fill:#ddd;}.cls-8{fill:#999;}.cls-9{fill:#f4f5fa;}.cls-10{fill:#f0eefb;}.cls-11{fill:#ff0076;}.cls-12{fill:#34219e;}.cls-13{fill:#f5f7f9;}.cls-14{fill:#e0e4f0;}.cls-15{fill:#fdfdfe;}.cls-16{fill:#f8d6ca;}.cls-17{fill:#31639c;}.cls-18,.cls-28{fill:#231f20;}.cls-18{opacity:0.3;}.cls-19{fill:#454545;}.cls-20{fill:#252525;}.cls-21{stroke:#fff;}.cls-22{fill:#f1f2f2;}.cls-23{fill:#dfe2ec;}.cls-24{fill:#efefef;}.cls-25{fill:#23287e;}.cls-26{fill:#5a82b0;}.cls-27,.cls-28{opacity:0.1;}.cls-29{fill:#1f0047;}.cls-30{fill:#a0dbe8;}.cls-31{fill:#525353;}.cls-32{fill:#aa9678;}.cls-33{fill:#c0b098;}.cls-34{fill:#786453;}.cls-35{fill:#8b7460;}.cls-37{fill:#bbbcbd;}.cls-38{fill:#676a6a;}.cls-39{fill:#909393;}.cls-40{fill:#e2dddb;}.cls-41{fill:#fbb040;}.cls-42{fill:#9f2255;}.cls-43{fill:#e2066f;}</style></defs><title>about_ps</title><g id="Bg"><rect class="cls-1" width="500" height="308.67"/></g><g id="Graphics"><g id="Layer_7" data-name="Layer 7"><rect class="cls-2" x="240.77" y="76.46" width="119.23" height="155.31"/><polyline class="cls-3" points="240.77 111.72 240.77 76.46 360 76.46 360 129.5"/><rect class="cls-1" x="244.95" y="91.84" width="110.93" height="63.87"/><circle class="cls-1" cx="252.6" cy="84.68" r="1.82"/><circle class="cls-1" cx="261.06" cy="84.68" r="1.82"/><circle class="cls-1" cx="269.53" cy="84.68" r="1.82"/><rect class="cls-4" x="311.79" y="98.5" width="39.7" height="6.32"/><rect class="cls-5" x="249.12" y="112.52" width="102.37" height="3.16"/><rect class="cls-5" x="249.23" y="122.01" width="102.37" height="3.16"/><rect class="cls-5" x="249.35" y="131.51" width="102.37" height="3.16"/><rect class="cls-5" x="249.47" y="141" width="102.37" height="3.16"/><g class="cls-6"><path class="cls-7" d="M83.82,231.82c-5.73-8.91-11.52-17.88-18.95-25.42-2.45-2.48-6-5-9.13-3.49-2.9,1.36-3.5,5.2-3.31,8.39.88,15,10.25,28.17,20.7,39a168.91,168.91,0,0,0,40,30.52l2.56.49Z"/><path class="cls-8" d="M110.67,277.59C87.78,261.51,69.73,237.09,59,211.47c-.39-.92-1.74-.15-1.35.76a157.11,157.11,0,0,0,21.84,36.56c9,11.26,19.61,20.27,31.11,28.87a0,0,0,0,0,0-.07Z"/><path class="cls-8" d="M56,223.8a22.55,22.55,0,0,0,10.4,5.54.48.48,0,0,0,.26-.92,23.75,23.75,0,0,1-10-5.25c-.42-.38-1.05.24-.63.63Z"/><path class="cls-8" d="M63.8,235.92c2.83,3,7,6.61,11,7.65a.23.23,0,0,0,.17-.42c-1.67-1.23-3.68-2-5.43-3.13a59.75,59.75,0,0,1-5.64-4.24.1.1,0,0,0-.14.14Z"/><path class="cls-8" d="M75.71,250.6a21.56,21.56,0,0,0,8,4.24.33.33,0,0,0,.18-.64,30.92,30.92,0,0,1-8-3.83c-.14-.09-.31.12-.18.23Z"/><path class="cls-8" d="M67.77,219.39c.67,4.67,1.34,8.77.82,13.51-.09.85,1.21.84,1.32,0,.56-4.4.4-9.69-1.41-13.81-.19-.44-.78-.12-.73.29Z"/><path class="cls-8" d="M75.24,230.09a32.35,32.35,0,0,1,3,14.12.53.53,0,0,0,1.06,0,27.11,27.11,0,0,0-3.72-14.32.18.18,0,0,0-.31.18Z"/><path class="cls-8" d="M85.37,242.47c2.46,5.44,4.43,10.17,4.85,16.22.07,1,1.62,1,1.55,0-.39-5.73-2.1-12.18-5.8-16.7-.29-.35-.76.1-.6.46Z"/><path class="cls-7" d="M105.64,276.85l-40.1-22.2c-4.72-2.61-9.5-5.25-14.73-6.58s-11-1.2-15.7,1.49A5.18,5.18,0,0,0,33.38,251c-1.34,2-.09,4.59,1.31,6.49,11.11,15.05,30.51,21.22,48.87,24.78,11,2.13,22.67,3.58,33-.72A87.3,87.3,0,0,1,105.64,276.85Z"/><path class="cls-8" d="M38.27,254.26c9.59,6.42,20.26,10.74,31,14.69,12,4.38,24,8.66,35.86,13.17.94.35,1.54-1.1.6-1.43-11.55-4-23-8.27-34.52-12.44-11.2-4.07-22.39-8.18-32.45-14.69-.48-.31-1,.38-.54.7Z"/><path class="cls-8" d="M41.94,262.38a115.41,115.41,0,0,0,11.84,1.51c.94.05,1.17-1.35.21-1.46A117,117,0,0,0,42,262c-.27,0-.34.38-.06.42Z"/><path class="cls-8" d="M57.68,271l7.73-.25a36.55,36.55,0,0,0,7.69-.55c.48-.12.57-.84,0-.92a34.86,34.86,0,0,0-7.36.21l-8.18.59c-.59,0-.47.93.11.92Z"/><path class="cls-8" d="M77.5,278.45A40.36,40.36,0,0,1,84,276.92c1.84-.21,3.81.25,5.58-.22.49-.13.34-.76,0-.95-1.72-1-4.58-.51-6.44-.16a14.72,14.72,0,0,0-6,2.38c-.27.19,0,.56.28.48Z"/><path class="cls-8" d="M49.16,252.54A51.73,51.73,0,0,1,52.72,259c.78,1.73,1.22,3.68,2.33,5.22a.25.25,0,0,0,.44-.18c-.14-2.17-1.43-4.28-2.4-6.19a65.37,65.37,0,0,0-3.33-5.8c-.26-.41-.86,0-.6.46Z"/><path class="cls-8" d="M62.34,259.48c2.23,2.68,4.33,5.9,7,8.19.18.16.4-.1.28-.27-1.88-2.92-4.77-5.44-7.1-8-.07-.08-.2,0-.13.1Z"/><path class="cls-8" d="M75.86,264.76c1.2,1.61,2.49,3.19,3.63,4.85,1,1.45,1.78,3.15,3.28,4.13a.32.32,0,0,0,.49-.37c-.54-1.71-2-2.92-3.09-4.28-1.28-1.56-2.46-3.21-3.68-4.81a.4.4,0,0,0-.63.48Z"/><path class="cls-7" d="M102.32,209.13c-2-1.86-5.29-2.61-7.48-1-2,1.49-2.38,4.28-2.47,6.77-.76,22.43,11.31,46.1,21.79,66l2.28.61c-1.65-22-3.36-44.29-10.27-65.25C105.32,213.66,104.32,211,102.32,209.13Z"/><path class="cls-8" d="M113.35,273.88c-5.88-18.94-9.92-38.27-14-57.66-.13-.65-1.16-.52-1,.12,4.52,19.25,8.17,38.95,14.68,57.66.07.2.37.08.3-.12Z"/><path class="cls-8" d="M95.36,223.07,98.25,227a14.3,14.3,0,0,0,2.73,3.26.37.37,0,0,0,.56-.42,14.16,14.16,0,0,0-2.4-3.52l-3-3.83a.51.51,0,0,0-.82.62Z"/><path class="cls-8" d="M97.68,234c1.7,2.76,3.3,6.14,5.55,8.48a.23.23,0,0,0,.4-.23c-.84-3.14-3.43-6.18-5.56-8.55a.25.25,0,0,0-.39.3Z"/><path class="cls-8" d="M101.28,247.39a23.28,23.28,0,0,0,2.47,4.94,27.45,27.45,0,0,0,2.42,4.17.23.23,0,0,0,.4-.22,31.45,31.45,0,0,0-2.36-5,19.85,19.85,0,0,0-2.34-4.24.34.34,0,0,0-.59.33Z"/><path class="cls-8" d="M106.64,228.64a20.89,20.89,0,0,0-2.44,5.73c-.4,1.54-1.07,3.81-.44,5.34a.35.35,0,0,0,.64,0c.7-1.43.53-3.48.86-5.07a35.27,35.27,0,0,1,1.8-5.76c.1-.25-.27-.5-.42-.25Z"/><path class="cls-8" d="M110.39,244c-.35,2-.58,4-.78,6.07a24.14,24.14,0,0,0-.35,5.55c0,.37.64.5.76.11a25.49,25.49,0,0,0,.56-5.86c.12-2,.19-3.9.17-5.86,0-.22-.33-.2-.36,0Z"/></g><g class="cls-6"><path class="cls-7" d="M366.77,284.57c1.41-12,3.28-21,12.08-29.59,4.12-4,9.58-6.88,12.83-11.61,4-5.76,4.28-13.78,9.73-18.27,5.84-4.82,15.22-3.5,21.24-8.11,4.29-3.29,5.86-8.82,8.94-13.19a24.26,24.26,0,0,1,23.24-9.51c-8.77,2.06-15,11.38-13.23,19.93,1.11,5.46,5,10.46,4.49,16-.94,11-17.62,15.74-18.91,26.73-.35,3,.56,6,.69,9,.39,9.35-8.05,18.21-17.75,18.62Z"/><path class="cls-8" d="M432.34,221.73a155.29,155.29,0,0,0-23,27.11c-6.34,9.5-10.82,19.59-16,29.68a.93.93,0,0,1-1.69-.69c6.75-21.65,23.49-41.29,40.65-56.13,0,0,.05,0,0,0Z"/><path class="cls-8" d="M431.6,232.9a17.26,17.26,0,0,0-7.15.58c-2.43.74-4.08,2.27-6.3,3.29-.25.12-.6-.13-.42-.39,2.73-3.88,9.56-4.58,13.92-3.89.24,0,.19.44,0,.41Z"/><path class="cls-8" d="M426.21,245a21.61,21.61,0,0,0-10-.12c-3,.73-5.4,2.37-8.09,3.77a.45.45,0,0,1-.55-.69c4.5-4.69,12.86-5.07,18.75-3.15a.1.1,0,1,1-.06.19Z"/><path class="cls-8" d="M420.26,261c-9.24-1.08-15.36.71-22.34,6.69-.41.36-1.15-.11-.81-.6,4.54-6.62,15.74-9.82,23.27-6.51a.22.22,0,0,1-.12.42Z"/><path class="cls-8" d="M414.35,227.47c3.72,3.93,2.36,11.73-1.24,15.3-.13.13-.37,0-.27-.2a14.17,14.17,0,0,0,2.85-7.66c.08-2.69-1-4.71-1.81-7.18a.28.28,0,0,1,.47-.26Z"/><path class="cls-8" d="M407.41,236.3c1.9,5.08,1.69,11.83-1.39,16.47-.15.23-.56.09-.47-.19,1.79-5.66,2.59-10.23,1.36-16.15a.26.26,0,0,1,.5-.13Z"/><path class="cls-8" d="M396.67,246c3.32,7.14,2.86,15-.25,22.16-.28.65-1.4.37-1.11-.3,3-7.14,2.83-14.25.7-21.58-.11-.38.49-.65.66-.28Z"/></g><rect class="cls-9" x="107.22" y="100.34" width="162.81" height="184.1"/><polyline class="cls-3" points="107.22 244.39 107.22 100.34 270.03 100.34 270.03 247.83"/><rect class="cls-1" x="113.51" y="118.3" width="149.41" height="166.75"/><rect class="cls-10" x="117.96" y="123.59" width="140.16" height="39.64"/><rect class="cls-10" x="117.96" y="167.82" width="57.62" height="116.61"/><path class="cls-1" d="M124.66,109.05a1.62,1.62,0,1,1-1.62-1.61A1.61,1.61,0,0,1,124.66,109.05Z"/><path class="cls-1" d="M134,109.05a1.62,1.62,0,1,1-1.61-1.61A1.61,1.61,0,0,1,134,109.05Z"/><path class="cls-1" d="M143.41,109.05a1.62,1.62,0,1,1-1.62-1.61A1.61,1.61,0,0,1,143.41,109.05Z"/><rect class="cls-2" x="275.89" y="129.85" width="119.23" height="155.31"/><line class="cls-3" x1="395.11" y1="129.85" x2="395.11" y2="285.15"/><polyline class="cls-3" points="275.89 169.79 275.89 129.85 395.11 129.85"/><rect class="cls-1" x="280.07" y="145.23" width="110.93" height="139.67"/><path class="cls-1" d="M289.53,138.06a1.82,1.82,0,1,1-1.82-1.82A1.82,1.82,0,0,1,289.53,138.06Z"/><path class="cls-1" d="M298,138.06a1.82,1.82,0,1,1-1.82-1.82A1.82,1.82,0,0,1,298,138.06Z"/><path class="cls-1" d="M306.47,138.06a1.82,1.82,0,1,1-1.82-1.82A1.82,1.82,0,0,1,306.47,138.06Z"/><rect class="cls-5" x="284" y="223.71" width="104.74" height="4.61"/><rect class="cls-5" x="283.98" y="234.27" width="104.74" height="4.61"/><rect class="cls-5" x="283.95" y="244.83" width="104.74" height="4.61"/><rect class="cls-5" x="283.92" y="255.38" width="104.74" height="4.61"/><rect class="cls-5" x="283.9" y="265.94" width="104.74" height="4.61"/><rect id="_Rectangle_" data-name="&lt;Rectangle&gt;" class="cls-1" x="93.9" y="248.47" width="66.78" height="36.18"/><rect id="_Rectangle_2" data-name="&lt;Rectangle&gt;" class="cls-11" x="93.9" y="277.12" width="66.78" height="7.53"/><rect id="_Rectangle_3" data-name="&lt;Rectangle&gt;" class="cls-12" x="123.61" y="280.12" width="34" height="1.42" transform="translate(281.22 561.67) rotate(180)"/><rect id="_Rectangle_4" data-name="&lt;Rectangle&gt;" class="cls-1" x="97.17" y="280.12" width="31.22" height="1.42" transform="translate(225.56 561.67) rotate(180)"/><path id="_Path_" data-name="&lt;Path&gt;" class="cls-1" d="M122,280.75a1.6,1.6,0,1,0,1.6-1.6A1.6,1.6,0,0,0,122,280.75Z"/><path id="_Path_2" data-name="&lt;Path&gt;" class="cls-11" d="M122.72,280.75a.89.89,0,1,0,.89-.89A.89.89,0,0,0,122.72,280.75Z"/><path id="_Path_3" data-name="&lt;Path&gt;" class="cls-11" d="M132.88,262.73l-10.33,6a1,1,0,0,1-1.57-.9V255.86a1,1,0,0,1,1.57-.91l10.33,6A1,1,0,0,1,132.88,262.73Z"/><polyline id="_Path_4" data-name="&lt;Path&gt;" class="cls-3" points="93.9 284.44 93.9 248.47 156.69 248.47"/><g id="_Group_" data-name="&lt;Group&gt;"><path id="_Compound_Path_" data-name="&lt;Compound Path&gt;" class="cls-1" d="M382.05,284.83H338.18v-53.3a2.19,2.19,0,0,1,2.18-2.18h39.51a2.19,2.19,0,0,1,2.18,2.18Z"/><path id="_Compound_Path_2" data-name="&lt;Compound Path&gt;" class="cls-3" d="M341.19,229.35H380a2,2,0,0,1,2,2v53.47"/><rect id="_Rectangle_5" data-name="&lt;Rectangle&gt;" class="cls-13" x="342.29" y="241.03" width="35.64" height="43.59"/><line class="cls-3" x1="353.72" y1="234.69" x2="366.44" y2="234.69"/><polygon id="_Path_5" data-name="&lt;Path&gt;" class="cls-12" points="342.29 272.92 342.29 284.83 349.99 284.81 349.99 266.47 342.29 272.92"/><polygon id="_Path_6" data-name="&lt;Path&gt;" class="cls-12" points="356.71 269.47 356.69 269.46 356.69 284.83 365.52 284.8 365.52 262.89 356.71 269.47"/><polygon id="_Path_7" data-name="&lt;Path&gt;" class="cls-4" points="350.05 266.44 349.99 266.49 349.99 284.83 356.69 284.81 356.69 269.44 350.05 266.44"/><polygon id="_Path_8" data-name="&lt;Path&gt;" class="cls-12" points="377.93 260.05 371 266.02 371 284.83 377.93 284.81 377.93 260.05"/><polygon id="_Path_9" data-name="&lt;Path&gt;" class="cls-4" points="371 266 365.52 262.92 365.52 284.83 371 284.81 371 266 371 266"/></g></g><g id="Layer_6" data-name="Layer 6"><g id="_Group_2" data-name="&lt;Group&gt;"><g id="_Group_3" data-name="&lt;Group&gt;"><path class="cls-14" d="M172,175H324.89a1.25,1.25,0,0,1,1.25,1.25v96.4a0,0,0,0,1,0,0H170.78a0,0,0,0,1,0,0v-96.4A1.25,1.25,0,0,1,172,175Z"/></g><g id="_Group_4" data-name="&lt;Group&gt;"><path class="cls-3" d="M172,175H324.89a1.25,1.25,0,0,1,1.25,1.25v96.4a0,0,0,0,1,0,0H170.78a0,0,0,0,1,0,0v-96.4A1.25,1.25,0,0,1,172,175Z"/></g><g id="obalka"><path class="cls-1" d="M178.75,184c0,.12,7,5.35,15.5,11.61s24.36,17.91,35.19,25.91L249.2,236l.71-.5c2.23-1.46,68.1-51.2,68.21-51.47s-14-.3-69.63-.3C208.19,183.74,178.75,183.84,178.75,184Z"/><path class="cls-1" d="M178.75,225v39.53H318.17V185.4l-4.55,4.07c-2.54,2.22-12.72,11.24-22.65,20s-18.09,16-18.09,16,9.36,8,20.82,17.74C313.4,260,318.09,264,316.54,262.83c-.88-.64-45.27-34.21-45.9-34.7-.43-.35-1.17.25-8.73,6.94-4.55,4-9.27,8.14-10.47,9.18l-2.24,1.91-10.56-9.09C232.83,232,228,228,227.86,228s-32.68,24-44.94,33.14a16.81,16.81,0,0,1-2.26,1.56c0-.08,10-8.4,22.24-18.48s22.23-18.48,22.23-18.58-35.63-31.06-44.8-38.86l-1.58-1.34Z"/></g><g id="_Group_5" data-name="&lt;Group&gt;"><path class="cls-13" d="M335.19,277H161.73a26.4,26.4,0,0,0,18.61,7.67H316.59a26.39,26.39,0,0,0,18.6-7.67Z"/></g><g id="_Group_6" data-name="&lt;Group&gt;"><rect class="cls-15" x="161.73" y="272.1" width="173.46" height="4.88"/></g><g id="_Group_7" data-name="&lt;Group&gt;"><path class="cls-14" d="M259.2,275.86H237.73a1.33,1.33,0,0,1-1.33-1.32h0a1.34,1.34,0,0,1,1.33-1.33H259.2a1.33,1.33,0,0,1,1.32,1.33h0A1.32,1.32,0,0,1,259.2,275.86Z"/></g><line class="cls-3" x1="178.75" y1="264.71" x2="318.17" y2="264.71"/></g></g><g id="Layer_8" data-name="Layer 8"><path class="cls-13" d="M182,171.7l4.75,8.05a3.35,3.35,0,0,1-.61,4.17l-7.86,7.25-4-5.08Z"/><polygon class="cls-16" points="163.72 280.38 152.25 280.38 156.41 277.5 157.34 274.84 163.72 274.84 163.72 280.38"/><path class="cls-17" d="M178.58,209.68s.77,26.11,0,27.66c0,0,8,12.71,16.21,27.1H184.22l-16.41-24,4.46-30.77Z"/><path class="cls-18" d="M171.66,242.27s5.54-25.1,5.69-27c0-.5.59-1.07,1.34-1.72-.06-2.37-.11-3.92-.11-3.92h-6.31l-4.46,30.77,8.2,11.93C176.06,250.85,171.83,243.39,171.66,242.27Z"/><path class="cls-17" d="M160.45,206.63l-2.38,36.12-1.5,33.57h8.12s4.42-28.42,5.12-34c0,0,5.54-25.1,5.69-27s6.93-4.46,6.09-9.31l-4.93-4.32-15.17,1.62Z"/><path class="cls-19" d="M164.69,276.86v5.05a1.7,1.7,0,0,1-1.71,1.7H147l-6.7-1.15h0a3.5,3.5,0,0,1,2.19-2l6.93-2.19,5.2-3.4,2,4.15h5.76Z"/><path class="cls-20" d="M163.09,284.88H142.75a2.42,2.42,0,0,1-2.43-2.42h24.83v.36A2.06,2.06,0,0,1,163.09,284.88Z"/><line class="cls-21" x1="149.96" y1="277.91" x2="150.61" y2="279.08"/><line class="cls-21" x1="151.47" y1="276.92" x2="152.12" y2="278.08"/><line class="cls-21" x1="152.98" y1="275.92" x2="153.62" y2="277.09"/><g id="_Group_8" data-name="&lt;Group&gt;"><polygon id="_Path_10" data-name="&lt;Path&gt;" class="cls-22" points="142.65 155.61 140.42 159.06 141.49 159.79 143.6 157.3 142.65 155.61"/><path id="_Path_11" data-name="&lt;Path&gt;" class="cls-17" d="M142.65,155.59l-2.37,8.53a.23.23,0,0,0,.17.29l3.83,1.07a.24.24,0,0,0,.29-.17l2.38-8.52Z"/><path id="_Path_12" data-name="&lt;Path&gt;" class="cls-17" d="M149.12,155.31a3.41,3.41,0,0,0,1.82-6.57Z"/><path id="_Path_13" data-name="&lt;Path&gt;" class="cls-17" d="M124.63,148a3.16,3.16,0,0,1,1.69-6.09Z"/><rect id="_Path_14" data-name="&lt;Path&gt;" class="cls-22" x="141.93" y="146.47" width="8.86" height="8.86" transform="translate(-38.27 251.42) rotate(-74.44)"/><rect id="_Path_15" data-name="&lt;Path&gt;" class="cls-23" x="143.55" y="148.61" width="4.43" height="8.86" transform="translate(-40.77 252.41) rotate(-74.44)"/><rect id="_Path_16" data-name="&lt;Path&gt;" class="cls-24" x="114.02" y="143.95" width="21.42" height="1.6" transform="translate(-48.19 226.07) rotate(-74.44)"/><rect id="_Path_17" data-name="&lt;Path&gt;" class="cls-25" x="144.39" y="152.43" width="1.1" height="6.5" transform="translate(-43.91 253.54) rotate(-74.44)"/><path id="_Path_18" data-name="&lt;Path&gt;" class="cls-25" d="M144.93,157.29l1.74.48-.4,1.46-1.74-.48a.77.77,0,0,1-.53-.94A.75.75,0,0,1,144.93,157.29Z"/><path id="_Path_19" data-name="&lt;Path&gt;" class="cls-25" d="M144.24,159.77l1.74.48-.4,1.46-1.74-.48a.76.76,0,1,1,.4-1.46Z"/><path id="_Path_20" data-name="&lt;Path&gt;" class="cls-25" d="M143.55,162.25l1.74.48-.4,1.46-1.74-.48a.76.76,0,0,1,.4-1.46Z"/><polygon id="_Path_21" data-name="&lt;Path&gt;" class="cls-26" points="128.37 134.66 143.28 145.46 142.13 149.6 125.5 144.97 128.37 134.66"/><polygon id="_Path_22" data-name="&lt;Path&gt;" class="cls-17" points="142.13 149.6 140.9 153.99 122.63 155.28 125.5 144.97 142.13 149.6"/></g><path class="cls-16" d="M160.25,154.41s2.57,2.89,2.49,5.3v2.49h7s-1.38-11.17,0-12.07H165Z"/><path class="cls-16" d="M154.16,142.7c.13-.31.26-.62.4-.92l0-.12Z"/><path class="cls-16" d="M168.21,145.19a12.19,12.19,0,0,0-1-1.9c-1.06-1.77-2.4-3.53-4.34-4.24a9.75,9.75,0,0,0-3.49-.4,6,6,0,0,0-2.59.44,5.31,5.31,0,0,0-2.25,2.69,20.26,20.26,0,0,0,.16,10.46,5.71,5.71,0,0,0,1.47,2.5,5.31,5.31,0,0,0,2.27,1.11,6.07,6.07,0,0,0,2.71.14,8.19,8.19,0,0,0,2.31-1,14.93,14.93,0,0,0,2.66-1.68A7.5,7.5,0,0,0,168.21,145.19Z"/><path class="cls-20" d="M170.91,148.27a3,3,0,0,0,.32-3.76.7.7,0,0,1-.19-.42.84.84,0,0,1,.18-.41,2.11,2.11,0,0,0,0-2.31,1.14,1.14,0,0,1-.22-.44,1.27,1.27,0,0,1,.07-.38,2.16,2.16,0,0,0-.5-2.06,2.2,2.2,0,0,0-2-.63,3,3,0,0,0-.29-1.75,1.11,1.11,0,0,0-1.54-.43c0-1.16-1.62-1.37-2.46-1.43a5.75,5.75,0,0,0-1.85,0,3.24,3.24,0,0,0-.91.35c-.07,0-.64.5-.65.5a3.57,3.57,0,0,0-4.14,1.19,1.84,1.84,0,0,0-2.73.5c-.14.25-.16.57-.36.77s-.74.37-1,.61a2,2,0,0,0-.66.88,2.91,2.91,0,0,0-.06,1.28,2.16,2.16,0,0,0,.32,1.06,1.84,1.84,0,0,0,.76.56,4.84,4.84,0,0,0,1.82.53A2.1,2.1,0,0,0,156,142c.24-.16,1.31-1.13,1-1.44a3.88,3.88,0,0,0,1.27,1,1.43,1.43,0,0,0,1.5-.2c-.29.71,0,1.43,0,2.18A8,8,0,0,0,160,146a10.46,10.46,0,0,1,.89,2.28,3.94,3.94,0,0,0,0,.6.56.56,0,0,0,.37.44.54.54,0,0,0,.45-.15,1.52,1.52,0,0,0,.4-1.19c0-.62-.1-1.22-.11-1.84s-.08-1.13.56-1.32a2.67,2.67,0,0,1,2.95.87c.56.88.35,2,.63,3a3.89,3.89,0,0,0,2.2,2.36,7.53,7.53,0,0,0,3.26.55A3.09,3.09,0,0,0,170.91,148.27Z"/><path class="cls-20" d="M169.14,153.71l1.25.62a20.73,20.73,0,0,1,11.75,16.91,53.51,53.51,0,0,1,.13,6.21c0,.62-1.46,8.35-1.54,9-.3,2.25,1.68,21.8,1.68,21.8-11.23-4.28-19.37,4.45-24.34.94l1.46-37.66a20.17,20.17,0,0,1,.92-5.39l2.24-7.14Z"/><path class="cls-16" d="M167.64,163.83,157,173.45a1.36,1.36,0,0,1-1.93-.12l-8.53-9.81,1.47-1.75a2.69,2.69,0,0,0,.63-1.9h0a2.47,2.47,0,0,0-1.62-2.16l-.36-.13-.17,1.47-1.74-.51-2.18-2.36h0a2.14,2.14,0,0,0-2.31-.81l-.58.17-.56.8.29.9-.51,1,.23,1.43-.18.44a2.59,2.59,0,0,0,0,1.84l.67,1.83a1.63,1.63,0,0,0,.64.8l2.47,1.61,9.42,16.3a3.45,3.45,0,0,0,4.93,1.12l17-11.65a5.22,5.22,0,0,0,.88-7.85h0A5.21,5.21,0,0,0,167.64,163.83Z"/><path class="cls-13" d="M147.08,163.46l8,9.87a1.36,1.36,0,0,0,1.93.12l10.6-9.62a5.21,5.21,0,0,1,7.33.32h0a5.22,5.22,0,0,1-.88,7.85l-17,11.65a3.45,3.45,0,0,1-4.93-1.12L142.89,167Z"/><polygon class="cls-13" points="169.98 152.73 170.76 154.97 161.31 166.56 159.78 160.15 169.98 152.73"/></g><g id="Layer_10" data-name="Layer 10"><rect class="cls-16" x="332.56" y="273.84" width="5.73" height="5.21"/><path class="cls-20" d="M318.39,199.29a19,19,0,0,0,0,12.2l5.49,24.42-19.67,28.58,8.58,0,23.56-24.15,1.93-39.91Z"/><path class="cls-19" d="M331.73,277.46l-1.58,4v3.17H349.6v-.88a1.7,1.7,0,0,0-1.31-1.65l-3.13-.75-6.56-3.91h-1.16l-.53,1.16h-3.38l-.32-1.16Z"/><path class="cls-1" d="M330.15,283v1.69H349.6v-.88a1.71,1.71,0,0,0-.21-.81Z"/><path class="cls-16" d="M330,165.73l-13.46,8.1a1.74,1.74,0,0,0-.84,1.75l3.19,23.14,2.68-.73-.17-19.25a1.61,1.61,0,0,1,1-1.5l11-4.64Z"/><path class="cls-27" d="M337.19,222.93l-1.14-16-18.61-.62a20.69,20.69,0,0,0,.95,5.17l2.41,10.72a174.34,174.34,0,0,1,7.94,19.16l.28,7.1,7.33-8.17Z"/><path class="cls-20" d="M337.52,206.46l2.6,36.53-1,33h-7.58l-1.36-35.07s-5.92-17.17-10.47-23.35c-5-6.76-1.6-11.73-1.6-11.73Z"/><path class="cls-16" d="M341.3,154.52s-2.24,1.35-2.24,7l-7.53-3.82s1.23-3,1-4.33Z"/><path class="cls-20" d="M324.42,142.86l.46-.27c-1.2-2.25-1.42-5.14-3.37-6.78a4.53,4.53,0,0,0-7.42,3,7.93,7.93,0,0,0,.38,3,36.33,36.33,0,0,0,2.47,6.54,22.5,22.5,0,0,1,2.17,5.11,5.43,5.43,0,0,1-1.28,5.16,8.86,8.86,0,0,0,5-4c1.95-3.36,1.43-7.7-.25-11.2-.11-.24-.23-.55-.06-.75C323,142.12,324.11,143.49,324.42,142.86Z"/><path class="cls-16" d="M341.81,144.59a22,22,0,0,0-5.17-5.41l-.5-.21c-2.69,1.46-5.61,3.19-6.5,6.11a7.72,7.72,0,0,0,.51,5.32,6.83,6.83,0,0,0,1.49,2.22c1.48,1.41,3.64,1.78,5.66,2.08a11.22,11.22,0,0,0,4.65.06,1.48,1.48,0,0,0,.61-.28,1.58,1.58,0,0,0,.36-.56,8.61,8.61,0,0,0,.62-2.16A10.78,10.78,0,0,0,341.81,144.59Z"/><path class="cls-20" d="M336.44,138.61A14.64,14.64,0,0,0,328,140a7.37,7.37,0,0,0-3.7,6.95,6.34,6.34,0,0,0,1.75,4.18,8.09,8.09,0,0,0,1.69,1.08,20.73,20.73,0,0,0,2.23,1.07,8.43,8.43,0,0,1,3.06,1.69l0-.38c-.32-.87-.63-1.75-.95-2.62-.11-.28-.15-.81-.35-1s-.5-.23-.74-.37a2.56,2.56,0,0,1-.73-.62,2.7,2.7,0,0,1-.44-1.47.41.41,0,0,1,0-.19.45.45,0,0,1,.12-.16,1.42,1.42,0,0,1,.59-.29,2.91,2.91,0,0,1,.51,0c1.33,0,2.2.09,3.27-.87a6.31,6.31,0,0,0,.86-1,10.47,10.47,0,0,0,1.76-4.08c.13-.69.12-1.4.3-2.08S337.13,138.77,336.44,138.61Z"/><path class="cls-12" d="M324.88,141.73l-1,1.52a.51.51,0,0,0,.13.71h0a.51.51,0,0,0,.71-.13l1-1.53a.51.51,0,0,0-.13-.71h0A.5.5,0,0,0,324.88,141.73Z"/><polygon class="cls-13" points="330.79 157.06 341.3 162.13 341.91 166.94 330.79 158.88 330.79 157.06"/><path class="cls-11" d="M330.79,158.88s-7.34,3.21-6.85,14.47a36.91,36.91,0,0,1-.59,9c-1.14,5.66-7.81,23.88-7.81,23.88,9.34,8.06,18.35-.85,25.76,3.5,0,0-2.24-26.06.61-28.91l.25-.29a6.72,6.72,0,0,0,1.46-5.84l-1.71-7.78Z"/><path class="cls-28" d="M339.34,152.53l2.67,2.21a1.33,1.33,0,0,0,.55-.26,1.58,1.58,0,0,0,.36-.56,8.61,8.61,0,0,0,.62-2.16,10.63,10.63,0,0,0-1.47-6.72l-.31,0-.71.37-.38.07a1,1,0,0,0-.73,1.26l2,5.83-.51-.38A1.51,1.51,0,0,0,339.34,152.53Z"/><path class="cls-16" d="M330.21,168.88a3.76,3.76,0,0,1,5-2.23l13,5.44A.92.92,0,0,0,349.5,171l-3.4-13.61-5.9-4.88h0a1.49,1.49,0,0,1,2.08-.3l.52.38-2-5.83a1,1,0,0,1,.73-1.26l.38-.07.71-.37.79-.12.94-.28,4.47,6.22,2.32,8.71,5,15.63a3.35,3.35,0,0,1-3.64,4.35l-9.86-2.46-10.13-3.45a3.77,3.77,0,0,1-2.34-4.8Z"/><path class="cls-11" d="M343.44,178.27l-11.65-4.36a4.2,4.2,0,0,1-2.61-5.36h0a4.19,4.19,0,0,1,5.58-2.5l11.34,4.74C344.1,172,345.24,177.43,343.44,178.27Z"/></g><g id="Layer_11" data-name="Layer 11"><line class="cls-3" x1="62" y1="284.57" x2="193.18" y2="284.57"/><line class="cls-3" x1="59" y1="284.57" x2="41" y2="284.57"/><line class="cls-3" x1="303.41" y1="285.15" x2="443" y2="285.15"/><line class="cls-3" x1="454.5" y1="284.57" x2="448.5" y2="284.57"/></g><g id="PrestaShop"><g id="Calque_2" data-name="Calque 2"><g id="_Group_9" data-name="&lt;Group&gt;"><g id="_Group_10" data-name="&lt;Group&gt;"><path id="_Compound_Path_3" data-name="&lt;Compound Path&gt;" class="cls-29" d="M231.81,224.76a2.61,2.61,0,0,1,0-.35,2.88,2.88,0,0,1,1-2.34,3.33,3.33,0,0,1,2.2-.84,2.28,2.28,0,0,1,2.22,1.2Zm7.72-1.43a3.63,3.63,0,0,0-1.33-2.88,5,5,0,0,0-3.32-1.11,5.35,5.35,0,0,0-2.39.56,4.8,4.8,0,0,0-1.91,1.74,4.9,4.9,0,0,0-.77,2.73A4.73,4.73,0,0,0,231.3,228a5.06,5.06,0,0,0,3.55,1.37,5.55,5.55,0,0,0,4.1-1.79l-1.21-1.34a3.34,3.34,0,0,1-2.7,1.28,3.16,3.16,0,0,1-2.59-1.17l7.1-3Z"/><path id="_Path_23" data-name="&lt;Path&gt;" class="cls-29" d="M227.46,219.94a4.42,4.42,0,0,0-1.34,1.51v-2h-2.05v9.73h2.05v-4.17a4.16,4.16,0,0,1,.77-2.65,2.7,2.7,0,0,1,2.28-1h.11v-2.07a3.24,3.24,0,0,0-1.81.6"/><path id="_Path_24" data-name="&lt;Path&gt;" class="cls-29" d="M246.88,224.26a5.82,5.82,0,0,0-.92-.51c-.29-.12-.59-.23-.89-.33s-.66-.19-1-.29a4.76,4.76,0,0,1-.93-.31.72.72,0,0,1-.47-.7.85.85,0,0,1,.45-.79,2.33,2.33,0,0,1,1.19-.27,4.53,4.53,0,0,1,2.58.79l.77-1.52a5.68,5.68,0,0,0-3.18-1,4.3,4.3,0,0,0-2.74.82,2.59,2.59,0,0,0-1.05,2.16c0,1.29,1,2.2,3,2.75l.22.07c1.29.39,1.94.83,1.94,1.32a1,1,0,0,1-.41.82,1.7,1.7,0,0,1-1.09.32,5.51,5.51,0,0,1-3.3-1.29l-1,1.6a6.8,6.8,0,0,0,2,1.08,7,7,0,0,0,2.2.38,3.94,3.94,0,0,0,2.58-.83,2.76,2.76,0,0,0,1-2.23,2.3,2.3,0,0,0-1-2.05"/><path id="_Compound_Path_4" data-name="&lt;Compound Path&gt;" class="cls-29" d="M219.76,222.83a3.4,3.4,0,0,1-2.45.68h-2.5v-5.12H217a4.71,4.71,0,0,1,2.58.55,2.07,2.07,0,0,1,.83,1.87,2.85,2.85,0,0,1-.65,2m1.52-5.28a6.52,6.52,0,0,0-4.24-1.12h-4.39v12.79h2.16v-3.75h2.26a6.71,6.71,0,0,0,4.19-1.08,4.07,4.07,0,0,0,1.36-3.4,4.2,4.2,0,0,0-1.34-3.44"/><path id="_Path_25" data-name="&lt;Path&gt;" class="cls-29" d="M252.67,227.6a1.29,1.29,0,0,1-1-.42,1.61,1.61,0,0,1-.37-1.1v-5h2.57v-1.64h-2.57v-3.06h-2.05V226a3.23,3.23,0,0,0,.93,2.44,3,3,0,0,0,2.23.91,3.49,3.49,0,0,0,2.39-1l-.84-1.45a1.75,1.75,0,0,1-1.26.65"/><path id="_Compound_Path_5" data-name="&lt;Compound Path&gt;" class="cls-29" d="M262.05,226.67a2.73,2.73,0,0,1-2.05.89,2.9,2.9,0,0,1-2.11-.88,3.05,3.05,0,0,1-.89-2.28,3.28,3.28,0,0,1,.87-2.33,2.82,2.82,0,0,1,2.11-.94,2.69,2.69,0,0,1,2.07.94,3.34,3.34,0,0,1,.84,2.32,3.18,3.18,0,0,1-.84,2.28m.8-5.5a3.7,3.7,0,0,0-3.16-1.83,4.66,4.66,0,0,0-3.34,1.35,4.85,4.85,0,0,0-1.4,3.63,5,5,0,0,0,1.37,3.66,4.36,4.36,0,0,0,3.22,1.39,4,4,0,0,0,1.82-.45,3.94,3.94,0,0,0,1.49-1.29v1.59h2v-9.73h-2v1.68Z"/><path id="_Compound_Path_6" data-name="&lt;Compound Path&gt;" class="cls-11" d="M295.29,226.65a3.18,3.18,0,0,1-4.41,0,3.46,3.46,0,0,1,0-4.59,3.18,3.18,0,0,1,4.41,0,3.46,3.46,0,0,1,0,4.59m-2.21-7.31a5,5,0,0,0-3.66,1.46,5.07,5.07,0,0,0,0,7.12,5.34,5.34,0,0,0,7.32,0,5,5,0,0,0,0-7.12,5,5,0,0,0-3.66-1.46"/><path id="_Compound_Path_7" data-name="&lt;Compound Path&gt;" class="cls-11" d="M306.42,226.66a2.9,2.9,0,0,1-2.1.88,2.72,2.72,0,0,1-2.05-.89,3.18,3.18,0,0,1-.84-2.28,3.3,3.3,0,0,1,.84-2.31,2.68,2.68,0,0,1,2.07-.93,2.79,2.79,0,0,1,2.1.93,3.21,3.21,0,0,1,.88,2.32,3,3,0,0,1-.9,2.28m1.56-6a4.65,4.65,0,0,0-3.35-1.35,3.66,3.66,0,0,0-3.17,1.85v-1.7h-2v13.28h2v-5a4.29,4.29,0,0,0,6.53.2,5,5,0,0,0,1.38-3.66,4.81,4.81,0,0,0-1.39-3.61"/><path id="_Path_26" data-name="&lt;Path&gt;" class="cls-11" d="M283.19,219.34a3.78,3.78,0,0,0-1.92.51,3.21,3.21,0,0,0-1.32,1.41v-5.6H277.9v13.56H280V224a2.64,2.64,0,0,1,.78-2.06,2.69,2.69,0,0,1,1.85-.7c1.49,0,2.23.9,2.23,2.69v5.34h2.05v-6a3.9,3.9,0,0,0-1-2.91,3.64,3.64,0,0,0-2.66-1"/><path id="_Path_27" data-name="&lt;Path&gt;" class="cls-11" d="M275.44,223.07a7.1,7.1,0,0,0-3-1.33,9,9,0,0,1-2.57-.89,1.36,1.36,0,0,1-.61-1.19,1.28,1.28,0,0,1,.61-1.16,2.79,2.79,0,0,1,1.54-.39,6,6,0,0,1,1.92.33,4.33,4.33,0,0,1,1.54.85l1.15-1.63a6.38,6.38,0,0,0-2.09-1.14,7.59,7.59,0,0,0-2.43-.4,5.22,5.22,0,0,0-3.2,1,3.21,3.21,0,0,0-1.29,2.74,3.08,3.08,0,0,0,1.14,2.63,4.73,4.73,0,0,0,1.3.74,18.3,18.3,0,0,0,2.14.63,5.74,5.74,0,0,1,2,.75,1.31,1.31,0,0,1,.58,1.15,1.4,1.4,0,0,1-.61,1.19,2.75,2.75,0,0,1-1.66.45,6.09,6.09,0,0,1-4-1.69l-1.35,1.63a7.79,7.79,0,0,0,5.33,2.07,5.06,5.06,0,0,0,3.31-1,3.37,3.37,0,0,0,1.26-2.72,3.16,3.16,0,0,0-1-2.54"/></g><path id="_Path_28" data-name="&lt;Path&gt;" class="cls-30" d="M194,228.14l.48-.19c.19-.07.37-.14.56-.19s.47-.14.71-.19a7.83,7.83,0,0,1,1-.15c-.18.58-.39,1.15-.61,1.73,0,.11,0,.22,0,.33a6.77,6.77,0,0,1,2.74,0c0-.11,0-.22,0-.33-.22-.58-.43-1.15-.61-1.73a8.29,8.29,0,0,1,1,.15c.23.05.47.12.7.19s.37.12.56.19l.48.19a8.76,8.76,0,0,1,3,2.22,10,10,0,1,0-13,0A8.76,8.76,0,0,1,194,228.14Z"/><path id="_Path_29" data-name="&lt;Path&gt;" class="cls-31" d="M194.66,229.94a7.19,7.19,0,0,1,1.47-.46c0-.11,0-.22,0-.33.22-.58.43-1.15.61-1.73a7.83,7.83,0,0,0-1,.15c-.24.05-.48.12-.71.19s-.37.12-.56.19l.73.17Z"/><path id="_Path_30" data-name="&lt;Path&gt;" class="cls-31" d="M193,231a5.4,5.4,0,0,0,0-.56.2.2,0,0,1,.2-.21h.18l.64-2.11a8.76,8.76,0,0,0-3,2.22,10.49,10.49,0,0,0,1.5,1.07A5.74,5.74,0,0,1,193,231Z"/><path id="_Path_31" data-name="&lt;Path&gt;" class="cls-31" d="M201,228.14l.64,2.11h.18a.2.2,0,0,1,.2.2c0,.19,0,.38,0,.57a4.38,4.38,0,0,1,.45.41,10.49,10.49,0,0,0,1.5-1.07A8.76,8.76,0,0,0,201,228.14Z"/><path id="_Path_32" data-name="&lt;Path&gt;" class="cls-31" d="M199.79,228.12l.73-.17c-.19-.07-.37-.14-.56-.19s-.47-.14-.7-.19a8.29,8.29,0,0,0-1-.15c.18.58.39,1.15.61,1.73,0,.11,0,.22,0,.33a7.19,7.19,0,0,1,1.47.46Z"/><path id="_Path_33" data-name="&lt;Path&gt;" d="M197.5,230.25h1.4a5,5,0,0,1,0-.77,6.77,6.77,0,0,0-2.74,0,5,5,0,0,1,0,.77Z"/><path id="_Path_34" data-name="&lt;Path&gt;" d="M192.5,231.43l.35.19a4.17,4.17,0,0,0,.1-.6A5.74,5.74,0,0,0,192.5,231.43Z"/><path id="_Path_35" data-name="&lt;Path&gt;" d="M194.57,230.25h1.53a5,5,0,0,0,0-.77,7.19,7.19,0,0,0-1.47.46Z"/><path id="_Path_36" data-name="&lt;Path&gt;" d="M202.05,231c0,.2.06.4.1.6l.35-.19A4.38,4.38,0,0,0,202.05,231Z"/><path id="_Path_37" data-name="&lt;Path&gt;" d="M200.44,230.25l-.1-.31a7.19,7.19,0,0,0-1.47-.46,5,5,0,0,0,0,.77Z"/><path id="_Path_38" data-name="&lt;Path&gt;" class="cls-32" d="M194.57,230.25l.09-.31.55-1.82-.73-.17-.48.19-.64,2.11h1.21Z"/><path id="_Path_39" data-name="&lt;Path&gt;" class="cls-32" d="M200.34,229.94l.1.31h1.2l-.64-2.11-.48-.19-.73.17Z"/><path id="_Path_40" data-name="&lt;Path&gt;" class="cls-33" d="M193.39,230.67h0Z"/><path id="_Path_41" data-name="&lt;Path&gt;" class="cls-33" d="M197.5,230.66h-4.11a6.14,6.14,0,0,1-.16,1.14,9.86,9.86,0,0,0,4.27,1Z"/><path id="_Path_42" data-name="&lt;Path&gt;" class="cls-32" d="M201.62,230.66h0Z"/><path id="_Path_43" data-name="&lt;Path&gt;" class="cls-32" d="M201.6,230.66h-4.1v2.11a9.86,9.86,0,0,0,4.27-1,5.39,5.39,0,0,1-.15-1.14Z"/><rect id="_Path_44" data-name="&lt;Path&gt;" class="cls-34" x="197.5" y="230.45" height="0.21"/><path id="_Path_45" data-name="&lt;Path&gt;" class="cls-35" d="M202.05,231c0-.19,0-.38,0-.56a.2.2,0,0,0-.2-.21h-8.64a.2.2,0,0,0-.2.21,5.4,5.4,0,0,1,0,.56,4.17,4.17,0,0,1-.1.6l.38.2a6.37,6.37,0,0,0,.16-1.15h8.23a5.58,5.58,0,0,0,.15,1.15l.38-.2C202.11,231.42,202.07,231.22,202.05,231Z"/><g id="_Group_11" data-name="&lt;Group&gt;"><path id="_Path_46" data-name="&lt;Path&gt;" class="cls-36" d="M200.85,221.32h0a8.58,8.58,0,0,1,.34,1.09v.08s0,.08,0,.11,0-.11,0-.18a8.24,8.24,0,0,0-.34-1.1Z"/><path id="_Path_47" data-name="&lt;Path&gt;" class="cls-36" d="M203.75,223.56h0Z"/><path id="_Path_48" data-name="&lt;Path&gt;" class="cls-36" d="M203.81,223.52l0,0Z"/><path id="_Path_49" data-name="&lt;Path&gt;" class="cls-36" d="M200.55,221.05a7.3,7.3,0,0,0-.72-.52h0A6,6,0,0,1,200.55,221.05Z"/><path id="_Path_50" data-name="&lt;Path&gt;" class="cls-36" d="M202.86,223.44Z"/><path id="_Path_51" data-name="&lt;Path&gt;" class="cls-36" d="M203.28,224l0,0Z"/><path id="_Path_52" data-name="&lt;Path&gt;" class="cls-36" d="M201.16,222.61a.31.31,0,0,0,0,.08A.31.31,0,0,1,201.16,222.61Z"/><path id="_Path_53" data-name="&lt;Path&gt;" class="cls-36" d="M200.18,226.24a2.41,2.41,0,0,0-.3.72,2.41,2.41,0,0,1,.3-.72l.15-.25-.15.25Z"/><path id="_Path_54" data-name="&lt;Path&gt;" class="cls-36" d="M200.85,221.31l0-.05h0l0,.05.18.16Z"/><path id="_Path_55" data-name="&lt;Path&gt;" class="cls-36" d="M198.88,222.62Z"/><path id="_Path_56" data-name="&lt;Path&gt;" class="cls-36" d="M198.8,222.45Z"/><path id="_Path_57" data-name="&lt;Path&gt;" class="cls-36" d="M199.47,220.33l0,0Z"/><path id="_Path_58" data-name="&lt;Path&gt;" class="cls-36" d="M199.52,220.36l0,0Z"/><path id="_Path_59" data-name="&lt;Path&gt;" class="cls-36" d="M199.85,221.16v0Z"/><path id="_Path_60" data-name="&lt;Path&gt;" class="cls-36" d="M198.84,222.53h0Z"/><path id="_Path_61" data-name="&lt;Path&gt;" class="cls-36" d="M203.68,224.49l0,0Z"/><path id="_Path_62" data-name="&lt;Path&gt;" class="cls-36" d="M199.85,221.47c0,.11,0,.21,0,.31C199.84,221.68,199.85,221.58,199.85,221.47Z"/><path id="_Path_63" data-name="&lt;Path&gt;" class="cls-36" d="M198.9,222.71Z"/><path id="_Path_64" data-name="&lt;Path&gt;" class="cls-36" d="M199.81,220.52l-.22-.13Z"/><path id="_Path_65" data-name="&lt;Path&gt;" class="cls-36" d="M199.59,220.39l-.06,0Z"/><path id="_Path_66" data-name="&lt;Path&gt;" class="cls-36" d="M199.83,220.53Z"/><path id="_Path_67" data-name="&lt;Path&gt;" class="cls-36" d="M204,222.94v0h0v0Z"/><path id="_Path_68" data-name="&lt;Path&gt;" class="cls-36" d="M202.39,222.88l0,0h0l0,0Z"/><path id="_Path_69" data-name="&lt;Path&gt;" class="cls-36" d="M201,221.47l.39.37Z"/><path id="_Path_70" data-name="&lt;Path&gt;" class="cls-36" d="M203.62,222.23h0Z"/><path id="_Path_71" data-name="&lt;Path&gt;" class="cls-36" d="M203.23,222.73v0Z"/><path id="_Path_72" data-name="&lt;Path&gt;" class="cls-36" d="M203.71,222.25l0,0Z"/><path id="_Path_73" data-name="&lt;Path&gt;" class="cls-36" d="M203.86,222.38l0,0Z"/><path id="_Path_74" data-name="&lt;Path&gt;" class="cls-36" d="M204,222.77h0v0Z"/><path id="_Path_75" data-name="&lt;Path&gt;" class="cls-36" d="M204,223.07h0Z"/><path id="_Path_76" data-name="&lt;Path&gt;" class="cls-36" d="M203.36,222.4v0Z"/><path id="_Path_77" data-name="&lt;Path&gt;" class="cls-36" d="M203.55,222.24h0Z"/><path id="_Path_78" data-name="&lt;Path&gt;" class="cls-36" d="M201.78,222.21l-.19-.19Z"/><path id="_Path_79" data-name="&lt;Path&gt;" class="cls-36" d="M203.62,220.06h0V221l-.36,1.62h0l.36-1.62v-.92Z"/><path id="_Path_80" data-name="&lt;Path&gt;" class="cls-36" d="M202.11,222.57l-.1-.11Z"/><path id="_Path_81" data-name="&lt;Path&gt;" class="cls-36" d="M204,222.6a.08.08,0,0,1,0,0h0a.08.08,0,0,0,0,0Z"/><path id="_Path_82" data-name="&lt;Path&gt;" class="cls-36" d="M203.22,222.91Z"/><path id="_Path_83" data-name="&lt;Path&gt;" class="cls-36" d="M203.48,222.28l0,0Z"/><path id="_Path_84" data-name="&lt;Path&gt;" class="cls-36" d="M203.4,222.34l.06-.05Z"/><path id="_Path_85" data-name="&lt;Path&gt;" class="cls-36" d="M204,223.19h0a.29.29,0,0,1,0,.1,1,1,0,0,0,0-.1Z"/><path id="_Path_86" data-name="&lt;Path&gt;" class="cls-36" d="M191.86,222.61l0-.07Z"/><path id="_Path_87" data-name="&lt;Path&gt;" class="cls-36" d="M203.78,222.29l.05.05Z"/><path id="_Path_88" data-name="&lt;Path&gt;" class="cls-36" d="M192.14,222.2l0,0Z"/><path id="_Path_89" data-name="&lt;Path&gt;" class="cls-36" d="M198.92,222.91Z"/><path id="_Path_90" data-name="&lt;Path&gt;" class="cls-36" d="M191.43,223.4l-.05.11Z"/><path id="_Path_91" data-name="&lt;Path&gt;" class="cls-36" d="M191.21,223.91v0Z"/><polygon id="_Path_92" data-name="&lt;Path&gt;" class="cls-36" points="203.86 220.29 203.86 220.29 203.86 220.29 203.86 220.29"/><path id="_Path_93" data-name="&lt;Path&gt;" class="cls-36" d="M193.18,221.08Z"/><path id="_Path_94" data-name="&lt;Path&gt;" class="cls-36" d="M192.79,221.44l.06-.06Z"/><path id="_Path_95" data-name="&lt;Path&gt;" class="cls-36" d="M192.44,221.83l.06-.08Z"/><path id="_Path_96" data-name="&lt;Path&gt;" class="cls-36" d="M204,222.6l-.35-1.62Z"/><path id="_Path_97" data-name="&lt;Path&gt;" class="cls-36" d="M197.79,223.83h0Z"/><path id="_Path_98" data-name="&lt;Path&gt;" class="cls-36" d="M197.89,223.85h0Z"/><path id="_Path_99" data-name="&lt;Path&gt;" class="cls-36" d="M191.65,223a.83.83,0,0,0-.07.13A.83.83,0,0,1,191.65,223Z"/><path id="_Path_100" data-name="&lt;Path&gt;" class="cls-36" d="M197.53,223.73Z"/><path id="_Path_101" data-name="&lt;Path&gt;" class="cls-36" d="M197.7,223.81h0Z"/><path id="_Path_102" data-name="&lt;Path&gt;" class="cls-36" d="M197.61,223.78h0Z"/><path id="_Path_103" data-name="&lt;Path&gt;" class="cls-36" d="M197.12,223.27Z"/><path id="_Path_104" data-name="&lt;Path&gt;" class="cls-36" d="M197.07,222.7v0Z"/><path id="_Path_105" data-name="&lt;Path&gt;" class="cls-36" d="M197.17,222.45h0Z"/><path id="_Path_106" data-name="&lt;Path&gt;" class="cls-36" d="M197.48,222.13Z"/><path id="_Path_107" data-name="&lt;Path&gt;" class="cls-36" d="M197.1,222.62h0Z"/><path id="_Path_108" data-name="&lt;Path&gt;" class="cls-36" d="M197.13,222.53h0Z"/><path id="_Path_109" data-name="&lt;Path&gt;" class="cls-36" d="M198.17,222Z"/><path id="_Path_110" data-name="&lt;Path&gt;" class="cls-36" d="M198.34,222.05Z"/><path id="_Path_111" data-name="&lt;Path&gt;" class="cls-36" d="M197.64,222.05h0Z"/><path id="_Path_112" data-name="&lt;Path&gt;" class="cls-36" d="M197.81,222h0Z"/><path id="_Path_113" data-name="&lt;Path&gt;" class="cls-36" d="M198.92,222.8h0Z"/><path id="_Path_114" data-name="&lt;Path&gt;" class="cls-36" d="M198,219.9v0Z"/><path id="_Path_115" data-name="&lt;Path&gt;" class="cls-36" d="M198,219.83v0Z"/><path id="_Path_116" data-name="&lt;Path&gt;" class="cls-36" d="M198,219.8h0Z"/><path id="_Path_117" data-name="&lt;Path&gt;" class="cls-36" d="M198,220v0Z"/><path id="_Path_118" data-name="&lt;Path&gt;" class="cls-36" d="M203.89,223.41l0,.05Z"/><path id="_Path_119" data-name="&lt;Path&gt;" class="cls-36" d="M197.06,222.8v0Z"/><path id="_Path_120" data-name="&lt;Path&gt;" class="cls-36" d="M197.07,223.1Z"/><path id="_Path_121" data-name="&lt;Path&gt;" class="cls-36" d="M203.94,223.32l0,.06Z"/><path id="_Path_122" data-name="&lt;Path&gt;" class="cls-31" d="M200.35,228.83l-.09-.11.09.11Z"/><path id="_Path_123" data-name="&lt;Path&gt;" class="cls-32" d="M200.58,229.06h0a2,2,0,0,1-.23-.23h0A2,2,0,0,0,200.58,229.06Z"/><polygon id="_Path_124" data-name="&lt;Path&gt;" class="cls-1" points="203.62 220.06 203.62 220.06 203.62 220.06 203.61 220.06 203.62 220.06"/><path id="_Path_125" data-name="&lt;Path&gt;" class="cls-1" d="M204,222.92Z"/><path id="_Path_126" data-name="&lt;Path&gt;" class="cls-37" d="M204.12,220.61h0a2.78,2.78,0,0,0-.26-.32h0l-.12-.12-.05,0-.07-.06h0V221l.35,1.62h0a.08.08,0,0,1,0,0l.25.28h.26v-.07h0a7.22,7.22,0,0,0-.35-2.19h0Z"/><path id="_Path_127" data-name="&lt;Path&gt;" class="cls-37" d="M204,222.92h0Z"/><path id="_Path_128" data-name="&lt;Path&gt;" class="cls-38" d="M204,222.76h0s0,.07,0,.11v0h0v0s0,.08,0,.12h0l0,.12h0l.24-.27-.25-.28h0Z"/><path id="_Compound_Path_8" data-name="&lt;Compound Path&gt;" d="M204,223.07h0s0-.08,0-.12v-.05s0-.08,0-.11v0l0-.12a.08.08,0,0,0,0,0,.72.72,0,0,0-.09-.2l0,0,0,0-.05-.05h0l0,0h-.19l0,0h0l-.06.05,0,0v0a1.24,1.24,0,0,0-.1.2h0l0,.12v0a.61.61,0,0,0,0,.14h0c0,.38.18.69.4.69a.23.23,0,0,0,.11,0h0l0,0,0,0,.05-.06,0-.05,0,0,0-.06v0a.29.29,0,0,0,0-.1Zm-.38-.24c-.08,0-.15-.12-.15-.26s.07-.26.15-.26.15.12.15.26S203.71,222.83,203.63,222.83Z"/><path id="_Path_129" data-name="&lt;Path&gt;" class="cls-1" d="M203.63,222.31c.08,0,.15.12.15.26s-.07.26-.15.26-.15-.12-.15-.26S203.55,222.31,203.63,222.31Z"/><path id="_Path_130" data-name="&lt;Path&gt;" class="cls-39" d="M203.26,222.6h0a1.24,1.24,0,0,1,.1-.2v0l0,0,.06-.05h0l0,0h.19l0,0h0l.05.05,0,0,0,0a.72.72,0,0,1,.09.2h0l-.35-1.62-.36,1.62Z"/><path id="_Compound_Path_9" data-name="&lt;Compound Path&gt;" d="M198.92,222.9v-.09h0s0-.06,0-.09h0s0-.06,0-.09h0a.59.59,0,0,0,0-.08h0l0-.08h0a.68.68,0,0,0-.17-.21.81.81,0,0,0-.29-.19h0l-.17-.05h0a.82.82,0,0,0-.36,0h0a.49.49,0,0,0-.16.05h0l-.15.08h0l-.13.1h0a.87.87,0,0,0-.17.21h0l0,.07h0l0,.08h0a.19.19,0,0,1,0,.07v0a.22.22,0,0,0,0,.08v.12a1.1,1.1,0,0,0,0,.18h0a.84.84,0,0,0,.05.17h0a.81.81,0,0,0,.19.29.72.72,0,0,0,.22.17h0l.08,0h0l.08,0h0l.07,0H198a.86.86,0,0,0,.36-.07.51.51,0,0,0,.16-.09.75.75,0,0,0,.25-.25.51.51,0,0,0,.09-.16.86.86,0,0,0,.07-.36h0Zm-.93-.11a.35.35,0,0,1-.36-.35.36.36,0,0,1,.71,0A.35.35,0,0,1,198,222.79Z"/><path id="_Path_131" data-name="&lt;Path&gt;" class="cls-1" d="M198,222.09a.35.35,0,1,1-.36.35A.35.35,0,0,1,198,222.09Z"/><path id="_Path_132" data-name="&lt;Path&gt;" class="cls-37" d="M197.34,222.24h0l.64-2v-.45h0a5.8,5.8,0,0,0-1.11-.11h-.43a5.33,5.33,0,0,0-1.87.48,5.87,5.87,0,0,0-1.4.9h0l-.33.3-.06.06-.29.31-.06.08c-.1.11-.19.22-.28.34l0,0a4,4,0,0,0-.23.34l0,.07c-.06.1-.12.2-.17.3h2.94Z"/><path id="_Path_133" data-name="&lt;Path&gt;" class="cls-40" d="M199.82,222a1.64,1.64,0,0,0,0-.23c0-.1,0-.2,0-.31v-.31c0-.21,0-.42,0-.63h0l-.22-.13h0l-.06,0h0l0,0h0l0,0-.41-.19a7.19,7.19,0,0,0-1-.33V220h0v.24l.64,2h0a.68.68,0,0,1,.17.21h0l0,.08h0a.59.59,0,0,1,0,.08h0s0,.06,0,.09h0s0,.06,0,.09h0v.09h.79a8.62,8.62,0,0,0,.11-.87Z"/><path id="_Path_134" data-name="&lt;Path&gt;" class="cls-41" d="M200.85,221.32Z"/><path id="_Path_135" data-name="&lt;Path&gt;" class="cls-41" d="M198.93,225.73l.51-.52.27-.29a6.11,6.11,0,0,0,1.43-2.23.31.31,0,0,1,0-.08h0s0-.07,0-.11v-.08a10.56,10.56,0,0,0-.34-1.09h0l-.08-.07-.22-.2a7.3,7.3,0,0,0-.72-.52h0c0,.21,0,.42,0,.63v.31c0,.11,0,.21,0,.31a1.64,1.64,0,0,1,0,.23v0a8.62,8.62,0,0,1-.11.87l-.09.43a14.78,14.78,0,0,1-.91,2.22c-.08.19-.16.39-.23.59l0,0,.25-.26Z"/><path id="_Path_136" data-name="&lt;Path&gt;" class="cls-39" d="M197.35,222.23h0l.13-.1h0l.15-.08h0a.49.49,0,0,1,.16-.05h0l.18,0,.18,0h0l.17.05h0a.81.81,0,0,1,.29.19h0l-.64-2Z"/><path id="_Path_137" data-name="&lt;Path&gt;" class="cls-38" d="M197.12,223.27a.84.84,0,0,1-.05-.17h0a1.1,1.1,0,0,1,0-.18v-.12a.22.22,0,0,1,0-.08v0a.19.19,0,0,0,0-.07h0l0-.08h0l0-.07h0a.87.87,0,0,1,.17-.21h0l-2.71.67h0l2.69.65a.81.81,0,0,1-.19-.29Z"/><path id="_Path_138" data-name="&lt;Path&gt;" class="cls-40" d="M203.23,222.76v0l0-.12h0l.36-1.62v-.93a1.45,1.45,0,0,0-.93-.37,1.62,1.62,0,0,0-1.07.51,3.79,3.79,0,0,0-.74,1.07l0,.05.18.16.39.37.17.18.19.19.23.25.1.11.28.31h0l0,0h.8A.61.61,0,0,1,203.23,222.76Z"/><path id="_Path_139" data-name="&lt;Path&gt;" class="cls-40" d="M200.85,221.32Z"/><path id="_Path_140" data-name="&lt;Path&gt;" class="cls-31" d="M191.2,223.93v0c0-.13.11-.27.17-.4l.05-.11.15-.3a.83.83,0,0,1,.07-.13.21.21,0,0,1,0-.06c.05-.1.11-.2.17-.3l0-.07a4,4,0,0,1,.23-.34l0,0c.09-.12.18-.23.28-.34l.06-.08.29-.31.06-.06.33-.3h0a3.55,3.55,0,0,1,5.28-2.06,3.67,3.67,0,0,1,1.34,1.45h0l0,.05h0a6,6,0,0,1,.72.52l.22.2.08.07h0l0-.05c.23-1.44.87-2.47,1.62-2.47.56,0,1.06.59,1.37,1.49h0a2.78,2.78,0,0,1,.26.32h0l0,0h0l0,0a7,7,0,0,0-13.24,4.4h0c.05-.21.1-.41.16-.61S191.15,224.08,191.2,223.93Z"/><path id="_Path_141" data-name="&lt;Path&gt;" class="cls-1" d="M204.23,222.92l-.24.27h0a1,1,0,0,1,0,.1v0l0,.06,0,0,0,.05-.05.06,0,0,0,0h0a.23.23,0,0,1-.11,0c-.22,0-.4-.31-.4-.69h-.8l.44.52h0l.42.52,0,0c.13.16.26.33.38.5l0,0c.14.17.27.35.4.53h0a7,7,0,0,0,.37-2.16h-.26Z"/><path id="_Path_142" data-name="&lt;Path&gt;" d="M196.45,219.69h.43a5.8,5.8,0,0,1,1.11.11h0v0a7.19,7.19,0,0,1,1,.33l.41.19,0,0h0l0,0h0l.06,0h0l.22.13h0l0-.05h0a3.67,3.67,0,0,0-1.34-1.45,3.55,3.55,0,0,0-5.28,2.06,5.87,5.87,0,0,1,1.4-.9A5.57,5.57,0,0,1,196.45,219.69Z"/><line id="_Path_143" data-name="&lt;Path&gt;" class="cls-36" x1="197.99" y1="219.97" x2="197.99" y2="220.01"/><path id="_Path_144" data-name="&lt;Path&gt;" d="M201.62,220.19a1.62,1.62,0,0,1,1.07-.51,1.45,1.45,0,0,1,.93.37h0l.07.07a.1.1,0,0,1,.05,0l.12.12h0c-.31-.9-.81-1.49-1.37-1.49-.75,0-1.39,1-1.62,2.47h0A3.79,3.79,0,0,1,201.62,220.19Z"/><path id="_Path_145" data-name="&lt;Path&gt;" class="cls-1" d="M195,229.35l.19.07a7,7,0,0,0,2.3.39,6.86,6.86,0,0,0,2.61-.51l.13-.05.2-.09.18-.09h0a3.14,3.14,0,0,1-.75,0c-1.43-.21-1.75-.9-1.7-1.62a2.92,2.92,0,0,1-.32-.21,9.52,9.52,0,0,1-1.76-1.65,9.13,9.13,0,0,0,2.13,1.15l.07,0c.06-.21.13-.4.2-.58h0l0,0c.07-.2.15-.4.23-.59a14.78,14.78,0,0,0,.91-2.22l.09-.43h-.79a.86.86,0,0,1-.07.36.51.51,0,0,1-.09.16.75.75,0,0,1-.25.25.51.51,0,0,1-.16.09.86.86,0,0,1-.36.07h-.22l-.07,0h0l-.08,0h0l-.08,0h0a.72.72,0,0,1-.22-.17l-2.69-.65h-2.93a.21.21,0,0,0,0,.06.83.83,0,0,0-.07.13l-.15.3-.05.11c-.06.13-.12.27-.17.4v0c0,.15-.11.31-.16.47s-.11.4-.16.61a7.05,7.05,0,0,0,2.54,3.47l.11.07a6.33,6.33,0,0,0,.61.39A7.89,7.89,0,0,0,195,229.35Z"/><path id="_Path_146" data-name="&lt;Path&gt;" class="cls-42" d="M199.83,227.18a1.8,1.8,0,0,0,0,.22,2.22,2.22,0,0,0,0,.37,1.74,1.74,0,0,0,0,.22,1.33,1.33,0,0,0,.11.3c0,.09.09.17.13.25a.35.35,0,0,1,.05.08l.08.1.09.11a2,2,0,0,0,.23.23h0v0h0a4,4,0,0,0,.93-.23l.47-.19.14-.07a12.1,12.1,0,0,0,2.94-2.14A8.77,8.77,0,0,1,199.83,227.18Z"/><path id="_Path_147" data-name="&lt;Path&gt;" class="cls-43" d="M203.68,224.49c-.12-.17-.25-.34-.38-.5l0,0-.42-.52h0l-.44-.52,0,0-.28-.31-.1-.11-.23-.25-.19-.19-.17-.18-.39-.37-.18-.16h0a7.34,7.34,0,0,1,.34,1.1c0,.1,0,.2.05.29a4.74,4.74,0,0,1-.91,3.29l-.15.24a2.41,2.41,0,0,0-.3.72,2.25,2.25,0,0,0,0,.22,8.77,8.77,0,0,0,5.28-.74s-.4-.57-1-1.37c-.13-.18-.26-.36-.4-.53Z"/><path id="_Path_148" data-name="&lt;Path&gt;" d="M200.58,229.06a2,2,0,0,1-.23-.23l-.09-.11-.08-.1a.35.35,0,0,0-.05-.08c0-.08-.09-.16-.13-.25a1.33,1.33,0,0,1-.11-.3.87.87,0,0,1,0-.22,2.22,2.22,0,0,1,0-.37,1.8,1.8,0,0,1,0-.22,2.25,2.25,0,0,1,0-.22,2.41,2.41,0,0,1,.3-.72h0l.15-.25a4.7,4.7,0,0,0,.91-3.28c0-.09,0-.19-.05-.29q0,.11,0,.18h0a.31.31,0,0,0,0,.08,6.11,6.11,0,0,1-1.43,2.23l-.27.29-.51.52-.22.21-.25.26h0c-.07.18-.14.37-.2.58l-.07,0a9.13,9.13,0,0,1-2.13-1.15,9.52,9.52,0,0,0,1.76,1.65,2.92,2.92,0,0,0,.32.21c0,.72.27,1.41,1.7,1.62a3.14,3.14,0,0,0,.75,0v0Z"/></g></g></g></g></g></svg>