<svg xmlns="http://www.w3.org/2000/svg" viewBox="0 0 500 308.67"><defs><style>.cls-1{fill:#fff;}.cls-2{fill:#eceff6;}.cls-22,.cls-3{fill:none;stroke-miterlimit:10;}.cls-3{stroke:#252525;stroke-width:0.5px;}.cls-4{fill:#e8cde8;}.cls-5{fill:#f3edf2;}.cls-6{opacity:0.15;}.cls-7{fill:#ddd;}.cls-8{fill:#999;}.cls-9{fill:#f4f5fa;}.cls-10{fill:#f8f0f8;}.cls-11{fill:#96588a;}.cls-12{fill:#71b02f;}.cls-13{fill:#f5f7f9;}.cls-14{fill:#d5bcd0;}.cls-15{fill:#e0e4f0;}.cls-16{fill:#fdfdfe;}.cls-17{fill:#f8d6ca;}.cls-18{fill:#31639c;}.cls-19,.cls-29{fill:#231f20;}.cls-19{opacity:0.3;}.cls-20{fill:#454545;}.cls-21{fill:#252525;}.cls-22{stroke:#fff;}.cls-23{fill:#f1f2f2;}.cls-24{fill:#dfe2ec;}.cls-25{fill:#efefef;}.cls-26{fill:#23287e;}.cls-27{fill:#5a82b0;}.cls-28,.cls-29{opacity:0.1;}</style></defs><title>about_wc</title><g id="Bg"><rect class="cls-1" width="500" height="308.67"/></g><g id="Graphics"><g id="Layer_7" data-name="Layer 7"><rect class="cls-2" x="240.77" y="76.46" width="119.23" height="155.31"/><polyline class="cls-3" points="240.77 111.72 240.77 76.46 360 76.46 360 129.5"/><rect class="cls-1" x="244.95" y="91.84" width="110.93" height="63.87"/><circle class="cls-1" cx="252.6" cy="84.68" r="1.82"/><circle class="cls-1" cx="261.06" cy="84.68" r="1.82"/><circle class="cls-1" cx="269.53" cy="84.68" r="1.82"/><rect class="cls-4" x="311.79" y="98.5" width="39.7" height="6.32"/><rect class="cls-5" x="249.12" y="112.52" width="102.37" height="3.16"/><rect class="cls-5" x="249.23" y="122.01" width="102.37" height="3.16"/><rect class="cls-5" x="249.35" y="131.51" width="102.37" height="3.16"/><rect class="cls-5" x="249.47" y="141" width="102.37" height="3.16"/><g class="cls-6"><path class="cls-7" d="M83.82,231.82c-5.73-8.91-11.52-17.88-18.95-25.42-2.45-2.48-6-5-9.13-3.49-2.9,1.36-3.5,5.2-3.31,8.39.88,15,10.25,28.17,20.7,39a168.91,168.91,0,0,0,40,30.52l2.56.49Z"/><path class="cls-8" d="M110.67,277.59C87.78,261.51,69.73,237.09,59,211.47c-.39-.92-1.74-.15-1.35.76a157.11,157.11,0,0,0,21.84,36.56c9,11.26,19.61,20.27,31.11,28.87a0,0,0,0,0,0-.07Z"/><path class="cls-8" d="M56,223.8a22.55,22.55,0,0,0,10.4,5.54.48.48,0,0,0,.26-.92,23.75,23.75,0,0,1-10-5.25c-.42-.38-1.05.24-.63.63Z"/><path class="cls-8" d="M63.8,235.92c2.83,3,7,6.61,11,7.65a.23.23,0,0,0,.17-.42c-1.67-1.23-3.68-2-5.43-3.13a59.75,59.75,0,0,1-5.64-4.24.1.1,0,0,0-.14.14Z"/><path class="cls-8" d="M75.71,250.6a21.56,21.56,0,0,0,8,4.24.33.33,0,0,0,.18-.64,30.92,30.92,0,0,1-8-3.83c-.14-.09-.31.12-.18.23Z"/><path class="cls-8" d="M67.77,219.39c.67,4.67,1.34,8.77.82,13.51-.09.85,1.21.84,1.32,0,.56-4.4.4-9.69-1.41-13.81-.19-.44-.78-.12-.73.29Z"/><path class="cls-8" d="M75.24,230.09a32.35,32.35,0,0,1,3,14.12.53.53,0,0,0,1.06,0,27.11,27.11,0,0,0-3.72-14.32.18.18,0,0,0-.31.18Z"/><path class="cls-8" d="M85.37,242.47c2.46,5.44,4.43,10.17,4.85,16.22.07,1,1.62,1,1.55,0-.39-5.73-2.1-12.18-5.8-16.7-.29-.35-.76.1-.6.46Z"/><path class="cls-7" d="M105.64,276.85l-40.1-22.2c-4.72-2.61-9.5-5.25-14.73-6.58s-11-1.2-15.7,1.49A5.18,5.18,0,0,0,33.38,251c-1.34,2-.09,4.59,1.31,6.49,11.11,15.05,30.51,21.22,48.87,24.78,11,2.13,22.67,3.58,33-.72A87.3,87.3,0,0,1,105.64,276.85Z"/><path class="cls-8" d="M38.27,254.26c9.59,6.42,20.26,10.74,31,14.69,12,4.38,24,8.66,35.86,13.17.94.35,1.54-1.1.6-1.43-11.55-4-23-8.27-34.52-12.44-11.2-4.07-22.39-8.18-32.45-14.69-.48-.31-1,.38-.54.7Z"/><path class="cls-8" d="M41.94,262.38a115.41,115.41,0,0,0,11.84,1.51c.94.05,1.17-1.35.21-1.46A117,117,0,0,0,42,262c-.27,0-.34.38-.06.42Z"/><path class="cls-8" d="M57.68,271l7.73-.25a36.55,36.55,0,0,0,7.69-.55c.48-.12.57-.84,0-.92a34.86,34.86,0,0,0-7.36.21l-8.18.59c-.59,0-.47.93.11.92Z"/><path class="cls-8" d="M77.5,278.45A40.36,40.36,0,0,1,84,276.92c1.84-.21,3.81.25,5.58-.22.49-.13.34-.76,0-.95-1.72-1-4.58-.51-6.44-.16a14.72,14.72,0,0,0-6,2.38c-.27.19,0,.56.28.48Z"/><path class="cls-8" d="M49.16,252.54A51.73,51.73,0,0,1,52.72,259c.78,1.73,1.22,3.68,2.33,5.22a.25.25,0,0,0,.44-.18c-.14-2.17-1.43-4.28-2.4-6.19a65.37,65.37,0,0,0-3.33-5.8c-.26-.41-.86,0-.6.46Z"/><path class="cls-8" d="M62.34,259.48c2.23,2.68,4.33,5.9,7,8.19.18.16.4-.1.28-.27-1.88-2.92-4.77-5.44-7.1-8-.07-.08-.2,0-.13.1Z"/><path class="cls-8" d="M75.86,264.76c1.2,1.61,2.49,3.19,3.63,4.85,1,1.45,1.78,3.15,3.28,4.13a.32.32,0,0,0,.49-.37c-.54-1.71-2-2.92-3.09-4.28-1.28-1.56-2.46-3.21-3.68-4.81a.4.4,0,0,0-.63.48Z"/><path class="cls-7" d="M102.32,209.13c-2-1.86-5.29-2.61-7.48-1-2,1.49-2.38,4.28-2.47,6.77-.76,22.43,11.31,46.1,21.79,66l2.28.61c-1.65-22-3.36-44.29-10.27-65.25C105.32,213.66,104.32,211,102.32,209.13Z"/><path class="cls-8" d="M113.35,273.88c-5.88-18.94-9.92-38.27-14-57.66-.13-.65-1.16-.52-1,.12,4.52,19.25,8.17,38.95,14.68,57.66.07.2.37.08.3-.12Z"/><path class="cls-8" d="M95.36,223.07,98.25,227a14.3,14.3,0,0,0,2.73,3.26.37.37,0,0,0,.56-.42,14.16,14.16,0,0,0-2.4-3.52l-3-3.83a.51.51,0,0,0-.82.62Z"/><path class="cls-8" d="M97.68,234c1.7,2.76,3.3,6.14,5.55,8.48a.23.23,0,0,0,.4-.23c-.84-3.14-3.43-6.18-5.56-8.55a.25.25,0,0,0-.39.3Z"/><path class="cls-8" d="M101.28,247.39a23.28,23.28,0,0,0,2.47,4.94,27.45,27.45,0,0,0,2.42,4.17.23.23,0,0,0,.4-.22,31.45,31.45,0,0,0-2.36-5,19.85,19.85,0,0,0-2.34-4.24.34.34,0,0,0-.59.33Z"/><path class="cls-8" d="M106.64,228.64a20.89,20.89,0,0,0-2.44,5.73c-.4,1.54-1.07,3.81-.44,5.34a.35.35,0,0,0,.64,0c.7-1.43.53-3.48.86-5.07a35.27,35.27,0,0,1,1.8-5.76c.1-.25-.27-.5-.42-.25Z"/><path class="cls-8" d="M110.39,244c-.35,2-.58,4-.78,6.07a24.14,24.14,0,0,0-.35,5.55c0,.37.64.5.76.11a25.49,25.49,0,0,0,.56-5.86c.12-2,.19-3.9.17-5.86,0-.22-.33-.2-.36,0Z"/></g><g class="cls-6"><path class="cls-7" d="M366.77,284.57c1.41-12,3.28-21,12.08-29.59,4.12-4,9.58-6.88,12.83-11.61,4-5.76,4.28-13.78,9.73-18.27,5.84-4.82,15.22-3.5,21.24-8.11,4.29-3.29,5.86-8.82,8.94-13.19a24.26,24.26,0,0,1,23.24-9.51c-8.77,2.06-15,11.38-13.23,19.93,1.11,5.46,5,10.46,4.49,16-.94,11-17.62,15.74-18.91,26.73-.35,3,.56,6,.69,9,.39,9.35-8.05,18.21-17.75,18.62Z"/><path class="cls-8" d="M432.34,221.73a155.29,155.29,0,0,0-23,27.11c-6.34,9.5-10.82,19.59-16,29.68a.93.93,0,0,1-1.69-.69c6.75-21.65,23.49-41.29,40.65-56.13,0,0,.05,0,0,0Z"/><path class="cls-8" d="M431.6,232.9a17.26,17.26,0,0,0-7.15.58c-2.43.74-4.08,2.27-6.3,3.29-.25.12-.6-.13-.42-.39,2.73-3.88,9.56-4.58,13.92-3.89.24,0,.19.44,0,.41Z"/><path class="cls-8" d="M426.21,245a21.61,21.61,0,0,0-10-.12c-3,.73-5.4,2.37-8.09,3.77a.45.45,0,0,1-.55-.69c4.5-4.69,12.86-5.07,18.75-3.15a.1.1,0,1,1-.06.19Z"/><path class="cls-8" d="M420.26,261c-9.24-1.08-15.36.71-22.34,6.69-.41.36-1.15-.11-.81-.6,4.54-6.62,15.74-9.82,23.27-6.51a.22.22,0,0,1-.12.42Z"/><path class="cls-8" d="M414.35,227.47c3.72,3.93,2.36,11.73-1.24,15.3-.13.13-.37,0-.27-.2a14.17,14.17,0,0,0,2.85-7.66c.08-2.69-1-4.71-1.81-7.18a.28.28,0,0,1,.47-.26Z"/><path class="cls-8" d="M407.41,236.3c1.9,5.08,1.69,11.83-1.39,16.47-.15.23-.56.09-.47-.19,1.79-5.66,2.59-10.23,1.36-16.15a.26.26,0,0,1,.5-.13Z"/><path class="cls-8" d="M396.67,246c3.32,7.14,2.86,15-.25,22.16-.28.65-1.4.37-1.11-.3,3-7.14,2.83-14.25.7-21.58-.11-.38.49-.65.66-.28Z"/></g><rect class="cls-9" x="107.22" y="100.34" width="162.81" height="184.1"/><polyline class="cls-3" points="107.22 244.39 107.22 100.34 270.03 100.34 270.03 247.83"/><rect class="cls-1" x="113.51" y="118.3" width="149.41" height="166.75"/><rect class="cls-5" x="117.96" y="123.59" width="140.16" height="39.64"/><rect class="cls-10" x="117.96" y="167.82" width="57.62" height="116.61"/><path class="cls-1" d="M124.66,109.05a1.62,1.62,0,1,1-1.62-1.61A1.61,1.61,0,0,1,124.66,109.05Z"/><path class="cls-1" d="M134,109.05a1.62,1.62,0,1,1-1.61-1.61A1.61,1.61,0,0,1,134,109.05Z"/><path class="cls-1" d="M143.41,109.05a1.62,1.62,0,1,1-1.62-1.61A1.61,1.61,0,0,1,143.41,109.05Z"/><rect class="cls-2" x="275.89" y="129.85" width="119.23" height="155.31"/><line class="cls-3" x1="395.11" y1="129.85" x2="395.11" y2="285.15"/><polyline class="cls-3" points="275.89 169.79 275.89 129.85 395.11 129.85"/><rect class="cls-1" x="280.07" y="145.23" width="110.93" height="139.67"/><path class="cls-1" d="M289.53,138.06a1.82,1.82,0,1,1-1.82-1.82A1.82,1.82,0,0,1,289.53,138.06Z"/><path class="cls-1" d="M298,138.06a1.82,1.82,0,1,1-1.82-1.82A1.82,1.82,0,0,1,298,138.06Z"/><path class="cls-1" d="M306.47,138.06a1.82,1.82,0,1,1-1.82-1.82A1.82,1.82,0,0,1,306.47,138.06Z"/><rect class="cls-5" x="284" y="223.71" width="104.74" height="4.61"/><rect class="cls-5" x="283.98" y="234.27" width="104.74" height="4.61"/><rect class="cls-5" x="283.95" y="244.83" width="104.74" height="4.61"/><rect class="cls-5" x="283.92" y="255.38" width="104.74" height="4.61"/><rect class="cls-5" x="283.9" y="265.94" width="104.74" height="4.61"/><rect id="_Rectangle_" data-name="&lt;Rectangle&gt;" class="cls-1" x="93.9" y="248.47" width="66.78" height="36.18"/><rect id="_Rectangle_2" data-name="&lt;Rectangle&gt;" class="cls-11" x="93.9" y="277.12" width="66.78" height="7.53"/><rect id="_Rectangle_3" data-name="&lt;Rectangle&gt;" class="cls-12" x="123.61" y="280.12" width="34" height="1.42" transform="translate(281.22 561.67) rotate(180)"/><rect id="_Rectangle_4" data-name="&lt;Rectangle&gt;" class="cls-1" x="97.17" y="280.12" width="31.22" height="1.42" transform="translate(225.56 561.67) rotate(180)"/><path id="_Path_" data-name="&lt;Path&gt;" class="cls-1" d="M122,280.75a1.6,1.6,0,1,0,1.6-1.6A1.6,1.6,0,0,0,122,280.75Z"/><path id="_Path_2" data-name="&lt;Path&gt;" class="cls-11" d="M122.72,280.75a.89.89,0,1,0,.89-.89A.89.89,0,0,0,122.72,280.75Z"/><path id="_Path_3" data-name="&lt;Path&gt;" class="cls-11" d="M132.88,262.73l-10.33,6a1,1,0,0,1-1.57-.9V255.86a1,1,0,0,1,1.57-.91l10.33,6A1,1,0,0,1,132.88,262.73Z"/><polyline id="_Path_4" data-name="&lt;Path&gt;" class="cls-3" points="93.9 284.44 93.9 248.47 156.69 248.47"/><g id="_Group_" data-name="&lt;Group&gt;"><path id="_Compound_Path_" data-name="&lt;Compound Path&gt;" class="cls-1" d="M382.05,284.83H338.18v-53.3a2.19,2.19,0,0,1,2.18-2.18h39.51a2.19,2.19,0,0,1,2.18,2.18Z"/><path id="_Compound_Path_2" data-name="&lt;Compound Path&gt;" class="cls-3" d="M341.19,229.35H380a2,2,0,0,1,2,2v53.47"/><rect id="_Rectangle_5" data-name="&lt;Rectangle&gt;" class="cls-13" x="342.29" y="241.03" width="35.64" height="43.59"/><line class="cls-3" x1="353.72" y1="234.69" x2="366.44" y2="234.69"/><polygon id="_Path_5" data-name="&lt;Path&gt;" class="cls-11" points="342.29 272.92 342.29 284.83 349.99 284.81 349.99 266.47 342.29 272.92"/><polygon id="_Path_6" data-name="&lt;Path&gt;" class="cls-11" points="356.71 269.47 356.69 269.46 356.69 284.83 365.52 284.8 365.52 262.89 356.71 269.47"/><polygon id="_Path_7" data-name="&lt;Path&gt;" class="cls-14" points="350.05 266.44 349.99 266.49 349.99 284.83 356.69 284.81 356.69 269.44 350.05 266.44"/><polygon id="_Path_8" data-name="&lt;Path&gt;" class="cls-11" points="377.93 260.05 371 266.02 371 284.83 377.93 284.81 377.93 260.05"/><polygon id="_Path_9" data-name="&lt;Path&gt;" class="cls-14" points="371 266 365.52 262.92 365.52 284.83 371 284.81 371 266 371 266"/></g></g><g id="Layer_6" data-name="Layer 6"><g id="_Group_2" data-name="&lt;Group&gt;"><g id="_Group_3" data-name="&lt;Group&gt;"><path class="cls-15" d="M172,175H324.89a1.25,1.25,0,0,1,1.25,1.25v96.4a0,0,0,0,1,0,0H170.78a0,0,0,0,1,0,0v-96.4A1.25,1.25,0,0,1,172,175Z"/></g><g id="_Group_4" data-name="&lt;Group&gt;"><path class="cls-3" d="M172,175H324.89a1.25,1.25,0,0,1,1.25,1.25v96.4a0,0,0,0,1,0,0H170.78a0,0,0,0,1,0,0v-96.4A1.25,1.25,0,0,1,172,175Z"/></g><g id="logo_bg" data-name="logo bg"><rect class="cls-1" x="178.75" y="183.74" width="139.42" height="80.97"/></g><g id="_Group_5" data-name="&lt;Group&gt;"><path class="cls-13" d="M335.19,277H161.73a26.4,26.4,0,0,0,18.61,7.67H316.59a26.39,26.39,0,0,0,18.6-7.67Z"/></g><g id="_Group_6" data-name="&lt;Group&gt;"><rect class="cls-16" x="161.73" y="272.1" width="173.46" height="4.88"/></g><g id="_Group_7" data-name="&lt;Group&gt;"><path class="cls-15" d="M259.2,275.86H237.73a1.33,1.33,0,0,1-1.33-1.32h0a1.34,1.34,0,0,1,1.33-1.33H259.2a1.33,1.33,0,0,1,1.32,1.33h0A1.32,1.32,0,0,1,259.2,275.86Z"/></g><line class="cls-3" x1="178.75" y1="264.71" x2="318.17" y2="264.71"/></g></g><g id="Layer_8" data-name="Layer 8"><path class="cls-13" d="M181.86,172l4.74,8a3.34,3.34,0,0,1-.61,4.17l-7.86,7.25-4-5.08Z"/><polygon class="cls-17" points="163.6 280.65 152.13 280.65 156.28 277.77 157.21 275.11 163.6 275.11 163.6 280.65"/><path class="cls-18" d="M178.45,210s.77,26.11,0,27.66c0,0,8,12.71,16.21,27.1H184.09l-16.41-24L172.14,210Z"/><path class="cls-19" d="M171.53,242.54s5.54-25.1,5.69-26.94c.05-.51.59-1.08,1.34-1.73-.06-2.37-.11-3.92-.11-3.92h-6.31l-4.46,30.77,8.2,11.93C175.94,251.12,171.7,243.66,171.53,242.54Z"/><path class="cls-18" d="M160.32,206.91,157.94,243l-1.5,33.57h8.12s4.42-28.42,5.12-34c0,0,5.54-25.1,5.7-26.94s6.92-4.47,6.08-9.32L176.53,202l-15.17,1.63Z"/><path class="cls-20" d="M164.56,277.13v5.05a1.7,1.7,0,0,1-1.7,1.7h-16l-6.7-1.15h0a3.53,3.53,0,0,1,2.19-2l6.94-2.19,5.19-3.4,2,4.16h5.77Z"/><path class="cls-21" d="M163,285.15H142.62a2.42,2.42,0,0,1-2.43-2.42H165v.36A2.06,2.06,0,0,1,163,285.15Z"/><line class="cls-22" x1="149.83" y1="278.18" x2="150.48" y2="279.35"/><line class="cls-22" x1="151.34" y1="277.19" x2="151.99" y2="278.35"/><line class="cls-22" x1="152.85" y1="276.19" x2="153.5" y2="277.36"/><g id="_Group_8" data-name="&lt;Group&gt;"><polygon id="_Path_10" data-name="&lt;Path&gt;" class="cls-23" points="142.52 155.88 140.29 159.34 141.36 160.06 143.47 157.57 142.52 155.88"/><path id="_Path_11" data-name="&lt;Path&gt;" class="cls-18" d="M142.52,155.86l-2.37,8.53a.23.23,0,0,0,.17.29l3.83,1.07a.24.24,0,0,0,.3-.16l2.37-8.53Z"/><path id="_Path_12" data-name="&lt;Path&gt;" class="cls-18" d="M149,155.58a3.41,3.41,0,0,0,1.83-6.56Z"/><path id="_Path_13" data-name="&lt;Path&gt;" class="cls-18" d="M124.5,148.28a3.16,3.16,0,1,1,1.7-6.09Z"/><rect id="_Path_14" data-name="&lt;Path&gt;" class="cls-23" x="141.8" y="146.75" width="8.86" height="8.86" transform="translate(-38.63 251.49) rotate(-74.44)"/><rect id="_Path_15" data-name="&lt;Path&gt;" class="cls-24" x="143.42" y="148.88" width="4.43" height="8.86" transform="translate(-41.12 252.48) rotate(-74.44)"/><rect id="_Path_16" data-name="&lt;Path&gt;" class="cls-25" x="113.89" y="144.23" width="21.42" height="1.6" transform="translate(-48.54 226.15) rotate(-74.44)"/><rect id="_Path_17" data-name="&lt;Path&gt;" class="cls-26" x="144.26" y="152.7" width="1.1" height="6.5" transform="translate(-44.27 253.62) rotate(-74.44)"/><path id="_Path_18" data-name="&lt;Path&gt;" class="cls-26" d="M144.81,157.56l1.74.48-.41,1.46L144.4,159a.77.77,0,0,1-.53-.94A.76.76,0,0,1,144.81,157.56Z"/><path id="_Path_19" data-name="&lt;Path&gt;" class="cls-26" d="M144.12,160l1.73.48-.4,1.46-1.74-.48a.76.76,0,1,1,.41-1.46Z"/><path id="_Path_20" data-name="&lt;Path&gt;" class="cls-26" d="M143.42,162.52l1.74.48-.4,1.47L143,164a.76.76,0,1,1,.4-1.46Z"/><polygon id="_Path_21" data-name="&lt;Path&gt;" class="cls-27" points="128.24 134.94 143.15 145.73 142 149.87 125.37 145.24 128.24 134.94"/><polygon id="_Path_22" data-name="&lt;Path&gt;" class="cls-18" points="142 149.87 140.77 154.27 122.5 155.55 125.37 145.24 142 149.87"/></g><path class="cls-17" d="M160.12,154.69s2.57,2.88,2.49,5.29v2.49h7s-1.38-11.17,0-12.07h-4.75Z"/><path class="cls-17" d="M154,143c.13-.3.26-.61.4-.92l0-.12Z"/><path class="cls-17" d="M168.08,145.46a11.78,11.78,0,0,0-1-1.9c-1.06-1.77-2.4-3.53-4.34-4.24a9.75,9.75,0,0,0-3.49-.4,6.15,6.15,0,0,0-2.59.44,5.31,5.31,0,0,0-2.25,2.69,20.26,20.26,0,0,0,.16,10.46,5.66,5.66,0,0,0,1.47,2.5,5.31,5.31,0,0,0,2.27,1.11,6.07,6.07,0,0,0,2.71.15,8.72,8.72,0,0,0,2.32-1,14.6,14.6,0,0,0,2.65-1.67A7.52,7.52,0,0,0,168.08,145.46Z"/><path class="cls-21" d="M170.78,148.54a3,3,0,0,0,.32-3.76.74.74,0,0,1-.19-.41.76.76,0,0,1,.18-.41,2.12,2.12,0,0,0,0-2.32,1.08,1.08,0,0,1-.22-.44,1.27,1.27,0,0,1,.07-.38,2.14,2.14,0,0,0-2.53-2.68,3,3,0,0,0-.29-1.76,1.12,1.12,0,0,0-1.54-.43c0-1.15-1.62-1.36-2.46-1.43a6,6,0,0,0-1.85,0,3.24,3.24,0,0,0-.91.35c-.07,0-.63.5-.65.5a3.57,3.57,0,0,0-4.14,1.19,1.88,1.88,0,0,0-1.88-.25,1.84,1.84,0,0,0-.85.76c-.14.25-.15.56-.36.77s-.74.36-1,.6a2,2,0,0,0-.66.88,2.91,2.91,0,0,0-.06,1.28,2.23,2.23,0,0,0,.32,1.07,2.12,2.12,0,0,0,.76.56,5,5,0,0,0,1.82.52,2.1,2.1,0,0,0,1.27-.49c.24-.16,1.31-1.12,1-1.43a4,4,0,0,0,1.27,1,1.41,1.41,0,0,0,1.5-.2c-.29.71,0,1.43,0,2.18a8.07,8.07,0,0,0,.15,2.5,10.58,10.58,0,0,1,.89,2.27,4.18,4.18,0,0,0,0,.61.47.47,0,0,0,.82.28,1.52,1.52,0,0,0,.4-1.19c0-.61-.1-1.22-.11-1.83s-.08-1.14.56-1.32a2.63,2.63,0,0,1,2.95.87c.56.87.35,2,.63,3a3.89,3.89,0,0,0,2.2,2.36,7.53,7.53,0,0,0,3.26.55A3.09,3.09,0,0,0,170.78,148.54Z"/><path class="cls-21" d="M169,154l1.26.61A20.75,20.75,0,0,1,182,171.52a53.28,53.28,0,0,1,.13,6.2c0,.62-1.46,8.35-1.54,9-.3,2.26,1.68,21.8,1.68,21.8-11.23-4.28-19.37,4.45-24.34.94l1.46-37.66a20.17,20.17,0,0,1,.92-5.39l2.24-7.13Z"/><path class="cls-17" d="M167.51,164.1l-10.6,9.62a1.35,1.35,0,0,1-1.93-.12l-8.53-9.81,1.48-1.75a2.68,2.68,0,0,0,.62-1.9h0a2.44,2.44,0,0,0-1.61-2.15l-.37-.14-.17,1.47-1.74-.51-2.18-2.36h0a2.11,2.11,0,0,0-2.31-.8l-.58.16-.56.8.29.9-.51,1L139,160l-.17.44a2.54,2.54,0,0,0,0,1.84l.67,1.84a1.68,1.68,0,0,0,.64.8l2.47,1.6L152,182.81a3.45,3.45,0,0,0,4.93,1.11l17-11.65a5.21,5.21,0,0,0,.88-7.85h0A5.21,5.21,0,0,0,167.51,164.1Z"/><path class="cls-13" d="M147,163.73l8,9.87a1.35,1.35,0,0,0,1.93.12l10.6-9.62a5.21,5.21,0,0,1,7.33.32h0a5.21,5.21,0,0,1-.88,7.85l-17,11.65a3.45,3.45,0,0,1-4.93-1.11l-9.28-15.51Z"/><polygon class="cls-13" points="169.85 153 170.63 155.24 161.18 166.84 159.65 160.42 169.85 153"/></g><g id="Layer_10" data-name="Layer 10"><rect class="cls-17" x="332.56" y="273.84" width="5.73" height="5.21"/><path class="cls-21" d="M318.39,199.29a19,19,0,0,0,0,12.2l5.49,24.42-19.67,28.58,8.58,0,23.56-24.15,1.93-39.91Z"/><path class="cls-20" d="M331.73,277.46l-1.58,4v3.17H349.6v-.88a1.7,1.7,0,0,0-1.31-1.65l-3.13-.75-6.56-3.91h-1.16l-.53,1.16h-3.38l-.32-1.16Z"/><path class="cls-1" d="M330.15,283v1.69H349.6v-.88a1.71,1.71,0,0,0-.21-.81Z"/><path class="cls-17" d="M330,165.73l-13.46,8.1a1.74,1.74,0,0,0-.84,1.75l3.19,23.14,2.68-.73-.17-19.25a1.61,1.61,0,0,1,1-1.5l11-4.64Z"/><path class="cls-28" d="M337.19,222.93l-1.14-16-18.61-.62a20.69,20.69,0,0,0,.95,5.17l2.41,10.72a174.34,174.34,0,0,1,7.94,19.16l.28,7.1,7.33-8.17Z"/><path class="cls-21" d="M337.52,206.46l2.6,36.53-1,33h-7.58l-1.36-35.07s-5.92-17.17-10.47-23.35c-5-6.76-1.6-11.73-1.6-11.73Z"/><path class="cls-17" d="M341.3,154.52s-2.24,1.35-2.24,7l-7.53-3.82s1.23-3,1-4.33Z"/><path class="cls-21" d="M324.42,142.86l.46-.27c-1.2-2.25-1.42-5.14-3.37-6.78a4.53,4.53,0,0,0-7.42,3,7.93,7.93,0,0,0,.38,3,36.33,36.33,0,0,0,2.47,6.54,22.5,22.5,0,0,1,2.17,5.11,5.43,5.43,0,0,1-1.28,5.16,8.86,8.86,0,0,0,5-4c1.95-3.36,1.43-7.7-.25-11.2-.11-.24-.23-.55-.06-.75C323,142.12,324.11,143.49,324.42,142.86Z"/><path class="cls-17" d="M341.81,144.59a22,22,0,0,0-5.17-5.41l-.5-.21c-2.69,1.46-5.61,3.19-6.5,6.11a7.72,7.72,0,0,0,.51,5.32,6.83,6.83,0,0,0,1.49,2.22c1.48,1.41,3.64,1.78,5.66,2.08a11.22,11.22,0,0,0,4.65.06,1.48,1.48,0,0,0,.61-.28,1.58,1.58,0,0,0,.36-.56,8.61,8.61,0,0,0,.62-2.16A10.78,10.78,0,0,0,341.81,144.59Z"/><path class="cls-21" d="M336.44,138.61A14.64,14.64,0,0,0,328,140a7.37,7.37,0,0,0-3.7,6.95,6.34,6.34,0,0,0,1.75,4.18,8.09,8.09,0,0,0,1.69,1.08,20.73,20.73,0,0,0,2.23,1.07,8.43,8.43,0,0,1,3.06,1.69l0-.38c-.32-.87-.63-1.75-.95-2.62-.11-.28-.15-.81-.35-1s-.5-.23-.74-.37a2.56,2.56,0,0,1-.73-.62,2.7,2.7,0,0,1-.44-1.47.41.41,0,0,1,0-.19.45.45,0,0,1,.12-.16,1.42,1.42,0,0,1,.59-.29,2.91,2.91,0,0,1,.51,0c1.33,0,2.2.09,3.27-.87a6.31,6.31,0,0,0,.86-1,10.47,10.47,0,0,0,1.76-4.08c.13-.69.12-1.4.3-2.08S337.13,138.77,336.44,138.61Z"/><path class="cls-12" d="M324.88,141.73l-1,1.52a.51.51,0,0,0,.13.71h0a.51.51,0,0,0,.71-.13l1-1.53a.51.51,0,0,0-.13-.71h0A.5.5,0,0,0,324.88,141.73Z"/><polygon class="cls-13" points="330.79 157.06 341.3 162.13 341.91 166.94 330.79 158.88 330.79 157.06"/><path class="cls-11" d="M330.79,158.88s-7.34,3.21-6.85,14.47a36.91,36.91,0,0,1-.59,9c-1.14,5.66-7.81,23.88-7.81,23.88,9.34,8.06,18.35-.85,25.76,3.5,0,0-2.24-26.06.61-28.91l.25-.29a6.72,6.72,0,0,0,1.46-5.84l-1.71-7.78Z"/><path class="cls-29" d="M339.34,152.53l2.67,2.21a1.33,1.33,0,0,0,.55-.26,1.58,1.58,0,0,0,.36-.56,8.61,8.61,0,0,0,.62-2.16,10.63,10.63,0,0,0-1.47-6.72l-.31,0-.71.37-.38.07a1,1,0,0,0-.73,1.26l2,5.83-.51-.38A1.51,1.51,0,0,0,339.34,152.53Z"/><path class="cls-17" d="M330.21,168.88a3.76,3.76,0,0,1,5-2.23l13,5.44A.92.92,0,0,0,349.5,171l-3.4-13.61-5.9-4.88h0a1.49,1.49,0,0,1,2.08-.3l.52.38-2-5.83a1,1,0,0,1,.73-1.26l.38-.07.71-.37.79-.12.94-.28,4.47,6.22,2.32,8.71,5,15.63a3.35,3.35,0,0,1-3.64,4.35l-9.86-2.46-10.13-3.45a3.77,3.77,0,0,1-2.34-4.8Z"/><path class="cls-11" d="M343.44,178.27l-11.65-4.36a4.2,4.2,0,0,1-2.61-5.36h0a4.19,4.19,0,0,1,5.58-2.5l11.34,4.74C344.1,172,345.24,177.43,343.44,178.27Z"/></g><g id="Layer_11" data-name="Layer 11"><line class="cls-3" x1="62" y1="284.57" x2="193.18" y2="284.57"/><line class="cls-3" x1="59" y1="284.57" x2="41" y2="284.57"/><line class="cls-3" x1="303.41" y1="285.15" x2="443" y2="285.15"/><line class="cls-3" x1="454.5" y1="284.57" x2="448.5" y2="284.57"/></g><g id="WooCommerce"><path class="cls-11" d="M189.11,214.31a3.8,3.8,0,0,1,3.4-2.29H225.4a3.77,3.77,0,0,1,3.84,3.84v12.61a3.78,3.78,0,0,1-3.56,3.64c-4,0-8,0-12,0,.54,1.33,1.08,2.64,1.61,4-2.38-1.32-4.73-2.67-7.14-4-5.25,0-10.52,0-15.79,0a3.8,3.8,0,0,1-3.56-3.64c0-4.12,0-8.23,0-12.33a4.42,4.42,0,0,1,.32-1.83"/><path class="cls-1" d="M205.18,214.61a1.46,1.46,0,0,1,2.21.3,1.34,1.34,0,0,1,.06,1.29,18.77,18.77,0,0,0-1.51,5.33,34.58,34.58,0,0,0-.58,7.18,1.41,1.41,0,0,1-.92,1.51,1.77,1.77,0,0,1-1.59-.72,17.07,17.07,0,0,1-3.54-6.9c-.73,1.45-1.47,2.93-2.18,4.38a10.66,10.66,0,0,1-1.83,2.8c-.34.34-.92.64-1.35.3a5,5,0,0,1-1.1-2.27,97.54,97.54,0,0,1-2.27-11.13,1.4,1.4,0,0,1,.74-1.61,1.57,1.57,0,0,1,1.57.16,1.64,1.64,0,0,1,.44,1.05c.44,2.9.93,5.79,1.65,8.63,1.19-2.27,2.39-4.53,3.58-6.82a2.29,2.29,0,0,1,.71-.88,1.21,1.21,0,0,1,1.46.14,2.46,2.46,0,0,1,.49,1.2,31.58,31.58,0,0,0,1.53,5.5,32,32,0,0,1,1.65-7.93,5.69,5.69,0,0,1,.78-1.51m6.74,1.45a4.16,4.16,0,0,1,3.56,1.25,5.51,5.51,0,0,1,1.25,2.93,9.06,9.06,0,0,1-1,5.33,5.8,5.8,0,0,1-2.05,2.34,4.18,4.18,0,0,1-4.41-.14,4.83,4.83,0,0,1-1.85-3.1,8.54,8.54,0,0,1,2.38-7.64,4,4,0,0,1,2.11-1m.26,2.78a2.84,2.84,0,0,0-1.35,1.3,4.89,4.89,0,0,0-.4,4.57,1.39,1.39,0,0,0,.92.88,1.58,1.58,0,0,0,1.25-.5,4.62,4.62,0,0,0,1.33-2.61,4.44,4.44,0,0,0-.54-3.26,1.13,1.13,0,0,0-1.21-.38m10.06-2.78a4.14,4.14,0,0,1,3.5,1.17,5.32,5.32,0,0,1,1.33,3.15,9,9,0,0,1-1,5.13,5.82,5.82,0,0,1-2.11,2.4,4.2,4.2,0,0,1-4.25-.06,4.37,4.37,0,0,1-1.77-2.32,8.58,8.58,0,0,1,1.93-8.34,4.43,4.43,0,0,1,2.34-1.13m.28,2.78a3.11,3.11,0,0,0-1.43,1.48,4.84,4.84,0,0,0-.26,4.47,1.22,1.22,0,0,0,1,.8,1.89,1.89,0,0,0,1.3-.64,4.73,4.73,0,0,0,1.23-2.88,4.16,4.16,0,0,0-.62-2.87,1.1,1.1,0,0,0-1.19-.36"/><path class="cls-21" d="M236,216.44a7.53,7.53,0,0,1,3.34,0v2.68a4.09,4.09,0,0,0-2.76,0A3.16,3.16,0,0,0,235,222a3.32,3.32,0,0,0,1.31,3,3.76,3.76,0,0,0,3.08.2v2.68a6.58,6.58,0,0,1-4.07-.14,5.44,5.44,0,0,1-3.26-3.52,7.37,7.37,0,0,1-.12-3.73,5.49,5.49,0,0,1,4.09-4m8.08-.14a5.35,5.35,0,0,1,3.91.91,5.27,5.27,0,0,1,1.77,3.42,9.93,9.93,0,0,1-.29,4.24,4.62,4.62,0,0,1-2.27,2.76,5.68,5.68,0,0,1-3.68.3,4.1,4.1,0,0,1-2.66-2,8.27,8.27,0,0,1-.86-4.49,6.07,6.07,0,0,1,1.27-3.7,4.45,4.45,0,0,1,2.81-1.43m.41,2.56a1.64,1.64,0,0,0-1.05,1.26,10,10,0,0,0-.16,3.28,3.09,3.09,0,0,0,.56,1.71,1.48,1.48,0,0,0,2.19-.1,2.87,2.87,0,0,0,.49-1.47,9.89,9.89,0,0,0,0-2.77,3,3,0,0,0-.65-1.55,1.46,1.46,0,0,0-1.38-.36m53-2.38a7.75,7.75,0,0,1,3.52,0c0,.89,0,1.79,0,2.7a4.2,4.2,0,0,0-2.71,0,3.08,3.08,0,0,0-1.67,2.57,3.39,3.39,0,0,0,1.26,3.24,3.63,3.63,0,0,0,3.12.22c0,.89,0,1.81,0,2.7a6.74,6.74,0,0,1-4.3-.26,5.44,5.44,0,0,1-3-3.54,7.36,7.36,0,0,1-.06-3.67,5.47,5.47,0,0,1,3.88-3.9m-46,.08h3.84c.46,2.07.9,4.15,1.29,6.24.36-2.11.86-4.17,1.36-6.24H262q.78,5.64,1.51,11.25h-3c-.28-2.56-.51-5.15-.81-7.71-.62,2.56-1.26,5.15-1.87,7.71h-2c-.66-2.56-1.29-5.15-2-7.73-.26,2.56-.52,5.15-.77,7.73h-2.89q.72-5.61,1.43-11.25m13.76,0h3.84c.46,2.07.9,4.15,1.29,6.24.38-2.09.86-4.17,1.36-6.24h3.91q.78,5.64,1.52,11.25h-3c-.28-2.56-.53-5.15-.81-7.71-.62,2.56-1.24,5.15-1.87,7.71h-2.05l-2-7.73c-.26,2.58-.52,5.15-.77,7.73h-2.89q.75-5.61,1.45-11.25m12.79,0c2.05,0,4.12,0,6.17,0V219c-1,0-2.07,0-3.11,0v2.07h2.69v2.33h-2.69v2.07h3.13v2.4h-6.17c0-3.76,0-7.49,0-11.25m7,0c1.29,0,2.57,0,3.86,0a5.15,5.15,0,0,1,3.4,1.19,3.06,3.06,0,0,1,.77,3.06,3.14,3.14,0,0,1-1.69,1.93q1.2,2.53,2.43,5.07h-3.2c-.84-1.73-1.65-3.46-2.51-5.17,0,1.73,0,3.46,0,5.17h-3c0-3.74,0-7.49,0-11.25m3,2.17v2.68a3,3,0,0,0,1.61-.4,1.3,1.3,0,0,0,.14-1.73c-.41-.5-1.15-.5-1.75-.55M302,216.58h6.15V219H305v2.07h2.68v2.33H305v2.07h3.14v2.4H302c0-3.78,0-7.53,0-11.27"/></g></g></svg>