<svg xmlns="http://www.w3.org/2000/svg" viewBox="0 0 500 308.67"><defs><style>.cls-1{fill:#fff;}.cls-2,.cls-28{opacity:0.15;}.cls-3{fill:#ddd;}.cls-4{fill:#999;}.cls-5{fill:#e0e4f0;}.cls-6{fill:none;stroke:#252525;stroke-miterlimit:10;stroke-width:0.5px;}.cls-7{fill:#faf9fd;}.cls-24,.cls-30,.cls-8{fill:#231f20;}.cls-8{opacity:0.1;}.cls-9{fill:#f0eefb;}.cls-10{fill:#f8f7fc;}.cls-11{fill:#b5b5b5;}.cls-12{fill:#bbb3e3;}.cls-13{fill:#e9e7f6;}.cls-14{fill:#ffdeed;}.cls-15{fill:#fff4f9;}.cls-16{fill:#ba91b2;}.cls-17{fill:#f8d6ca;}.cls-18{fill:#ff0076;}.cls-19{fill:#252525;}.cls-20{fill:#454545;}.cls-21{fill:#31639c;}.cls-22{fill:#34219e;}.cls-23{fill:#3b6ba1;}.cls-24,.cls-29,.cls-31{opacity:0.2;}.cls-25{fill:#545671;}.cls-26{fill:#3f4155;}.cls-27{fill:#f5f7f9;}.cls-28,.cls-31{fill:#525d7a;}.cls-32{fill:#83a1c4;}</style></defs><title>customization_ps</title><g id="Bg"><rect class="cls-1" width="500" height="308.67"/></g><g id="Graphics"><g id="Layer_7" data-name="Layer 7"><g class="cls-2"><path class="cls-3" d="M84.14,188.22c-5.73-8.9-11.52-17.88-19-25.42-2.44-2.48-6-5-9.13-3.49-2.9,1.36-3.49,5.2-3.31,8.39.88,15,10.25,28.18,20.71,39a168.85,168.85,0,0,0,40,30.52l2.57.5C105.26,221,94.89,204.91,84.14,188.22Z"/><path class="cls-4" d="M111,234c-22.89-16.08-40.94-40.5-51.65-66.12-.38-.92-1.74-.15-1.35.76a157.46,157.46,0,0,0,21.84,36.56c9,11.26,19.61,20.27,31.12,28.87,0,0,.08,0,0-.07Z"/><path class="cls-4" d="M56.32,180.2a22.58,22.58,0,0,0,10.41,5.54.48.48,0,0,0,.25-.92,23.69,23.69,0,0,1-10-5.25c-.42-.37-1.05.24-.63.63Z"/><path class="cls-4" d="M64.12,192.32c2.84,3,7,6.61,11,7.66a.24.24,0,0,0,.18-.43c-1.67-1.22-3.69-2-5.44-3.13a58.08,58.08,0,0,1-5.64-4.24c-.1-.08-.23,0-.14.14Z"/><path class="cls-4" d="M76,207a21.38,21.38,0,0,0,8,4.24c.4.12.58-.52.17-.64a31.07,31.07,0,0,1-8-3.83c-.14-.09-.31.12-.18.23Z"/><path class="cls-4" d="M68.1,175.79c.66,4.67,1.33,8.77.81,13.51-.09.85,1.22.84,1.32,0,.56-4.41.41-9.7-1.41-13.82-.19-.44-.78-.11-.72.29Z"/><path class="cls-4" d="M75.56,186.49a32.36,32.36,0,0,1,3,14.13.53.53,0,0,0,1.06,0,27,27,0,0,0-3.71-14.32.18.18,0,0,0-.32.18Z"/><path class="cls-4" d="M85.7,198.87c2.45,5.44,4.43,10.18,4.84,16.22.07,1,1.62,1,1.55,0-.39-5.73-2.09-12.18-5.8-16.7-.29-.35-.76.1-.59.46Z"/><path class="cls-3" d="M106,233.26q-20-11.12-40.1-22.21c-4.71-2.61-9.5-5.25-14.72-6.57s-11-1.21-15.71,1.49a5.15,5.15,0,0,0-1.73,1.44c-1.34,2-.09,4.59,1.32,6.49,11.11,15,30.5,21.22,48.86,24.79,11,2.12,22.68,3.58,33-.73A88.92,88.92,0,0,1,106,233.26Z"/><path class="cls-4" d="M38.59,210.67c9.59,6.41,20.26,10.73,31.05,14.69,12,4.38,24,8.66,35.87,13.16.93.35,1.53-1.1.59-1.43-11.54-4-23-8.26-34.51-12.44-11.21-4.07-22.4-8.18-32.46-14.69-.48-.31-1,.39-.54.71Z"/><path class="cls-4" d="M42.26,218.79c3.92.6,7.88,1.3,11.85,1.51.94,0,1.16-1.36.2-1.47a117,117,0,0,0-12-.47.22.22,0,0,0-.06.43Z"/><path class="cls-4" d="M58,227.42l7.73-.24a37.28,37.28,0,0,0,7.69-.56.46.46,0,0,0,0-.91,35,35,0,0,0-7.37.2l-8.17.59c-.6,0-.48.94.11.92Z"/><path class="cls-4" d="M77.82,234.85a40.86,40.86,0,0,1,6.52-1.53c1.85-.21,3.81.25,5.58-.22.49-.13.35-.76,0-.95-1.72-1-4.57-.51-6.44-.16a14.62,14.62,0,0,0-5.94,2.38c-.28.2,0,.56.27.48Z"/><path class="cls-4" d="M49.48,208.94a51.92,51.92,0,0,1,3.57,6.5c.77,1.72,1.22,3.67,2.32,5.21a.25.25,0,0,0,.44-.18c-.14-2.17-1.43-4.28-2.4-6.19a65.37,65.37,0,0,0-3.33-5.8c-.26-.41-.86.05-.6.46Z"/><path class="cls-4" d="M62.67,215.88c2.22,2.68,4.32,5.91,7,8.19.17.16.39-.1.27-.27-1.88-2.92-4.77-5.44-7.09-8-.07-.08-.2,0-.13.1Z"/><path class="cls-4" d="M76.18,221.16c1.21,1.61,2.49,3.19,3.63,4.85,1,1.45,1.78,3.15,3.29,4.13a.32.32,0,0,0,.48-.37c-.54-1.71-2-2.92-3.09-4.28-1.27-1.56-2.45-3.21-3.68-4.81a.4.4,0,0,0-.63.48Z"/><path class="cls-3" d="M102.64,165.53c-2-1.86-5.29-2.61-7.48-1-2,1.49-2.38,4.28-2.46,6.77-.77,22.43,11.31,46.1,21.78,66l2.28.61c-1.65-22-3.35-44.28-10.27-65.25C105.64,170.06,104.64,167.39,102.64,165.53Z"/><path class="cls-4" d="M113.68,230.28c-5.89-18.94-9.93-38.27-14-57.66-.13-.65-1.16-.51-1,.12,4.52,19.25,8.17,38.95,14.67,57.66.07.2.37.08.31-.12Z"/><path class="cls-4" d="M95.69,179.47l2.88,3.89a14.13,14.13,0,0,0,2.74,3.26.36.36,0,0,0,.55-.42,14.31,14.31,0,0,0-2.39-3.52l-3-3.83a.51.51,0,0,0-.81.62Z"/><path class="cls-4" d="M98,190.41c1.7,2.76,3.3,6.14,5.56,8.48a.23.23,0,0,0,.39-.23c-.83-3.14-3.42-6.18-5.55-8.54a.25.25,0,0,0-.4.29Z"/><path class="cls-4" d="M101.6,203.8a23.45,23.45,0,0,0,2.47,4.93,27,27,0,0,0,2.42,4.17.23.23,0,0,0,.4-.22,31.4,31.4,0,0,0-2.35-5,20.56,20.56,0,0,0-2.34-4.24.35.35,0,0,0-.6.34Z"/><path class="cls-4" d="M107,185a20.56,20.56,0,0,0-2.43,5.73c-.4,1.54-1.07,3.82-.45,5.35a.36.36,0,0,0,.65,0c.7-1.43.52-3.48.85-5.06a35.42,35.42,0,0,1,1.81-5.77c.09-.25-.28-.49-.43-.25Z"/><path class="cls-4" d="M110.71,200.44c-.35,2-.58,4-.78,6.08a24,24,0,0,0-.34,5.54c0,.37.63.51.75.11a25.49,25.49,0,0,0,.56-5.86c.12-2,.19-3.9.17-5.86,0-.21-.33-.2-.36,0Z"/></g><rect class="cls-5" x="115.25" y="72.82" width="99.2" height="178.92"/><polyline class="cls-6" points="115.25 213.82 115.25 72.82 211.45 72.82"/><rect class="cls-7" x="120.27" y="91.24" width="89.21" height="160.5"/><path class="cls-1" d="M131.61,82.66a2.19,2.19,0,1,1-2.19-2.18A2.19,2.19,0,0,1,131.61,82.66Z"/><path class="cls-1" d="M141.76,82.66a2.19,2.19,0,1,1-2.19-2.18A2.19,2.19,0,0,1,141.76,82.66Z"/><path class="cls-1" d="M151.91,82.66a2.19,2.19,0,1,1-2.19-2.18A2.19,2.19,0,0,1,151.91,82.66Z"/><polygon class="cls-8" points="283.13 72.82 209.34 72.82 209.34 222.04 212.41 222.04 212.41 222.07 280.01 222.07 280.01 222.04 283.13 222.04 283.13 72.82"/><g class="cls-2"><path class="cls-3" d="M383.47,251.48c1.53-13.09,3.56-22.8,13.14-32.19,4.49-4.4,10.42-7.49,14-12.63,4.31-6.26,4.65-15,10.58-19.87,6.36-5.24,16.56-3.81,23.1-8.83,4.67-3.58,6.39-9.59,9.74-14.35a26.4,26.4,0,0,1,25.27-10.35c-9.54,2.25-16.27,12.39-14.39,21.69,1.21,5.94,5.4,11.37,4.89,17.41-1,12-19.17,17.13-20.57,29.08-.38,3.26.61,6.51.74,9.79.43,10.17-8.76,19.8-19.3,20.25Z"/><path class="cls-4" d="M454.8,183.12a168.39,168.39,0,0,0-25.05,29.49c-6.9,10.34-11.77,21.31-17.37,32.28a1,1,0,0,1-1.84-.74c7.35-23.55,25.56-44.92,44.23-61.06,0,0,.06,0,0,0Z"/><path class="cls-4" d="M454,195.27a19,19,0,0,0-7.78.63c-2.64.81-4.43,2.47-6.85,3.59-.27.12-.65-.15-.45-.44,3-4.22,10.4-5,15.14-4.22a.22.22,0,0,1-.06.44Z"/><path class="cls-4" d="M448.13,208.43a23.48,23.48,0,0,0-10.93-.14c-3.31.79-5.87,2.58-8.8,4.1a.48.48,0,0,1-.6-.74c4.9-5.1,14-5.52,20.4-3.44a.12.12,0,0,1-.07.22Z"/><path class="cls-4" d="M441.66,225.87c-10.05-1.18-16.71.77-24.3,7.28-.45.39-1.25-.11-.88-.65,4.93-7.21,17.12-10.69,25.31-7.09a.25.25,0,0,1-.13.46Z"/><path class="cls-4" d="M435.23,189.36c4,4.28,2.56,12.76-1.35,16.65-.14.14-.41,0-.29-.22,1.74-2.62,3-5.14,3.1-8.33.08-2.93-1.1-5.13-2-7.82a.3.3,0,0,1,.51-.28Z"/><path class="cls-4" d="M427.68,199c2.06,5.53,1.84,12.87-1.51,17.92-.16.25-.61.09-.51-.21,1.95-6.16,2.81-11.13,1.47-17.57a.28.28,0,0,1,.55-.14Z"/><path class="cls-4" d="M416,209.54c3.61,7.76,3.1,16.35-.27,24.1-.31.7-1.53.4-1.22-.33,3.27-7.77,3.09-15.5.76-23.48-.11-.4.54-.7.73-.29Z"/></g><rect class="cls-5" x="213.75" y="47.1" width="189.46" height="204.64"/><polyline class="cls-6" points="213.75 139.74 213.75 47.1 403.21 47.1 403.21 220.74"/><rect class="cls-9" x="219.49" y="68.17" width="67.85" height="183.09"/><rect class="cls-7" x="219.49" y="68.17" width="67.85" height="58.02"/><rect class="cls-1" x="287.33" y="68.17" width="108.67" height="183.09"/><rect class="cls-7" x="293.31" y="72.5" width="96.72" height="53.88"/><rect class="cls-10" x="294.59" y="136.07" width="36.64" height="4.95"/><rect class="cls-10" x="294.59" y="151.86" width="95.44" height="2.48"/><rect class="cls-10" x="294.59" y="160.73" width="95.44" height="2.48"/><rect class="cls-10" x="294.59" y="169.6" width="95.44" height="2.48"/><rect class="cls-10" x="294.59" y="178.47" width="95.44" height="2.48"/><rect class="cls-10" x="294.59" y="187.34" width="95.44" height="2.48"/><rect class="cls-10" x="294.59" y="196.21" width="59.91" height="2.48"/><rect class="cls-7" x="223.25" y="133.52" width="58.25" height="4.95"/><rect class="cls-7" x="223.25" y="145.63" width="58.25" height="4.95"/><rect class="cls-7" x="223.25" y="157.73" width="58.25" height="4.95"/><rect class="cls-7" x="223.25" y="169.84" width="58.25" height="4.95"/><rect class="cls-7" x="223.25" y="181.94" width="32.42" height="4.95"/><path class="cls-1" d="M232.46,58.36a2.5,2.5,0,1,1-2.5-2.5A2.5,2.5,0,0,1,232.46,58.36Z"/><path class="cls-1" d="M244.07,58.36a2.5,2.5,0,1,1-2.5-2.5A2.5,2.5,0,0,1,244.07,58.36Z"/><path class="cls-1" d="M255.67,58.36a2.5,2.5,0,1,1-2.49-2.5A2.49,2.49,0,0,1,255.67,58.36Z"/><circle class="cls-1" cx="253.41" cy="96.72" r="23.71" transform="translate(100.01 320.41) rotate(-76.45)"/><circle class="cls-11" cx="344.4" cy="98.63" r="12.72"/><polygon class="cls-8" points="346.63 209.83 321.25 209.83 321.25 251.56 322.31 251.56 322.31 251.57 345.55 251.57 345.55 251.56 346.63 251.56 346.63 209.83"/><polygon class="cls-8" points="317.13 186.68 287.3 186.68 287.3 251.55 288.54 251.55 288.54 251.57 315.87 251.57 315.87 251.55 317.13 251.55 317.13 186.68"/><polygon class="cls-8" points="281.63 141.03 149.34 141.03 149.34 251.54 154.84 251.54 154.84 251.57 276.04 251.57 276.04 251.54 281.63 251.54 281.63 141.03"/><rect class="cls-5" x="144.34" y="141.03" width="132.29" height="110.52"/><polyline class="cls-6" points="144.34 251.54 144.34 141.03 276.63 141.03 276.63 197.04"/><rect class="cls-1" x="149.84" y="155.62" width="121.2" height="95.95"/><path class="cls-1" d="M158.51,148.11a1.32,1.32,0,1,1-1.32-1.32A1.32,1.32,0,0,1,158.51,148.11Z"/><path class="cls-1" d="M166.12,148.11a1.31,1.31,0,1,1-1.31-1.32A1.31,1.31,0,0,1,166.12,148.11Z"/><path class="cls-1" d="M173.74,148.11a1.31,1.31,0,1,1-1.31-1.32A1.31,1.31,0,0,1,173.74,148.11Z"/><rect class="cls-12" x="155.1" y="161.97" width="6.36" height="3.91"/><rect class="cls-12" x="155.1" y="172.09" width="6.36" height="3.91"/><rect class="cls-12" x="155.1" y="182.22" width="6.36" height="3.91"/><rect class="cls-12" x="155.1" y="192.34" width="6.36" height="3.91"/><rect class="cls-12" x="155.1" y="202.47" width="6.36" height="3.91"/><rect class="cls-12" x="155.1" y="212.59" width="6.36" height="3.91"/><rect class="cls-12" x="155.1" y="222.72" width="6.36" height="3.91"/><rect class="cls-12" x="155.1" y="232.84" width="6.36" height="3.91"/><rect class="cls-12" x="155.1" y="242.97" width="6.36" height="3.91"/><rect class="cls-13" x="259.02" y="161.97" width="6.36" height="3.91"/><rect class="cls-13" x="259.02" y="172.09" width="6.36" height="3.91"/><rect class="cls-13" x="259.02" y="182.22" width="6.36" height="3.91"/><rect class="cls-14" x="259.02" y="192.34" width="6.36" height="3.91"/><rect class="cls-14" x="259.02" y="202.47" width="6.36" height="3.91"/><rect class="cls-14" x="259.02" y="212.59" width="6.36" height="3.91"/><rect class="cls-14" x="259.02" y="222.72" width="6.36" height="3.91"/><rect class="cls-14" x="259.02" y="232.84" width="6.36" height="3.91"/><rect class="cls-14" x="259.02" y="242.97" width="6.36" height="3.91"/><rect class="cls-9" x="238.62" y="161.97" width="18.17" height="3.91"/><rect class="cls-10" x="238.62" y="172.09" width="18.17" height="3.91"/><rect class="cls-9" x="238.62" y="182.22" width="18.17" height="3.91"/><rect class="cls-15" x="238.62" y="192.34" width="18.17" height="3.91"/><rect class="cls-15" x="238.62" y="202.47" width="18.17" height="3.91"/><rect class="cls-16" x="238.62" y="212.59" width="18.17" height="3.91"/><rect class="cls-15" x="238.62" y="222.72" width="18.17" height="3.91"/><rect class="cls-16" x="238.62" y="232.84" width="18.17" height="3.91"/><rect class="cls-15" x="238.62" y="242.97" width="18.17" height="3.91"/><rect class="cls-13" x="216.15" y="161.97" width="8.2" height="3.91"/><rect class="cls-10" x="197.01" y="172.09" width="23.44" height="3.91"/><rect class="cls-10" x="203.93" y="182.22" width="16.85" height="3.91"/><rect class="cls-10" x="185.29" y="192.34" width="27.54" height="3.91"/><rect class="cls-13" x="209.66" y="202.47" width="13.53" height="3.91"/><rect class="cls-10" x="194.27" y="212.59" width="17.3" height="3.91"/><rect class="cls-10" x="183.23" y="222.72" width="22.96" height="3.91"/><rect class="cls-13" x="210.28" y="232.84" width="14.07" height="3.91"/><rect class="cls-10" x="193.69" y="242.97" width="28.32" height="3.91"/><rect class="cls-10" x="166.82" y="161.97" width="47.38" height="3.91"/><rect class="cls-13" x="166.82" y="172.09" width="28.24" height="3.91"/><rect class="cls-10" x="166.82" y="182.22" width="34.88" height="3.91"/><rect class="cls-13" x="166.82" y="192.34" width="16.13" height="3.91"/><rect class="cls-10" x="166.82" y="202.47" width="40.54" height="3.91"/><rect class="cls-13" x="166.82" y="212.59" width="25.5" height="3.91"/><rect class="cls-13" x="166.82" y="222.72" width="14.12" height="3.91"/><rect class="cls-10" x="166.82" y="232.84" width="41.52" height="3.91"/><rect class="cls-10" x="166.82" y="242.97" width="24.53" height="3.91"/></g><g id="Layer_10" data-name="Layer 10"><rect class="cls-17" x="135.93" y="116.8" width="16.72" height="16.72"/><rect class="cls-18" x="146.13" y="100.08" width="16.72" height="16.72"/><rect class="cls-19" x="166.31" y="100.08" width="16.72" height="16.72"/><rect class="cls-20" x="156.31" y="116.8" width="16.72" height="16.72"/><rect class="cls-21" x="176.9" y="116.8" width="16.72" height="16.72"/><path class="cls-1" d="M141.15,126.59a1.25,1.25,0,0,0,1-.49l.53.55a2,2,0,0,1-2.93.17,1.81,1.81,0,0,1-.56-1.38,1.89,1.89,0,0,1,.57-1.4,1.93,1.93,0,0,1,1.4-.55,2,2,0,0,1,1.55.7l-.53.59a1.2,1.2,0,0,0-1-.49,1.12,1.12,0,0,0-.81.31,1,1,0,0,0-.34.83,1.14,1.14,0,0,0,.32.84A1.06,1.06,0,0,0,141.15,126.59Z"/><path class="cls-1" d="M144.09,126.74v-1h-.94v-.66h.94v-1h.74v1h.94v.66h-.94v1Z"/><path class="cls-1" d="M147.23,126.74v-1h-.94v-.66h.94v-1H148v1h.94v.66H148v1Z"/><path class="cls-1" d="M182.65,123.57a1.21,1.21,0,0,1,.37,1,1.17,1.17,0,0,1-.38,1,1.9,1.9,0,0,1-1.17.3H181v1h-.8v-3.54h1.26A1.84,1.84,0,0,1,182.65,123.57Zm-.58,1.4a.71.71,0,0,0,.14-.47.5.5,0,0,0-.19-.44,1.05,1.05,0,0,0-.57-.12H181v1.19h.53A.76.76,0,0,0,182.07,125Z"/><path class="cls-1" d="M185.84,123.26h.79v3.54h-.79v-1.39h-1.41v1.39h-.79v-3.54h.79v1.48h1.41Z"/><path class="cls-1" d="M190,123.57a1.24,1.24,0,0,1,.37,1,1.17,1.17,0,0,1-.38,1,1.9,1.9,0,0,1-1.17.3h-.48v1h-.79v-3.54h1.26A1.84,1.84,0,0,1,190,123.57Zm-.59,1.4a.66.66,0,0,0,.15-.47.52.52,0,0,0-.19-.44,1.05,1.05,0,0,0-.57-.12h-.46v1.19h.54A.71.71,0,0,0,189.36,125Z"/><path class="cls-1" d="M160.62,123.43h.72v3.22h-.72v-1.27h-1.28v1.27h-.72v-3.22h.72v1.34h1.28Z"/><path class="cls-1" d="M163.5,124.05v2.6h-.72v-2.6h-.92v-.62h2.55v.62Z"/><path class="cls-1" d="M167.82,124.62l-.87,1.76h-.43l-.87-1.76v2h-.72v-3.22h1l.83,1.77.83-1.77h1v3.22h-.72Z"/><path class="cls-1" d="M169.33,126.65v-3.22h.72V126h1.37v.64Z"/><path class="cls-1" d="M148.77,107.42v-.63h1.71v2.13a1.19,1.19,0,0,1-.3.88,1.11,1.11,0,0,1-.78.29,1.37,1.37,0,0,1-1-.46l.38-.52a.86.86,0,0,0,.62.32.34.34,0,0,0,.26-.12.49.49,0,0,0,.11-.36v-1.53Z"/><path class="cls-1" d="M153.54,110.06l-.31-.71h-1.37l-.3.71h-.78l1.41-3.27h.71l1.41,3.27Zm-1-2.3-.41.95H153Z"/><path class="cls-1" d="M155.7,108.87l.83-2.08h.79L156,110.06h-.62l-1.31-3.27h.79Z"/><path class="cls-1" d="M159.84,110.06l-.3-.71h-1.37l-.31.71h-.77l1.41-3.27h.71l1.41,3.27Zm-1-2.3-.41.95h.82Z"/><path class="cls-1" d="M171.45,109.59a1.26,1.26,0,0,0,1-.49l.54.55a2,2,0,0,1-1.52.73,2,2,0,0,1-1.43-.55,2,2,0,0,1,0-2.8,1.94,1.94,0,0,1,1.4-.56,2,2,0,0,1,1.56.71l-.52.59a1.24,1.24,0,0,0-1-.49,1.14,1.14,0,0,0-.81.31,1,1,0,0,0-.34.83,1.15,1.15,0,0,0,.32.85A1.06,1.06,0,0,0,171.45,109.59Z"/><path class="cls-1" d="M174.56,107.31a.34.34,0,0,0-.12.27.31.31,0,0,0,.14.26,3.06,3.06,0,0,0,.69.23,2.05,2.05,0,0,1,.84.39,1,1,0,0,1,.29.78,1,1,0,0,1-.38.82,1.52,1.52,0,0,1-1,.32,2.3,2.3,0,0,1-1.62-.67l.51-.61a1.79,1.79,0,0,0,1.13.53.57.57,0,0,0,.36-.1.3.3,0,0,0,.13-.27.31.31,0,0,0-.14-.27,1.78,1.78,0,0,0-.55-.2,2.47,2.47,0,0,1-1-.41,1.14,1.14,0,0,1,.08-1.62,1.6,1.6,0,0,1,1-.29,2.19,2.19,0,0,1,.75.13,1.92,1.92,0,0,1,.66.37l-.42.61a1.73,1.73,0,0,0-1-.37A.48.48,0,0,0,174.56,107.31Z"/><path class="cls-1" d="M178,107.31a.32.32,0,0,0-.13.27.3.3,0,0,0,.15.26,3.06,3.06,0,0,0,.69.23,2,2,0,0,1,.83.39,1,1,0,0,1,.3.78,1,1,0,0,1-.38.82,1.52,1.52,0,0,1-1,.32,2.3,2.3,0,0,1-1.62-.67l.5-.61a1.83,1.83,0,0,0,1.13.53.58.58,0,0,0,.37-.1.3.3,0,0,0,.13-.27.33.33,0,0,0-.14-.27,1.76,1.76,0,0,0-.56-.2,2.41,2.41,0,0,1-1-.41,1.12,1.12,0,0,1,.08-1.62,1.59,1.59,0,0,1,1-.29,2.21,2.21,0,0,1,.76.13,2.13,2.13,0,0,1,.66.37l-.43.61a1.68,1.68,0,0,0-1-.37A.48.48,0,0,0,178,107.31Z"/><path id="_Compound_Path_" data-name="&lt;Compound Path&gt;" class="cls-18" d="M185.57,241.77h2.68a1,1,0,0,0,1-1v-3.41a1,1,0,0,0-1-1h-2.1a.84.84,0,0,1-.77-.55c-.07-.19-.15-.39-.24-.58a.83.83,0,0,1,.16-.93l1.48-1.48a1,1,0,0,0,0-1.39l-2.42-2.41a1,1,0,0,0-1.38,0l-1.5,1.5a.81.81,0,0,1-.89.17c-.21-.09-.44-.19-.64-.26a.81.81,0,0,1-.51-.76v-2.11a1,1,0,0,0-1-1H175a1,1,0,0,0-1,1v2.09a.82.82,0,0,1-.54.77l-.61.25a.8.8,0,0,1-.93-.15l-1.49-1.48a1,1,0,0,0-1.39,0l-2.4,2.42a1,1,0,0,0,0,1.38l1.5,1.49a.81.81,0,0,1,.17.9c-.09.21-.18.44-.26.64a.79.79,0,0,1-.75.51h-2.11a1,1,0,0,0-1,1v3.41a1,1,0,0,0,1,1h2.09a.81.81,0,0,1,.77.54l.24.58a.8.8,0,0,1-.15.93l-1.48,1.49a1,1,0,0,0,0,1.38l2.41,2.41a1,1,0,0,0,1.39,0l1.49-1.5a.82.82,0,0,1,.89-.17l.64.26a.8.8,0,0,1,.52.75v2.12a1,1,0,0,0,1,1h3.42a1,1,0,0,0,1-1v-2.1a.83.83,0,0,1,.55-.76l.58-.24a.81.81,0,0,1,.93.15l1.48,1.48a1,1,0,0,0,1.39,0l2.41-2.42a1,1,0,0,0,0-1.39l-1.5-1.49a.81.81,0,0,1-.17-.89C185.34,242.41,185.56,241.8,185.57,241.77ZM172,238.21a4.84,4.84,0,1,1,3,5.38A4.84,4.84,0,0,1,172,238.21Z"/><path id="_Compound_Path_2" data-name="&lt;Compound Path&gt;" class="cls-22" d="M207.44,244h2.07a.76.76,0,0,0,.76-.76v-2.65a.76.76,0,0,0-.76-.76h-1.62a.62.62,0,0,1-.6-.42c-.06-.15-.12-.3-.19-.45a.64.64,0,0,1,.12-.72l1.15-1.15a.76.76,0,0,0,0-1.08l-1.87-1.87a.78.78,0,0,0-1.08,0l-1.16,1.16a.61.61,0,0,1-.69.13l-.5-.2a.61.61,0,0,1-.39-.58V233a.76.76,0,0,0-.76-.76h-2.65a.76.76,0,0,0-.76.76v1.62a.66.66,0,0,1-.43.6l-.47.19a.64.64,0,0,1-.72-.12l-1.15-1.14a.76.76,0,0,0-1.08,0L192.8,236a.76.76,0,0,0,0,1.08l1.16,1.15a.63.63,0,0,1,.13.69l-.2.5a.62.62,0,0,1-.58.4h-1.64a.77.77,0,0,0-.76.77v2.64a.76.76,0,0,0,.76.76h1.62a.65.65,0,0,1,.6.42c.06.15.12.3.19.45a.64.64,0,0,1-.12.72l-1.15,1.15a.78.78,0,0,0,0,1.08l1.88,1.87a.78.78,0,0,0,1.08,0l1.15-1.16a.62.62,0,0,1,.69-.14l.5.2a.64.64,0,0,1,.4.59v1.64a.76.76,0,0,0,.76.76h2.65a.76.76,0,0,0,.76-.76v-1.62a.65.65,0,0,1,.42-.6l.45-.19a.64.64,0,0,1,.72.12l1.15,1.15a.76.76,0,0,0,1.08,0l1.87-1.88a.75.75,0,0,0,0-1.07l-1.16-1.16a.61.61,0,0,1-.13-.69C207.26,244.46,207.43,244,207.44,244Zm-10.54-2.75a3.75,3.75,0,1,1,2.34,4.17A3.76,3.76,0,0,1,196.9,241.21Z"/></g><g id="Layer_13" data-name="Layer 13"><rect class="cls-18" x="393.25" y="221.48" width="49.26" height="30.09"/><polygon class="cls-19" points="426.5 246.57 418.75 234.88 413.96 242.32 406.35 230.48 396.42 246.57 393.25 246.57 393.25 251.57 442.51 251.57 442.51 246.57 426.5 246.57"/><path class="cls-1" d="M433.69,229.07a4.13,4.13,0,1,1-4.13-4.12A4.12,4.12,0,0,1,433.69,229.07Z"/></g><g id="Layer_8" data-name="Layer 8"><rect class="cls-1" x="223.02" y="186.74" width="89.58" height="64.5"/><rect class="cls-20" x="223.02" y="186.74" width="89.58" height="6.93"/><rect class="cls-1" x="227.5" y="188.63" width="3.75" height="3.16"/><polyline class="cls-6" points="223.02 251.24 223.02 186.74 312.6 186.74 312.6 208.74"/><rect class="cls-7" x="229.46" y="197.55" width="17.31" height="17.28" transform="translate(476.22 412.38) rotate(180)"/><rect class="cls-7" x="253.1" y="197.55" width="17.31" height="17.28" transform="translate(523.51 412.38) rotate(180)"/><rect class="cls-7" x="276.74" y="197.55" width="29.26" height="17.28" transform="translate(582.74 412.38) rotate(180)"/><rect class="cls-7" x="229.33" y="219.6" width="34.87" height="3.12"/><rect class="cls-7" x="228.97" y="227.97" width="77.03" height="1.56"/><rect class="cls-7" x="228.97" y="233.67" width="77.03" height="1.56"/><rect class="cls-7" x="229.29" y="239.37" width="77.03" height="1.56"/><rect class="cls-7" x="229.62" y="245.07" width="38.53" height="1.56"/><rect class="cls-1" x="272.64" y="210.05" width="70.46" height="41.69"/><rect class="cls-18" x="272.64" y="210.05" width="70.46" height="5.45"/><rect class="cls-1" x="276.16" y="211.54" width="2.95" height="2.48"/><polyline class="cls-6" points="272.64 251.74 272.64 210.05 343.1 210.05 343.1 251.74"/><path class="cls-7" d="M284.15,222.22a3.27,3.27,0,1,1-3.27-3.27A3.27,3.27,0,0,1,284.15,222.22Z"/><path class="cls-7" d="M284.15,233.15a3.27,3.27,0,1,1-3.27-3.26A3.26,3.26,0,0,1,284.15,233.15Z"/><path class="cls-7" d="M284.15,244.09a3.27,3.27,0,1,1-3.27-3.27A3.27,3.27,0,0,1,284.15,244.09Z"/><rect class="cls-7" x="286.49" y="220.95" width="27.43" height="3.23"/><rect class="cls-7" x="286.49" y="231.54" width="27.43" height="3.23"/><rect class="cls-7" x="317.2" y="218.95" width="21.89" height="28.41" transform="translate(656.28 466.31) rotate(180)"/><rect class="cls-7" x="286.49" y="242.13" width="27.43" height="3.23"/></g><g id="Layer_9" data-name="Layer 9"><path class="cls-17" d="M370.32,114.9a5.52,5.52,0,0,0-1.41.2,8.48,8.48,0,0,0-1.3.59c-.64.32-1,.37-1.31,1l-1,2.15a6.71,6.71,0,0,0-.4,1,7,7,0,0,0-.22,1.51l-.09,1.27a6.2,6.2,0,0,0,0,1.14,6.1,6.1,0,0,0,.36,1.38,5,5,0,0,0,1.26,2.5,4.43,4.43,0,0,0,2.56,1,1,1,0,0,0,.61-.14,1.18,1.18,0,0,0,.37-.51c1.1-2.33,1.19-5,1.27-7.57a8.72,8.72,0,0,0-.18-2.65,3,3,0,0,0-1.59-2"/><path class="cls-17" d="M349.81,134.37l-4.19-5.76A3.65,3.65,0,0,1,345,127l-2.66-16H346l4,13.15a5.14,5.14,0,0,0,1.57,2.39l3.31,2.83Z"/><path class="cls-17" d="M394.16,147.28l4.24,6a4.31,4.31,0,0,1,.21,4.71L386.4,178.77,384,175.9l7.9-17.05a4.32,4.32,0,0,0-.61-4.59l-3.66-4.36Z"/><path class="cls-17" d="M384.48,174.94l-2,3.83v4.34l4.59,2.72h0a2.29,2.29,0,0,0-.37-3l-.34-.3v-3.73Z"/><rect class="cls-17" x="382.21" y="243.99" width="4.92" height="4.12" transform="translate(769.33 492.09) rotate(180)"/><path class="cls-20" d="M386.12,246.82h-4l-.75,2.25v1.08a1.09,1.09,0,0,0,1.09,1.09h4.16l4.42-1.67v-.76a3.92,3.92,0,0,0-1.61-3.16L387.12,244v2.66Z"/><path class="cls-19" d="M382.46,249.74h4.16L391,248.1a4.17,4.17,0,0,1,.08.71v.76l-4.42,1.67h-4.16a1.09,1.09,0,0,1-1.09-1.09v-1.08l.06-.16A1.06,1.06,0,0,0,382.46,249.74Z"/><rect class="cls-17" x="356.62" y="243.99" width="4.92" height="4.12"/><path class="cls-23" d="M358.75,178.69s-1.05,7.15-1.87,14.07a37.65,37.65,0,0,0-.26,4.51v47.8h4.91s3.8-16.65,4.57-27.75a58.6,58.6,0,0,1,1.35-8.74l5.17-23.25v-5.69Z"/><path class="cls-21" d="M385,180.52s1.1,6.17,1.93,13.14a23.56,23.56,0,0,1,.16,2.65v48.76l-4.91.09s-4.21-16-4.73-28.19a34.07,34.07,0,0,0-.85-5.76l-5.51-18.77v-12.8Z"/><path class="cls-20" d="M357.62,246.82h4l.75,2.25v1.08a1.09,1.09,0,0,1-1.09,1.09h-4.16l-4.42-1.67v-.76a3.92,3.92,0,0,1,1.61-3.16l2.31-1.66v2.66Z"/><path class="cls-19" d="M361.28,249.74h-4.16l-4.33-1.64a3.37,3.37,0,0,0-.09.71v.76l4.42,1.67h4.16a1.09,1.09,0,0,0,1.09-1.09v-1.08l-.05-.16A1.08,1.08,0,0,1,361.28,249.74Z"/><path class="cls-19" d="M376.45,132.82l5.51,1.71a11.65,11.65,0,0,1,5.22,3.35l8.53,9.49-8.18,4.78-2.91-4.25s-.59,25.5.79,34.34c0,0-16.79,6.83-27.88,0,0,0,4.17-22.5.75-33.67l-8.75-13.92,5.38-5.5,8.37,4.34,1.92-.67Z"/><path class="cls-17" d="M342,110.06l-.62-2.9a1.1,1.1,0,0,1,.39-1.1l1.49-1.23h1.14a21.26,21.26,0,0,1-.36-5h.36l2,6.64v3.82l-.66,1.39h-3.14Z"/><path class="cls-17" d="M365.2,132.82a6.14,6.14,0,0,0,2.33-4.42h7.09s.14,3.67,1.83,4.42Z"/><path class="cls-19" d="M377.75,121.93a9.66,9.66,0,0,1,.16-2.33,5.86,5.86,0,0,0-.62-3.21,6.87,6.87,0,0,0-1.56-2.17,7.26,7.26,0,0,0-4.91-1.38,4.32,4.32,0,0,0-1.56.24c-.39.16-.73.42-1.13.55s-.54.1-.81.16a4,4,0,0,0-1,.45,2.64,2.64,0,0,0-.92.73,1,1,0,0,0-.08,1.17c.24.36.54.29.9.4.7.23,1.8.83,1.94,1.62a2.15,2.15,0,0,1-.7,1.64,2.18,2.18,0,0,0-.7,1.64.41.41,0,0,0,.13.26c.15.12.37,0,.56.06a.62.62,0,0,1,.46.51c.16.83,0,1.66.06,2.48a7.8,7.8,0,0,0,1,2.49,5,5,0,0,0,.93,1.37,4,4,0,0,0,1.28.74,11.41,11.41,0,0,0,4,.81c2.48.05,1.94-2.22,2.71-3.82a7,7,0,0,0,.55-1.09C378.77,124.15,377.92,123.07,377.75,121.93Z"/></g><g id="Layer_6" data-name="Layer 6"><path class="cls-17" d="M238.14,122.86l-2.27-.58-5.48.94-3,2.83.73,2.47h0a1.66,1.66,0,0,0,1.12-2.06l0-.19,1-.85-.27,1.18.7,2.23h0a1.66,1.66,0,0,0,1.1-2.1l-.17-.53.36-.59.67-.19,5.15,1.3,1-.29.36-.61Z"/><rect class="cls-17" x="206.12" y="163.72" width="6.5" height="6" transform="translate(74.87 -64.67) rotate(21.3)"/><path class="cls-18" d="M204,162.37l-8.28,2-3.69-.28a1.83,1.83,0,0,0-1.84,1.16l-.4,1,20.27,7.9,1.5-1.11,2.33-6-1-.2-2.26,1.44-2.8-1.09Z"/><path class="cls-1" d="M190.77,164.46a1.73,1.73,0,0,0-.58.75l-.4,1,20.27,7.9,1.5-1.11.73-1.86-1.51,1.11Z"/><polygon class="cls-1" points="202.35 164.75 202.54 164.28 200.04 163.31 199.18 163.51 202.35 164.75"/><polygon class="cls-1" points="204.1 163.75 201.86 162.88 201 163.08 203.92 164.22 204.1 163.75"/><polygon class="cls-1" points="200.76 165.21 200.94 164.75 198.3 163.72 197.44 163.92 200.76 165.21"/><polygon class="cls-19" points="221.18 136 205.95 163.36 214.2 166.39 228.18 147 221.18 136"/><rect class="cls-17" x="237.36" y="161.87" width="6.5" height="6" transform="translate(-41.6 91.14) rotate(-19.78)"/><path class="cls-18" d="M233.71,165.12l-5,6.92-3,2.21a1.85,1.85,0,0,0-.63,2.09l.37,1L246,170l.4-1.83-2.17-6-.88.49-.76,2.58-2.82,1Z"/><path class="cls-1" d="M225.11,175.39a1.81,1.81,0,0,0,0,1l.37,1L246,170l.4-1.83-.67-1.88-.41,1.83Z"/><polygon class="cls-1" points="234.03 167.99 233.86 167.52 231.34 168.43 230.83 169.15 234.03 167.99"/><polygon class="cls-1" points="234.7 166.09 232.43 166.91 231.91 167.63 234.87 166.56 234.7 166.09"/><polygon class="cls-1" points="233.13 169.4 232.97 168.92 230.3 169.88 229.79 170.6 233.13 169.4"/><polygon class="cls-24" points="219.66 138.72 226.09 149.89 228.18 147 221.18 136 219.66 138.72"/><path class="cls-19" d="M264.42,127v5.12a9.28,9.28,0,0,1-9.28,9.29H236a1.58,1.58,0,0,0-1.41,2.31l9.1,17.68L235.73,164l-14.57-25.3a5.23,5.23,0,0,1,4.56-7.84L246.4,128l1.15-1.86v-2.06Z"/><path class="cls-20" d="M252.14,82.94a6.37,6.37,0,0,0-.34-2c-.12-.28-.28-.55-.39-.83-.34-.9-.14-1.95-.57-2.81-.54-1.1-1.52-2.65-2.89-2.75a1.39,1.39,0,0,1-.54-.08,1.23,1.23,0,0,1-.29-.22c-.64-.58-2.33-1.74-3.22-1.14-.13.09-.24.21-.38.29-.47.27-1.05,0-1.59,0a1.81,1.81,0,0,0-1.63.88c-.21.34-.17.49-.62.53a9.6,9.6,0,0,1-1.07,0,2.42,2.42,0,0,0-1.52.66,3.1,3.1,0,0,0-.73,1.06c-.13.28-.28.62-.61.72s-.44.07-.64.14a1.38,1.38,0,0,0-.66.54c-.79,1.15-2.14,2.05-2.28,3.57a1.29,1.29,0,0,0,.59,1.32,1.66,1.66,0,0,0,1.14-.06,1,1,0,0,0-.46.68c0,.43.57.72.9.87a2.29,2.29,0,0,0,1.61,0,6.81,6.81,0,0,1,2.09-.59,3.3,3.3,0,0,1,.63.09,24,24,0,0,1,4.15,1.6c1.46.58,2.94,1.06,4.43,1.55a7.4,7.4,0,0,0,1.79.42c.36,0,.73,0,1.09,0s1.1.45,1.59.41.71-.69.84-1.06a4.57,4.57,0,0,0,.13-1.73,3.59,3.59,0,0,0-.17-1.08C252.39,83.46,252.16,83.31,252.14,82.94Z"/><path class="cls-17" d="M255.08,89.75l-6.68,7.94s0-6-2.81-6.22l5.33-5.73Z"/><path class="cls-17" d="M235.24,82.56a18.19,18.19,0,0,0,3.37,6.86,8.05,8.05,0,0,0,.86.89,8.57,8.57,0,0,0,2.63,1.37,5.11,5.11,0,0,0,2.06.43c1-.07,8-4.89,8.13-4.68l-6.56-10.19Z"/><path class="cls-20" d="M252.34,87.31a1.28,1.28,0,0,0,0-.82,24.86,24.86,0,0,0-.68-2.53,20.93,20.93,0,0,0-1-2.75,9.07,9.07,0,0,0-2.45-3.32A13.57,13.57,0,0,0,246,76.55a4.64,4.64,0,0,0-1-.43,4.54,4.54,0,0,0-2.3.2A5.94,5.94,0,0,0,241,77c-.77.47-1.33,1.26-2.17,1.59a31.45,31.45,0,0,1-3.31.84c-1,.28-1.09,1.5-1,2.4a2.88,2.88,0,0,0,.37,1.29,2.77,2.77,0,0,0,.82.94l.06-.18.26-.11c1.07-.17,1.9-1,3-1.33a3.53,3.53,0,0,1,3.32,1,5,5,0,0,1,1.08,1.68,6.22,6.22,0,0,1,.31,1c0,.09,0,.44.11.5s.37,0,.5,0a.69.69,0,0,0,.43-.22.82.82,0,0,0,.06-.6,7.38,7.38,0,0,1-.11-3.17,1.63,1.63,0,0,1,2-.89,1.23,1.23,0,0,1,.8.64,1.54,1.54,0,0,1,0,1.19c-.28.72-.57,1.43-.83,2.17a.54.54,0,0,0,0,.41.52.52,0,0,0,.25.21,2.87,2.87,0,0,0,.78.35,4.26,4.26,0,0,0,1.51.07l.6-.1a1.14,1.14,0,0,0,.32-.07c.23-.08.28-.19.49,0a.71.71,0,0,1,.24.52,3.29,3.29,0,0,0-.05.54s0,.06,0,.07a.16.16,0,0,0,.09,0c.26,0,.5.08.76.07a.88.88,0,0,0,.7-.42Z"/><path class="cls-18" d="M255.08,89.75l6.33,3.42a3.89,3.89,0,0,1,1.66,1.72l2.33,4.77a13.14,13.14,0,0,1,1.3,6.62c-.29,4.26-.44,8.54-.66,12.81l-.48,9.44-.18,3.53c0,.41.13,1.63-.11,2,0,.05,0,.19,0,.24-6.46,5.16-13.34-7.54-19.63-6.29-.09,0,0-3,0-3.41s0-1.1,0-1.66c.06-.83.17-1.67.2-2.51.07-1.75.15-3.5.21-5.25a10.19,10.19,0,0,0-.15-1.45,5.16,5.16,0,0,0-.09-1.1,6.81,6.81,0,0,1-.08-2.51,7.6,7.6,0,0,0,.13-1.5,10.36,10.36,0,0,1-.1-1.26c0-1,.18-1.94.29-2.9.09-.74.08-1.47.13-2.2a11,11,0,0,1,.5-2.11,9.65,9.65,0,0,1,2.16-3.94Z"/><path class="cls-24" d="M261.13,122.76a3.25,3.25,0,0,0,2.85-3.48l-1.73-21.55h-9l1.87,19.81-9.24,3.27c0,.7-.12,1.41-.17,2.11s0,1.11,0,1.66c0,.19,0,.89,0,1.61Z"/><path class="cls-18" d="M253.21,96.73l1.87,19.81-17,6,.48,4.19,22.54-5a3.25,3.25,0,0,0,2.85-3.48l-1.73-21.55Z"/><path class="cls-25" d="M222.88,129.76h0a.69.69,0,0,1-1-.15l-10.2-13.8a.7.7,0,0,1,.16-1h0a.69.69,0,0,1,1,.16L223,128.79A.69.69,0,0,1,222.88,129.76Z"/><path class="cls-25" d="M244.66,128.58l-23.09,2.79a1,1,0,0,1-1.11-.88h0a1,1,0,0,1,.87-1.11l23.09-2.78a1,1,0,0,1,1.11.87h0A1,1,0,0,1,244.66,128.58Z"/><path class="cls-26" d="M245.42,127.15a1,1,0,0,1-.83.57l-23.09,2.79a1,1,0,0,1-1-.44.86.86,0,0,0,0,.42,1,1,0,0,0,1.11.88l23.09-2.79a1,1,0,0,0,.87-1.11A1.1,1.1,0,0,0,245.42,127.15Z"/><rect class="cls-27" x="237.19" y="127.9" width="1.84" height="0.7" transform="translate(-13.66 29.47) rotate(-6.88)"/><rect class="cls-27" x="239.35" y="127.64" width="1.84" height="0.7" transform="translate(-13.62 29.74) rotate(-6.89)"/><rect class="cls-27" x="224.02" y="129.49" width="1.84" height="0.7" transform="translate(-13.95 27.91) rotate(-6.89)"/><polygon class="cls-1" points="248.87 96.19 250.18 99.25 255.08 89.75 248.87 96.19"/><polygon class="cls-1" points="248.87 96.19 248.11 98.63 248.01 94.5 248.87 96.19"/></g><g id="Layer_12" data-name="Layer 12"><polygon class="cls-1" points="127.19 222.72 114.74 216.83 113.66 221.81 124.3 229.08 127.19 222.72"/><polygon class="cls-17" points="99.25 240.08 93.47 241.25 97.41 229.83 102.25 231.53 99.25 240.08"/><path class="cls-19" d="M121.75,229.49l-12.21-20.05a4.79,4.79,0,0,0-4.09-2.3h0a4.8,4.8,0,0,0-4.62,3.5l-6.58,26.42,6.77.31s4.51-11.37,5.42-14.84l3.72,16.92,15.35-2Z"/><rect class="cls-17" x="57.7" y="246.09" width="8.98" height="4.76"/><rect class="cls-28" x="57.7" y="249.96" width="8.98" height="0.89"/><g class="cls-29"><polygon class="cls-30" points="119.64 233.29 115.74 234.43 110.44 234.76 109.08 234.78 110.16 239.45 125.51 237.43 122.86 231.84 122.68 231.72 119.64 233.29"/></g><path class="cls-19" d="M116.41,236.52l-3.9,1.14-5.3.34-15.66,2.67a9.74,9.74,0,0,0-2.08.22L63.58,245v6.6l21.18-.13,5.07-.62,3.67-.95,2.52.28,21.07,1h8a7.57,7.57,0,0,0,7.57-7.58h0L119.45,235Z"/><path class="cls-31" d="M125.07,249.58h-8l-21.07-1-2.52-.28-3.67,1-5.07.61L63.58,250v1.62l21.18-.13,5.07-.62,3.67-.95,2.52.28,21.07,1h8a7.57,7.57,0,0,0,7.57-7.58l-.15-.1A7.57,7.57,0,0,1,125.07,249.58Z"/><path class="cls-17" d="M138.35,202.21l-8,2.36s1.54-6.07-2.23-8.29l7.75-2.35.85,3.64Z"/><path class="cls-1" d="M137.4,199.46l5,6.16a12.61,12.61,0,0,1,2.82,7.94l.08,4.59-.46,16.8-.51,10.83c-4.93,2.2-10.24.66-13.8-1a25.27,25.27,0,0,0-8.82-2.32c-2.46-.19-5.11-.9-5.77-3l4.25-4.51a15,15,0,0,0,2.27-3.05c1.19-2.18.85-3,1-6.76,0-.47,0-.44,0-.91l-1.26-2.12a6.44,6.44,0,0,1,.34-7.09,37.68,37.68,0,0,1,3.15-3.61c2.2-2.87,3-3.65,4.62-7.44Z"/><path class="cls-21" d="M137.4,199.46l5,6.16a12.61,12.61,0,0,1,2.82,7.94l.08,4.59-.46,16.8-.51,10.83c-4.63,2.07-9.59.84-13.13-.7a26.57,26.57,0,0,1-.83-4s-.85,3.34-1.38,3.37c-2.43.15-8.3,1.22-10.81,1s11.62-20.34,12.78-41.94l1.15-.73Z"/><polygon class="cls-17" points="133.21 213.63 135.32 224.3 131.77 248 136.26 248 142.02 229.4 142.59 225.28 139.75 211.4 133.21 213.63"/><path class="cls-1" d="M131.68,211.55,134.19,223l8.4-1.52-2.25-11.38a4.41,4.41,0,0,0-4.78-3.8h0A4.39,4.39,0,0,0,131.68,211.55Z"/><path class="cls-17" d="M131.77,247.66l-1.11,1h-3.9c-.74,0-4.74.28-4.74.28a2.35,2.35,0,0,0-1.76,2.25h0l5.11,0,7.77.11a2.94,2.94,0,0,0,2.61-1.46l.13-.25a1.28,1.28,0,0,0,.28-.77l.14-1.13Z"/><path class="cls-28" d="M135.62,247.66v.06a1.33,1.33,0,0,1-.27.76l-.14.25a2.93,2.93,0,0,1-2.6,1.46l-7.78-.1-4.3,0a2.12,2.12,0,0,0-.27,1.09l5.11,0,7.77.11a2.94,2.94,0,0,0,2.61-1.46l.13-.25a1.28,1.28,0,0,0,.28-.77l.14-1.13Z"/><path class="cls-21" d="M58.79,251.34v-5.47l-2.57-2.28v1.32c0-2.95-1.66-7.15-4.29-8.49h0v14.92Z"/><path class="cls-32" d="M56.22,245.07v-.16c0-2.95-1.66-7.15-4.29-8.49v2.15C54.56,239.91,55.25,247.26,56.22,245.07Z"/><path class="cls-19" d="M44,242.8H59.08a0,0,0,0,1,0,0v1.61a0,0,0,0,1,0,0H43.16a0,0,0,0,1,0,0v-.82A.8.8,0,0,1,44,242.8Z" transform="translate(294.73 192.49) rotate(90)"/><path class="cls-25" d="M119,223.65h0a.75.75,0,0,1-1-.24l-8.34-13.6a.73.73,0,0,1,.24-1h0a.74.74,0,0,1,1,.24l8.34,13.6A.73.73,0,0,1,119,223.65Z"/><path class="cls-17" d="M122.28,185.9h10.84a0,0,0,0,1,0,0v13.42a0,0,0,0,1,0,0h-5.2a5.64,5.64,0,0,1-5.64-5.64V185.9A0,0,0,0,1,122.28,185.9Z" transform="translate(-40.44 34.07) rotate(-13.14)"/><path class="cls-20" d="M145,212.72c-.1-1.34-.45-2.45-.44-3.8a14,14,0,0,0-.68-4.55,24.11,24.11,0,0,1-1.11-3.4,21.86,21.86,0,0,1,.13-4.91,5.82,5.82,0,0,0-1.37-4.57,5,5,0,0,1-1.23-1.25,4,4,0,0,1,0-2.17c.35-3.52-2.67-5.86-5.89-6.12-.52,0-1.06,0-1.58-.12a12.58,12.58,0,0,1-3.13-1.42,6.73,6.73,0,0,0-4.21-.71,4.13,4.13,0,0,0-3.19,2.63,2.72,2.72,0,0,1-.29.75c-.33.51-1,.62-1.59.82a2.93,2.93,0,0,0-1.76,1.56,2,2,0,0,0,.49,2.2,1.46,1.46,0,0,0,2.1-.33l.78-.15a3.06,3.06,0,0,1,3.16,1.08c.81,1.07.86,2.63,1.86,3.52s3,.71,4.26,1.49a5,5,0,0,1,1.94,3.34,17.37,17.37,0,0,1,.38,4.93,3.59,3.59,0,0,0,.19,1.9c.57,1.12,2.16,1.25,3,2.19a3.47,3.47,0,0,1,.46,3.1,16.78,16.78,0,0,0-.75,3.17,5.76,5.76,0,0,0,2.05,4.26,23.31,23.31,0,0,0,3.68,2.29c.23.13,2.93,1.7,2.94.94C145.23,217.17,145.18,214.94,145,212.72Z"/></g><g id="Layer_11" data-name="Layer 11"><line class="cls-6" x1="40.59" y1="251.57" x2="161.46" y2="251.57"/><line class="cls-6" x1="38.59" y1="251.57" x2="34.91" y2="251.57"/><line class="cls-6" x1="330.73" y1="251.57" x2="472.66" y2="251.57"/></g></g></svg>