<svg id="Graphics" xmlns="http://www.w3.org/2000/svg" viewBox="0 0 422.02 209.19"><defs><style>.cls-1{fill:#eceff6;}.cls-2{fill:none;stroke:#252525;stroke-miterlimit:10;stroke-width:0.5px;}.cls-3{fill:#fff;}.cls-4{fill:#e8cde8;}.cls-5{fill:#f3edf2;}.cls-6{opacity:0.15;}.cls-7{fill:#ddd;}.cls-8{fill:#999;}.cls-9{fill:#f4f5fa;}.cls-10{fill:#f8f0f8;}.cls-11{fill:#f5f7f9;}.cls-12{fill:#96588a;}.cls-13{fill:#d5bcd0;}.cls-14{fill:#e0e4f0;}.cls-15{fill:#fdfdfe;}.cls-16{fill:#252525;}</style></defs><title>homepage_wc</title><g id="Layer_7" data-name="Layer 7"><rect class="cls-1" x="207.97" y="0.25" width="119.23" height="155.31"/><polyline class="cls-2" points="207.97 35.51 207.97 0.25 327.19 0.25 327.19 53.29"/><rect class="cls-3" x="212.15" y="15.63" width="110.93" height="63.87"/><circle class="cls-3" cx="219.79" cy="8.47" r="1.82"/><circle class="cls-3" cx="228.26" cy="8.47" r="1.82"/><circle class="cls-3" cx="236.73" cy="8.47" r="1.82"/><rect class="cls-4" x="278.99" y="22.29" width="39.7" height="6.32"/><rect class="cls-5" x="216.31" y="36.31" width="102.37" height="3.16"/><rect class="cls-5" x="216.43" y="45.8" width="102.37" height="3.16"/><rect class="cls-5" x="216.55" y="55.3" width="102.37" height="3.16"/><rect class="cls-5" x="216.66" y="64.79" width="102.37" height="3.16"/><g class="cls-6"><path class="cls-7" d="M86.82,218.82c-5.73-8.91-11.52-17.88-18.95-25.42-2.45-2.48-6-5-9.13-3.49-2.9,1.36-3.5,5.2-3.31,8.39.88,15,10.25,28.17,20.7,39a168.91,168.91,0,0,0,40,30.52l2.56.49Z" transform="translate(-35.81 -63.21)"/><path class="cls-8" d="M113.67,264.59C90.78,248.51,72.73,224.09,62,198.47c-.39-.92-1.74-.15-1.35.76a157.11,157.11,0,0,0,21.84,36.56c9,11.26,19.61,20.27,31.11,28.87a0,0,0,0,0,0-.07Z" transform="translate(-35.81 -63.21)"/><path class="cls-8" d="M59,210.8a22.55,22.55,0,0,0,10.4,5.54.48.48,0,0,0,.26-.92,23.75,23.75,0,0,1-10-5.25c-.42-.38-1.05.24-.63.63Z" transform="translate(-35.81 -63.21)"/><path class="cls-8" d="M66.8,222.92c2.83,3,7,6.61,11,7.65a.23.23,0,0,0,.17-.42c-1.67-1.23-3.68-2-5.43-3.13a59.75,59.75,0,0,1-5.64-4.24.1.1,0,0,0-.14.14Z" transform="translate(-35.81 -63.21)"/><path class="cls-8" d="M78.71,237.6a21.56,21.56,0,0,0,8,4.24.33.33,0,0,0,.18-.64,30.92,30.92,0,0,1-8-3.83c-.14-.09-.31.12-.18.23Z" transform="translate(-35.81 -63.21)"/><path class="cls-8" d="M70.77,206.39c.67,4.67,1.34,8.77.82,13.51-.09.85,1.21.84,1.32,0,.56-4.4.4-9.69-1.41-13.81-.19-.44-.78-.12-.73.29Z" transform="translate(-35.81 -63.21)"/><path class="cls-8" d="M78.24,217.09a32.35,32.35,0,0,1,3,14.12.53.53,0,0,0,1.06,0,27.11,27.11,0,0,0-3.72-14.32.18.18,0,0,0-.31.18Z" transform="translate(-35.81 -63.21)"/><path class="cls-8" d="M88.37,229.47c2.46,5.44,4.43,10.17,4.85,16.22.07,1,1.62,1,1.55,0-.39-5.73-2.1-12.18-5.8-16.7-.29-.35-.76.1-.6.46Z" transform="translate(-35.81 -63.21)"/><path class="cls-7" d="M108.64,263.85l-40.1-22.2c-4.72-2.61-9.5-5.25-14.73-6.58s-11-1.2-15.7,1.49A5.18,5.18,0,0,0,36.38,238c-1.34,2-.09,4.59,1.31,6.49,11.11,15.05,30.51,21.22,48.87,24.78,11,2.13,22.67,3.58,33-.72A87.3,87.3,0,0,1,108.64,263.85Z" transform="translate(-35.81 -63.21)"/><path class="cls-8" d="M41.27,241.26c9.59,6.42,20.26,10.74,31,14.69,12,4.38,24,8.66,35.86,13.17.94.35,1.54-1.1.6-1.43-11.55-4-23-8.27-34.52-12.44-11.2-4.07-22.39-8.18-32.45-14.69-.48-.31-1,.38-.54.7Z" transform="translate(-35.81 -63.21)"/><path class="cls-8" d="M44.94,249.38a115.41,115.41,0,0,0,11.84,1.51c.94.05,1.17-1.35.21-1.46A117,117,0,0,0,45,249c-.27,0-.34.38-.06.42Z" transform="translate(-35.81 -63.21)"/><path class="cls-8" d="M60.68,258l7.73-.25a36.55,36.55,0,0,0,7.69-.55c.48-.12.57-.84,0-.92a34.86,34.86,0,0,0-7.36.21l-8.18.59c-.59,0-.47.93.11.92Z" transform="translate(-35.81 -63.21)"/><path class="cls-8" d="M80.5,265.45A40.36,40.36,0,0,1,87,263.92c1.84-.21,3.81.25,5.58-.22.49-.13.34-.76,0-.95-1.72-1-4.58-.51-6.44-.16a14.72,14.72,0,0,0-6,2.38c-.27.19,0,.56.28.48Z" transform="translate(-35.81 -63.21)"/><path class="cls-8" d="M52.16,239.54A51.73,51.73,0,0,1,55.72,246c.78,1.73,1.22,3.68,2.33,5.22a.25.25,0,0,0,.44-.18c-.14-2.17-1.43-4.28-2.4-6.19a65.37,65.37,0,0,0-3.33-5.8c-.26-.41-.86,0-.6.46Z" transform="translate(-35.81 -63.21)"/><path class="cls-8" d="M65.34,246.48c2.23,2.68,4.33,5.9,7,8.19.18.16.4-.1.28-.27-1.88-2.92-4.77-5.44-7.1-8-.07-.08-.2,0-.13.1Z" transform="translate(-35.81 -63.21)"/><path class="cls-8" d="M78.86,251.76c1.2,1.61,2.49,3.19,3.63,4.85,1,1.45,1.78,3.15,3.28,4.13a.32.32,0,0,0,.49-.37c-.54-1.71-2-2.92-3.09-4.28-1.28-1.56-2.46-3.21-3.68-4.81a.4.4,0,0,0-.63.48Z" transform="translate(-35.81 -63.21)"/><path class="cls-7" d="M105.32,196.13c-2-1.86-5.29-2.61-7.48-1-2,1.49-2.38,4.28-2.47,6.77-.76,22.43,11.31,46.1,21.79,66l2.28.61c-1.65-22-3.36-44.29-10.27-65.25C108.32,200.66,107.32,198,105.32,196.13Z" transform="translate(-35.81 -63.21)"/><path class="cls-8" d="M116.35,260.88c-5.88-18.94-9.92-38.27-14-57.66-.13-.65-1.16-.52-1,.12,4.52,19.25,8.17,38.95,14.68,57.66.07.2.37.08.3-.12Z" transform="translate(-35.81 -63.21)"/><path class="cls-8" d="M98.36,210.07l2.89,3.89a14.3,14.3,0,0,0,2.73,3.26.37.37,0,0,0,.56-.42,14.16,14.16,0,0,0-2.4-3.52l-3-3.83a.51.51,0,0,0-.82.62Z" transform="translate(-35.81 -63.21)"/><path class="cls-8" d="M100.68,221c1.7,2.76,3.3,6.14,5.55,8.48a.23.23,0,0,0,.4-.23c-.84-3.14-3.43-6.18-5.56-8.55a.25.25,0,0,0-.39.3Z" transform="translate(-35.81 -63.21)"/><path class="cls-8" d="M104.28,234.39a23.28,23.28,0,0,0,2.47,4.94,27.45,27.45,0,0,0,2.42,4.17.23.23,0,0,0,.4-.22,31.45,31.45,0,0,0-2.36-5,19.85,19.85,0,0,0-2.34-4.24.34.34,0,0,0-.59.33Z" transform="translate(-35.81 -63.21)"/><path class="cls-8" d="M109.64,215.64a20.89,20.89,0,0,0-2.44,5.73c-.4,1.54-1.07,3.81-.44,5.34a.35.35,0,0,0,.64,0c.7-1.43.53-3.48.86-5.07a35.27,35.27,0,0,1,1.8-5.76c.1-.25-.27-.5-.42-.25Z" transform="translate(-35.81 -63.21)"/><path class="cls-8" d="M113.39,231c-.35,2-.58,4-.78,6.07a24.14,24.14,0,0,0-.35,5.55c0,.37.64.5.76.11a25.49,25.49,0,0,0,.56-5.86c.12-2,.19-3.9.17-5.86,0-.22-.33-.2-.36,0Z" transform="translate(-35.81 -63.21)"/></g><g class="cls-6"><path class="cls-7" d="M369.77,271.57c1.41-12,3.28-21,12.08-29.59,4.12-4,9.58-6.88,12.83-11.61,4-5.76,4.28-13.78,9.73-18.27,5.84-4.82,15.22-3.5,21.24-8.11,4.29-3.29,5.86-8.82,8.94-13.19a24.26,24.26,0,0,1,23.24-9.51c-8.77,2.06-15,11.38-13.23,19.93,1.11,5.46,5,10.46,4.49,16-.94,11-17.62,15.74-18.91,26.73-.35,3,.56,6,.69,9,.39,9.35-8.05,18.21-17.75,18.62Z" transform="translate(-35.81 -63.21)"/><path class="cls-8" d="M435.34,208.73a155.29,155.29,0,0,0-23,27.11c-6.34,9.5-10.82,19.59-16,29.68a.93.93,0,0,1-1.69-.69c6.75-21.65,23.49-41.29,40.65-56.13,0,0,.05,0,0,0Z" transform="translate(-35.81 -63.21)"/><path class="cls-8" d="M434.6,219.9a17.26,17.26,0,0,0-7.15.58c-2.43.74-4.08,2.27-6.3,3.29-.25.12-.6-.13-.42-.39,2.73-3.88,9.56-4.58,13.92-3.89.24,0,.19.44,0,.41Z" transform="translate(-35.81 -63.21)"/><path class="cls-8" d="M429.21,232a21.61,21.61,0,0,0-10-.12c-3,.73-5.4,2.37-8.09,3.77a.45.45,0,0,1-.55-.69c4.5-4.69,12.86-5.07,18.75-3.15a.1.1,0,1,1-.06.19Z" transform="translate(-35.81 -63.21)"/><path class="cls-8" d="M423.26,248c-9.24-1.08-15.36.71-22.34,6.69-.41.36-1.15-.11-.81-.6,4.54-6.62,15.74-9.82,23.27-6.51a.22.22,0,0,1-.12.42Z" transform="translate(-35.81 -63.21)"/><path class="cls-8" d="M417.35,214.47c3.72,3.93,2.36,11.73-1.24,15.3-.13.13-.37,0-.27-.2a14.17,14.17,0,0,0,2.85-7.66c.08-2.69-1-4.71-1.81-7.18a.28.28,0,0,1,.47-.26Z" transform="translate(-35.81 -63.21)"/><path class="cls-8" d="M410.41,223.3c1.9,5.08,1.69,11.83-1.39,16.47-.15.23-.56.09-.47-.19,1.79-5.66,2.59-10.23,1.36-16.15a.26.26,0,0,1,.5-.13Z" transform="translate(-35.81 -63.21)"/><path class="cls-8" d="M399.67,233c3.32,7.14,2.86,15-.25,22.16-.28.65-1.4.37-1.11-.3,3-7.14,2.83-14.25.7-21.58-.11-.38.49-.65.66-.28Z" transform="translate(-35.81 -63.21)"/></g><rect class="cls-9" x="74.41" y="24.13" width="162.81" height="184.1"/><polyline class="cls-2" points="74.42 203.84 74.42 24.13 237.22 24.13 237.22 208.13"/><rect class="cls-3" x="80.71" y="42.09" width="149.41" height="166.75"/><rect class="cls-5" x="85.15" y="47.38" width="140.16" height="39.64"/><rect class="cls-10" x="85.15" y="91.61" width="57.62" height="116.61"/><path class="cls-3" d="M127.66,96.05A1.62,1.62,0,1,1,126,94.44,1.61,1.61,0,0,1,127.66,96.05Z" transform="translate(-35.81 -63.21)"/><path class="cls-3" d="M137,96.05a1.62,1.62,0,1,1-1.61-1.61A1.61,1.61,0,0,1,137,96.05Z" transform="translate(-35.81 -63.21)"/><path class="cls-3" d="M146.41,96.05a1.62,1.62,0,1,1-1.62-1.61A1.61,1.61,0,0,1,146.41,96.05Z" transform="translate(-35.81 -63.21)"/><rect class="cls-1" x="243.08" y="53.64" width="119.23" height="155.31"/><line class="cls-2" x1="362.31" y1="53.64" x2="362.31" y2="208.94"/><polyline class="cls-2" points="243.08 98.75 243.08 53.64 362.31 53.64"/><rect class="cls-3" x="247.26" y="69.02" width="110.93" height="139.67"/><path class="cls-3" d="M292.53,125.06a1.82,1.82,0,1,1-1.82-1.82A1.82,1.82,0,0,1,292.53,125.06Z" transform="translate(-35.81 -63.21)"/><path class="cls-3" d="M301,125.06a1.82,1.82,0,1,1-1.82-1.82A1.82,1.82,0,0,1,301,125.06Z" transform="translate(-35.81 -63.21)"/><path class="cls-3" d="M309.47,125.06a1.82,1.82,0,1,1-1.82-1.82A1.82,1.82,0,0,1,309.47,125.06Z" transform="translate(-35.81 -63.21)"/><rect class="cls-5" x="251.2" y="147.5" width="104.74" height="4.61"/><rect class="cls-5" x="251.17" y="158.05" width="104.74" height="4.61"/><rect class="cls-5" x="251.14" y="168.61" width="104.74" height="4.61"/><rect class="cls-5" x="251.12" y="179.17" width="104.74" height="4.61"/><rect class="cls-5" x="251.09" y="189.73" width="104.74" height="4.61"/><g id="_Group_" data-name="&lt;Group&gt;"><path id="_Compound_Path_" data-name="&lt;Compound Path&gt;" class="cls-3" d="M371.05,271.83H327.18v-53.3a2.19,2.19,0,0,1,2.18-2.18h39.51a2.19,2.19,0,0,1,2.18,2.18Z" transform="translate(-35.81 -63.21)"/><path id="_Compound_Path_2" data-name="&lt;Compound Path&gt;" class="cls-2" d="M330.19,216.35H369a2,2,0,0,1,2,2v53.47" transform="translate(-35.81 -63.21)"/><rect id="_Rectangle_" data-name="&lt;Rectangle&gt;" class="cls-11" x="295.49" y="164.82" width="35.64" height="43.59"/><line class="cls-2" x1="306.92" y1="158.48" x2="319.64" y2="158.48"/><polygon id="_Path_" data-name="&lt;Path&gt;" class="cls-12" points="295.49 196.71 295.49 208.62 303.19 208.6 303.19 190.26 295.49 196.71"/><polygon id="_Path_2" data-name="&lt;Path&gt;" class="cls-12" points="309.9 193.26 309.88 193.25 309.88 208.62 318.72 208.59 318.72 186.68 309.9 193.26"/><polygon id="_Path_3" data-name="&lt;Path&gt;" class="cls-13" points="303.24 190.23 303.19 190.28 303.19 208.62 309.88 208.6 309.88 193.23 303.24 190.23"/><polygon id="_Path_4" data-name="&lt;Path&gt;" class="cls-12" points="331.13 183.84 324.2 189.81 324.2 208.62 331.13 208.6 331.13 183.84"/><polygon id="_Path_5" data-name="&lt;Path&gt;" class="cls-13" points="324.2 189.79 318.72 186.7 318.72 208.62 324.2 208.6 324.2 189.79 324.2 189.79"/></g></g><g id="Layer_6" data-name="Layer 6"><g id="_Group_2" data-name="&lt;Group&gt;"><g id="_Group_3" data-name="&lt;Group&gt;"><path class="cls-14" d="M139.23,98.75H292.08a1.25,1.25,0,0,1,1.25,1.25v96.4a0,0,0,0,1,0,0H138a0,0,0,0,1,0,0V100A1.25,1.25,0,0,1,139.23,98.75Z"/></g><g id="_Group_4" data-name="&lt;Group&gt;"><path class="cls-2" d="M139.23,98.75H292.08a1.25,1.25,0,0,1,1.25,1.25v96.4a0,0,0,0,1,0,0H138a0,0,0,0,1,0,0V100A1.25,1.25,0,0,1,139.23,98.75Z"/></g><g id="obalka"><path class="cls-3" d="M181.75,171c0,.12,7,5.34,15.5,11.61s24.36,17.89,35.19,25.89L252.2,223l.71-.49C255.14,221,321,171.31,321.12,171s-14-.3-69.63-.3C211.19,170.74,181.75,170.84,181.75,171Z" transform="translate(-35.81 -63.21)"/><path class="cls-3" d="M181.75,211.93v39.51H321.17v-79l-4.55,4.06c-2.54,2.23-12.72,11.24-22.65,20s-18.09,16-18.09,16,9.36,8,20.82,17.72c19.7,16.71,24.39,20.74,22.84,19.58-.88-.64-45.27-34.18-45.9-34.68-.43-.35-1.17.25-8.73,6.93-4.55,4-9.27,8.14-10.47,9.19l-2.24,1.9L241.64,224c-5.81-5-10.64-9.11-10.78-9.11s-32.68,24-44.94,33.12a16.81,16.81,0,0,1-2.26,1.56c0-.08,10-8.39,22.24-18.47s22.23-18.46,22.23-18.56-35.63-31-44.8-38.84l-1.58-1.34Z" transform="translate(-35.81 -63.21)"/></g><g id="_Group_5" data-name="&lt;Group&gt;"><path class="cls-11" d="M338.19,264H164.73a26.4,26.4,0,0,0,18.61,7.67H319.59a26.39,26.39,0,0,0,18.6-7.67Z" transform="translate(-35.81 -63.21)"/></g><g id="_Group_6" data-name="&lt;Group&gt;"><rect class="cls-15" x="128.92" y="195.89" width="173.46" height="4.88"/></g><g id="_Group_7" data-name="&lt;Group&gt;"><path class="cls-14" d="M262.2,262.86H240.73a1.33,1.33,0,0,1-1.33-1.32h0a1.34,1.34,0,0,1,1.33-1.33H262.2a1.33,1.33,0,0,1,1.32,1.33h0A1.32,1.32,0,0,1,262.2,262.86Z" transform="translate(-35.81 -63.21)"/></g><line class="cls-2" x1="145.94" y1="188.5" x2="285.37" y2="188.5"/></g></g><g id="Layer_11" data-name="Layer 11"><line class="cls-2" x1="29.19" y1="208.36" x2="160.37" y2="208.36"/><path class="cls-2" d="M44,271.57" transform="translate(-35.81 -63.21)"/><path class="cls-2" d="M62,271.57" transform="translate(-35.81 -63.21)"/><line class="cls-2" x1="270.6" y1="208.94" x2="410.19" y2="208.94"/><path class="cls-2" d="M451.5,271.57" transform="translate(-35.81 -63.21)"/><path class="cls-2" d="M457.5,271.57" transform="translate(-35.81 -63.21)"/></g><g id="WooCommerce"><path class="cls-12" d="M192.11,201.31a3.8,3.8,0,0,1,3.4-2.29H228.4a3.77,3.77,0,0,1,3.84,3.84v12.61a3.78,3.78,0,0,1-3.56,3.64c-4,0-8,0-12,0,.54,1.33,1.08,2.64,1.61,4-2.38-1.32-4.73-2.67-7.14-4-5.25,0-10.52,0-15.79,0a3.8,3.8,0,0,1-3.56-3.64c0-4.12,0-8.23,0-12.33a4.42,4.42,0,0,1,.32-1.83" transform="translate(-35.81 -63.21)"/><path class="cls-3" d="M208.18,201.61a1.46,1.46,0,0,1,2.21.3,1.34,1.34,0,0,1,.06,1.29,18.77,18.77,0,0,0-1.51,5.33,34.58,34.58,0,0,0-.58,7.18,1.41,1.41,0,0,1-.92,1.51,1.77,1.77,0,0,1-1.59-.72,17.07,17.07,0,0,1-3.54-6.9c-.73,1.45-1.47,2.93-2.18,4.38a10.66,10.66,0,0,1-1.83,2.8c-.34.34-.92.64-1.35.3a5,5,0,0,1-1.1-2.27,97.54,97.54,0,0,1-2.27-11.13,1.4,1.4,0,0,1,.74-1.61,1.57,1.57,0,0,1,1.57.16,1.64,1.64,0,0,1,.44,1.05c.44,2.9.93,5.79,1.65,8.63,1.19-2.27,2.39-4.53,3.58-6.82a2.29,2.29,0,0,1,.71-.88,1.21,1.21,0,0,1,1.46.14,2.46,2.46,0,0,1,.49,1.2,31.58,31.58,0,0,0,1.53,5.5,32,32,0,0,1,1.65-7.93,5.69,5.69,0,0,1,.78-1.51m6.74,1.45a4.16,4.16,0,0,1,3.56,1.25,5.51,5.51,0,0,1,1.25,2.93,9.06,9.06,0,0,1-1,5.33,5.8,5.8,0,0,1-2.05,2.34,4.18,4.18,0,0,1-4.41-.14,4.83,4.83,0,0,1-1.85-3.1,8.54,8.54,0,0,1,2.38-7.64,4,4,0,0,1,2.11-1m.26,2.78a2.84,2.84,0,0,0-1.35,1.3,4.89,4.89,0,0,0-.4,4.57,1.39,1.39,0,0,0,.92.88,1.58,1.58,0,0,0,1.25-.5,4.62,4.62,0,0,0,1.33-2.61,4.44,4.44,0,0,0-.54-3.26,1.13,1.13,0,0,0-1.21-.38m10.06-2.78a4.14,4.14,0,0,1,3.5,1.17,5.32,5.32,0,0,1,1.33,3.15,9,9,0,0,1-1,5.13,5.82,5.82,0,0,1-2.11,2.4,4.2,4.2,0,0,1-4.25-.06,4.37,4.37,0,0,1-1.77-2.32,8.58,8.58,0,0,1,1.93-8.34,4.43,4.43,0,0,1,2.34-1.13m.28,2.78a3.11,3.11,0,0,0-1.43,1.48,4.84,4.84,0,0,0-.26,4.47,1.22,1.22,0,0,0,1,.8,1.89,1.89,0,0,0,1.3-.64,4.73,4.73,0,0,0,1.23-2.88,4.16,4.16,0,0,0-.62-2.87,1.1,1.1,0,0,0-1.19-.36" transform="translate(-35.81 -63.21)"/><path class="cls-16" d="M239,203.44a7.53,7.53,0,0,1,3.34,0v2.68a4.09,4.09,0,0,0-2.76,0A3.16,3.16,0,0,0,238,209a3.32,3.32,0,0,0,1.31,3,3.76,3.76,0,0,0,3.08.2v2.68a6.58,6.58,0,0,1-4.07-.14,5.44,5.44,0,0,1-3.26-3.52,7.37,7.37,0,0,1-.12-3.73,5.49,5.49,0,0,1,4.09-4m8.08-.14a5.35,5.35,0,0,1,3.91.91,5.27,5.27,0,0,1,1.77,3.42,9.93,9.93,0,0,1-.29,4.24,4.62,4.62,0,0,1-2.27,2.76,5.68,5.68,0,0,1-3.68.3,4.1,4.1,0,0,1-2.66-2,8.27,8.27,0,0,1-.86-4.49,6.07,6.07,0,0,1,1.27-3.7,4.45,4.45,0,0,1,2.81-1.43m.41,2.56a1.64,1.64,0,0,0-1.05,1.26,10,10,0,0,0-.16,3.28,3.09,3.09,0,0,0,.56,1.71,1.48,1.48,0,0,0,2.19-.1,2.87,2.87,0,0,0,.49-1.47,9.89,9.89,0,0,0,0-2.77,3,3,0,0,0-.65-1.55,1.46,1.46,0,0,0-1.38-.36m53-2.38a7.75,7.75,0,0,1,3.52,0c0,.89,0,1.79,0,2.7a4.2,4.2,0,0,0-2.71,0,3.08,3.08,0,0,0-1.67,2.57,3.39,3.39,0,0,0,1.26,3.24,3.63,3.63,0,0,0,3.12.22c0,.89,0,1.81,0,2.7a6.74,6.74,0,0,1-4.3-.26,5.44,5.44,0,0,1-3-3.54,7.36,7.36,0,0,1-.06-3.67,5.47,5.47,0,0,1,3.88-3.9m-46,.08h3.84c.46,2.07.9,4.15,1.29,6.24.36-2.11.86-4.17,1.36-6.24H265q.78,5.64,1.51,11.25h-3c-.28-2.56-.51-5.15-.81-7.71-.62,2.56-1.26,5.15-1.87,7.71h-2.05c-.66-2.56-1.29-5.15-2-7.73-.26,2.56-.52,5.15-.77,7.73h-2.89q.72-5.61,1.43-11.25m13.76,0h3.84c.46,2.07.9,4.15,1.29,6.24.38-2.09.86-4.17,1.36-6.24h3.91q.78,5.64,1.52,11.25h-3c-.28-2.56-.53-5.15-.81-7.71-.62,2.56-1.24,5.15-1.87,7.71h-2.05l-2-7.73c-.26,2.58-.52,5.15-.77,7.73h-2.89q.75-5.61,1.45-11.25m12.79,0c2.05,0,4.12,0,6.17,0V206c-1,0-2.07,0-3.11,0v2.07h2.69v2.33h-2.69v2.07h3.13v2.4h-6.17c0-3.76,0-7.49,0-11.25m7,0c1.29,0,2.57,0,3.86,0a5.15,5.15,0,0,1,3.4,1.19,3.06,3.06,0,0,1,.77,3.06,3.14,3.14,0,0,1-1.69,1.93q1.2,2.53,2.43,5.07h-3.2c-.84-1.73-1.65-3.46-2.51-5.17,0,1.73,0,3.46,0,5.17h-3c0-3.74,0-7.49,0-11.25m3,2.17v2.68a3,3,0,0,0,1.61-.4,1.3,1.3,0,0,0,.14-1.73c-.41-.5-1.15-.5-1.75-.55M305,203.58h6.15V206H308v2.07h2.68v2.33H308v2.07h3.14v2.4H305c0-3.78,0-7.53,0-11.27" transform="translate(-35.81 -63.21)"/></g></svg>