<svg id="Graphics" xmlns="http://www.w3.org/2000/svg" viewBox="0 0 422.02 209.19"><defs><style>.cls-1{fill:#eceff6;}.cls-2{fill:none;stroke:#252525;stroke-miterlimit:10;stroke-width:0.5px;}.cls-3{fill:#fff;}.cls-4{fill:#fac1a7;}.cls-5{fill:#feeee7;}.cls-6{opacity:0.15;}.cls-7{fill:#d5d5d5;}.cls-8{fill:#999;}.cls-9{fill:#f4f5fa;}.cls-10{fill:#f5f7f9;}.cls-11{fill:#f26322;}.cls-12{fill:#e0e4f0;}.cls-13{fill:#fdfdfe;}.cls-14{fill:#252525;}</style></defs><title>homepage_mg</title><g id="Layer_7" data-name="Layer 7"><rect class="cls-1" x="207.97" y="0.25" width="119.23" height="155.31"/><polyline class="cls-2" points="207.97 35.51 207.97 0.25 327.19 0.25 327.19 53.29"/><rect class="cls-3" x="212.15" y="15.63" width="110.93" height="63.87"/><circle class="cls-3" cx="219.79" cy="8.47" r="1.82"/><circle class="cls-3" cx="228.26" cy="8.47" r="1.82"/><circle class="cls-3" cx="236.73" cy="8.47" r="1.82"/><rect class="cls-4" x="278.99" y="22.29" width="39.7" height="6.32"/><rect class="cls-5" x="216.31" y="36.31" width="102.37" height="3.16"/><rect class="cls-5" x="216.43" y="45.8" width="102.37" height="3.16"/><rect class="cls-5" x="216.55" y="55.3" width="102.37" height="3.16"/><rect class="cls-5" x="216.66" y="64.79" width="102.37" height="3.16"/><g class="cls-6"><path class="cls-7" d="M88,213.51c-5.74-8.9-11.53-17.87-19-25.42-2.44-2.48-6-5-9.13-3.48C57,186,56.38,189.8,56.57,193c.88,15,10.24,28.18,20.7,39a168.89,168.89,0,0,0,40,30.53l2.57.49Z" transform="translate(-36.94 -57.91)"/><path class="cls-8" d="M114.8,259.28c-22.88-16.08-40.93-40.49-51.65-66.12-.38-.91-1.73-.15-1.34.76a156.56,156.56,0,0,0,21.84,36.56c9,11.27,19.61,20.27,31.11,28.88,0,0,.09-.05,0-.08Z" transform="translate(-36.94 -57.91)"/><path class="cls-8" d="M60.14,205.5A22.73,22.73,0,0,0,70.54,211a.48.48,0,0,0,.25-.93,23.75,23.75,0,0,1-10-5.24c-.43-.38-1.06.24-.63.63Z" transform="translate(-36.94 -57.91)"/><path class="cls-8" d="M67.93,217.61c2.84,3,7,6.61,11,7.66a.23.23,0,0,0,.18-.42c-1.67-1.23-3.68-2-5.43-3.14a55.5,55.5,0,0,1-5.65-4.24.1.1,0,0,0-.14.14Z" transform="translate(-36.94 -57.91)"/><path class="cls-8" d="M79.84,232.3a21.58,21.58,0,0,0,8,4.23c.41.13.58-.52.18-.63a31.34,31.34,0,0,1-8-3.84c-.14-.09-.3.12-.18.24Z" transform="translate(-36.94 -57.91)"/><path class="cls-8" d="M71.91,201.08c.66,4.67,1.33,8.77.82,13.51-.09.85,1.21.85,1.32,0,.56-4.4.4-9.7-1.41-13.82-.2-.44-.79-.11-.73.29Z" transform="translate(-36.94 -57.91)"/><path class="cls-8" d="M79.38,211.79a32.46,32.46,0,0,1,3,14.12.53.53,0,0,0,1.05,0,27,27,0,0,0-3.71-14.31c-.12-.21-.41,0-.31.18Z" transform="translate(-36.94 -57.91)"/><path class="cls-8" d="M89.51,224.16c2.46,5.45,4.43,10.18,4.85,16.22.06,1,1.61,1,1.55,0-.4-5.73-2.1-12.17-5.8-16.69-.29-.36-.76.09-.6.45Z" transform="translate(-36.94 -57.91)"/><path class="cls-7" d="M109.78,258.55q-20.06-11.1-40.1-22.21c-4.72-2.61-9.5-5.25-14.73-6.57s-11-1.21-15.7,1.49a5.19,5.19,0,0,0-1.74,1.44c-1.34,2-.08,4.59,1.32,6.49C49.94,254.25,69.33,260.41,87.7,264c11,2.13,22.67,3.58,33-.73A88.38,88.38,0,0,1,109.78,258.55Z" transform="translate(-36.94 -57.91)"/><path class="cls-8" d="M42.4,236c9.6,6.41,20.27,10.74,31.06,14.69,12,4.38,24,8.66,35.86,13.16.93.36,1.54-1.1.59-1.43-11.54-4-23-8.26-34.51-12.44-11.2-4.07-22.4-8.18-32.46-14.69-.47-.3-1,.39-.54.71Z" transform="translate(-36.94 -57.91)"/><path class="cls-8" d="M46.08,244.08c3.91.6,7.88,1.3,11.84,1.51.94,0,1.17-1.36.2-1.47a119.72,119.72,0,0,0-12-.47.22.22,0,0,0-.06.43Z" transform="translate(-36.94 -57.91)"/><path class="cls-8" d="M61.82,252.71l7.73-.24a36.55,36.55,0,0,0,7.69-.56.46.46,0,0,0,0-.91,35.65,35.65,0,0,0-7.37.2l-8.17.59c-.6.05-.47.94.11.92Z" transform="translate(-36.94 -57.91)"/><path class="cls-8" d="M81.63,260.14a41.83,41.83,0,0,1,6.53-1.53c1.84-.2,3.81.25,5.58-.22.48-.13.34-.76,0-.95-1.73-.95-4.58-.51-6.44-.15a14.5,14.5,0,0,0-6,2.37c-.27.2,0,.56.27.48Z" transform="translate(-36.94 -57.91)"/><path class="cls-8" d="M53.29,234.24a49.88,49.88,0,0,1,3.57,6.49c.77,1.72,1.22,3.68,2.32,5.21a.25.25,0,0,0,.45-.18c-.14-2.16-1.44-4.28-2.4-6.19a65.21,65.21,0,0,0-3.33-5.79c-.27-.41-.87.05-.61.46Z" transform="translate(-36.94 -57.91)"/><path class="cls-8" d="M66.48,241.17c2.23,2.68,4.33,5.91,7,8.2.18.15.39-.1.28-.28-1.88-2.92-4.77-5.44-7.1-8-.07-.08-.2,0-.13.1Z" transform="translate(-36.94 -57.91)"/><path class="cls-8" d="M80,246.46c1.2,1.61,2.49,3.18,3.63,4.84,1,1.45,1.78,3.15,3.28,4.13a.31.31,0,0,0,.48-.36c-.53-1.71-2-2.92-3.08-4.28-1.28-1.56-2.46-3.21-3.68-4.81a.4.4,0,0,0-.63.48Z" transform="translate(-36.94 -57.91)"/><path class="cls-7" d="M106.45,190.82c-2-1.85-5.29-2.6-7.47-1-2,1.49-2.38,4.28-2.47,6.77-.77,22.44,11.31,46.11,21.79,66l2.27.61c-1.65-22-3.35-44.28-10.26-65.25C109.45,195.35,108.45,192.68,106.45,190.82Z" transform="translate(-36.94 -57.91)"/><path class="cls-8" d="M117.49,255.57c-5.89-18.93-9.92-38.27-14-57.66-.14-.64-1.17-.51-1,.12,4.52,19.25,8.17,39,14.68,57.66.07.21.36.08.3-.12Z" transform="translate(-36.94 -57.91)"/><path class="cls-8" d="M99.5,204.76q1.44,2,2.89,3.89a13.88,13.88,0,0,0,2.73,3.26.37.37,0,0,0,.56-.42,14.11,14.11,0,0,0-2.4-3.51l-3-3.84a.51.51,0,0,0-.81.62Z" transform="translate(-36.94 -57.91)"/><path class="cls-8" d="M101.82,215.71c1.7,2.76,3.3,6.14,5.55,8.47a.23.23,0,0,0,.4-.22c-.84-3.15-3.43-6.19-5.56-8.55a.25.25,0,0,0-.39.3Z" transform="translate(-36.94 -57.91)"/><path class="cls-8" d="M105.41,229.09a24.45,24.45,0,0,0,2.47,4.93,27.12,27.12,0,0,0,2.43,4.18.23.23,0,0,0,.39-.23,31.4,31.4,0,0,0-2.35-5,20.1,20.1,0,0,0-2.34-4.24.35.35,0,0,0-.6.34Z" transform="translate(-36.94 -57.91)"/><path class="cls-8" d="M110.78,210.34a20.4,20.4,0,0,0-2.44,5.72c-.4,1.54-1.07,3.82-.44,5.35a.35.35,0,0,0,.64,0c.7-1.43.52-3.48.86-5.06a35.38,35.38,0,0,1,1.8-5.77c.1-.25-.27-.49-.42-.24Z" transform="translate(-36.94 -57.91)"/><path class="cls-8" d="M114.53,225.74c-.35,2-.58,4-.78,6.07a24.1,24.1,0,0,0-.35,5.55c0,.36.64.5.76.1a26.06,26.06,0,0,0,.56-5.86c.12-2,.19-3.89.16-5.86,0-.21-.32-.2-.35,0Z" transform="translate(-36.94 -57.91)"/></g><g class="cls-6"><path class="cls-7" d="M370.91,266.26c1.41-12,3.27-21,12.07-29.59,4.13-4,9.58-6.88,12.84-11.61,4-5.75,4.28-13.77,9.72-18.26,5.85-4.82,15.22-3.5,21.24-8.12,4.29-3.29,5.87-8.81,9-13.19A24.25,24.25,0,0,1,459,176c-8.78,2.06-15,11.39-13.23,19.93,1.11,5.47,5,10.46,4.49,16-.94,11-17.62,15.74-18.91,26.73-.35,3,.56,6,.69,9,.38,9.35-8.06,18.2-17.75,18.61Z" transform="translate(-36.94 -57.91)"/><path class="cls-8" d="M436.48,203.43a154.85,154.85,0,0,0-23,27.1c-6.35,9.51-10.82,19.59-16,29.68a.92.92,0,0,1-1.68-.69c6.75-21.64,23.48-41.29,40.65-56.12a0,0,0,1,1,0,0Z" transform="translate(-36.94 -57.91)"/><path class="cls-8" d="M435.73,214.59a17.46,17.46,0,0,0-7.15.58c-2.42.75-4.08,2.28-6.3,3.3-.24.11-.59-.14-.41-.4,2.73-3.88,9.56-4.58,13.92-3.88.24,0,.18.43-.06.4Z" transform="translate(-36.94 -57.91)"/><path class="cls-8" d="M430.35,226.69a21.47,21.47,0,0,0-10.05-.12c-3,.72-5.4,2.36-8.09,3.76a.44.44,0,0,1-.55-.68c4.5-4.69,12.86-5.07,18.75-3.16a.1.1,0,1,1-.06.2Z" transform="translate(-36.94 -57.91)"/><path class="cls-8" d="M424.4,242.73c-9.24-1.09-15.36.7-22.34,6.69-.41.35-1.15-.11-.81-.61,4.54-6.62,15.74-9.82,23.27-6.51a.23.23,0,0,1-.12.43Z" transform="translate(-36.94 -57.91)"/><path class="cls-8" d="M418.49,209.16c3.72,3.94,2.35,11.73-1.24,15.31-.13.13-.38,0-.27-.21a14.21,14.21,0,0,0,2.85-7.65c.08-2.7-1-4.71-1.81-7.19a.28.28,0,0,1,.47-.26Z" transform="translate(-36.94 -57.91)"/><path class="cls-8" d="M411.54,218c1.91,5.09,1.7,11.84-1.38,16.47-.15.23-.56.09-.47-.19,1.79-5.66,2.59-10.23,1.36-16.14a.26.26,0,0,1,.49-.14Z" transform="translate(-36.94 -57.91)"/><path class="cls-8" d="M400.81,227.71c3.32,7.13,2.86,15-.25,22.15-.28.65-1.4.38-1.12-.29,3-7.15,2.84-14.26.7-21.59-.1-.37.5-.64.67-.27Z" transform="translate(-36.94 -57.91)"/></g><rect class="cls-9" x="74.41" y="24.13" width="162.81" height="184.1"/><polyline class="cls-2" points="74.42 203.84 74.42 24.13 237.22 24.13 237.22 208.13"/><rect class="cls-3" x="80.71" y="42.09" width="149.41" height="166.75"/><rect class="cls-5" x="85.15" y="47.38" width="140.16" height="39.64"/><rect class="cls-5" x="85.15" y="91.61" width="57.62" height="116.61"/><path class="cls-3" d="M128.8,90.75a1.62,1.62,0,1,1-1.62-1.62A1.62,1.62,0,0,1,128.8,90.75Z" transform="translate(-36.94 -57.91)"/><path class="cls-3" d="M138.17,90.75a1.62,1.62,0,1,1-1.61-1.62A1.61,1.61,0,0,1,138.17,90.75Z" transform="translate(-36.94 -57.91)"/><path class="cls-3" d="M147.55,90.75a1.62,1.62,0,1,1-1.62-1.62A1.62,1.62,0,0,1,147.55,90.75Z" transform="translate(-36.94 -57.91)"/><rect class="cls-1" x="243.08" y="53.64" width="119.23" height="155.31"/><line class="cls-2" x1="362.31" y1="53.64" x2="362.31" y2="208.94"/><polyline class="cls-2" points="243.08 98.75 243.08 53.64 362.31 53.64"/><rect class="cls-3" x="247.26" y="69.02" width="110.93" height="139.67"/><path class="cls-3" d="M293.67,119.76a1.82,1.82,0,1,1-1.82-1.82A1.81,1.81,0,0,1,293.67,119.76Z" transform="translate(-36.94 -57.91)"/><path class="cls-3" d="M302.14,119.76a1.82,1.82,0,1,1-1.82-1.82A1.82,1.82,0,0,1,302.14,119.76Z" transform="translate(-36.94 -57.91)"/><path class="cls-3" d="M310.61,119.76a1.83,1.83,0,1,1-1.82-1.82A1.82,1.82,0,0,1,310.61,119.76Z" transform="translate(-36.94 -57.91)"/><rect class="cls-5" x="251.2" y="147.5" width="104.74" height="4.61"/><rect class="cls-5" x="251.17" y="158.05" width="104.74" height="4.61"/><rect class="cls-5" x="251.14" y="168.61" width="104.74" height="4.61"/><rect class="cls-5" x="251.12" y="179.17" width="104.74" height="4.61"/><rect class="cls-5" x="251.09" y="189.73" width="104.74" height="4.61"/><g id="_Group_" data-name="&lt;Group&gt;"><path id="_Compound_Path_" data-name="&lt;Compound Path&gt;" class="cls-3" d="M372.18,266.52H328.32V213.23a2.17,2.17,0,0,1,2.18-2.18H370a2.17,2.17,0,0,1,2.18,2.18Z" transform="translate(-36.94 -57.91)"/><path id="_Compound_Path_2" data-name="&lt;Compound Path&gt;" class="cls-2" d="M331.33,211.05h38.85a2,2,0,0,1,2,2v53.46" transform="translate(-36.94 -57.91)"/><rect id="_Rectangle_" data-name="&lt;Rectangle&gt;" class="cls-10" x="295.49" y="164.82" width="35.64" height="43.59"/><line class="cls-2" x1="306.92" y1="158.48" x2="319.64" y2="158.48"/><polygon id="_Path_" data-name="&lt;Path&gt;" class="cls-11" points="295.49 196.71 295.49 208.62 303.19 208.6 303.19 190.26 295.49 196.71"/><polygon id="_Path_2" data-name="&lt;Path&gt;" class="cls-11" points="309.9 193.26 309.88 193.25 309.88 208.62 318.72 208.59 318.72 186.68 309.9 193.26"/><polygon id="_Path_3" data-name="&lt;Path&gt;" class="cls-4" points="303.24 190.23 303.19 190.28 303.19 208.62 309.88 208.6 309.88 193.23 303.24 190.23"/><polygon id="_Path_4" data-name="&lt;Path&gt;" class="cls-11" points="331.13 183.84 324.2 189.81 324.2 208.62 331.13 208.6 331.13 183.84"/><polygon id="_Path_5" data-name="&lt;Path&gt;" class="cls-4" points="324.2 189.79 318.72 186.7 318.72 208.62 324.2 208.6 324.2 189.79 324.2 189.79"/></g></g><g id="Layer_6" data-name="Layer 6"><g id="_Group_2" data-name="&lt;Group&gt;"><g id="_Group_3" data-name="&lt;Group&gt;"><path class="cls-12" d="M139.23,98.75H292.09a1.25,1.25,0,0,1,1.25,1.25v96.4a0,0,0,0,1,0,0H138a0,0,0,0,1,0,0V100A1.25,1.25,0,0,1,139.23,98.75Z"/></g><g id="_Group_4" data-name="&lt;Group&gt;"><path class="cls-2" d="M139.23,98.75H292.09a1.25,1.25,0,0,1,1.25,1.25v96.4a0,0,0,0,1,0,0H138a0,0,0,0,1,0,0V100A1.25,1.25,0,0,1,139.23,98.75Z"/></g><g id="obalka"><path class="cls-3" d="M182.89,165.66c0,.12,7,5.34,15.49,11.6s24.37,17.87,35.2,25.86l19.76,14.49.71-.5c2.23-1.46,68.1-51.1,68.21-51.37s-14-.3-69.63-.3C212.33,165.44,182.89,165.54,182.89,165.66Z" transform="translate(-36.94 -57.91)"/><path class="cls-3" d="M182.89,206.58V246H322.31V167.1l-4.56,4.05c-2.53,2.23-12.71,11.23-22.64,20s-18.09,16-18.09,16,9.36,8,20.82,17.71c19.7,16.69,24.39,20.72,22.83,19.55-.87-.64-45.26-34.14-45.89-34.64-.43-.34-1.17.25-8.73,6.93l-10.48,9.17-2.23,1.9-10.56-9.07c-5.81-5-10.64-9.1-10.78-9.1s-32.69,23.94-44.94,33.08a15.72,15.72,0,0,1-2.26,1.56c0-.07,10-8.38,22.23-18.44s22.24-18.45,22.24-18.55-35.63-31-44.8-38.79l-1.58-1.33Z" transform="translate(-36.94 -57.91)"/></g><g id="_Group_5" data-name="&lt;Group&gt;"><path class="cls-10" d="M339.33,258.67H165.87a26.35,26.35,0,0,0,18.6,7.67H320.73a26.35,26.35,0,0,0,18.6-7.67Z" transform="translate(-36.94 -57.91)"/></g><g id="_Group_6" data-name="&lt;Group&gt;"><rect class="cls-13" x="128.92" y="195.89" width="173.46" height="4.88"/></g><g id="_Group_7" data-name="&lt;Group&gt;"><path class="cls-12" d="M263.34,257.56H241.86a1.33,1.33,0,0,1-1.32-1.33h0a1.33,1.33,0,0,1,1.32-1.33h21.48a1.33,1.33,0,0,1,1.32,1.33h0A1.33,1.33,0,0,1,263.34,257.56Z" transform="translate(-36.94 -57.91)"/></g><line class="cls-2" x1="145.94" y1="188.5" x2="285.37" y2="188.5"/></g></g><g id="Layer_11" data-name="Layer 11"><line class="cls-2" x1="29.19" y1="208.36" x2="160.37" y2="208.36"/><path class="cls-2" d="M45.14,266.26" transform="translate(-36.94 -57.91)"/><path class="cls-2" d="M63.14,266.26" transform="translate(-36.94 -57.91)"/><line class="cls-2" x1="270.6" y1="208.94" x2="410.19" y2="208.94"/><path class="cls-2" d="M452.64,266.26" transform="translate(-36.94 -57.91)"/><path class="cls-2" d="M458.64,266.26" transform="translate(-36.94 -57.91)"/></g><g id="Magento"><g id="Logo-2"><polygon class="cls-11" points="176.19 131.99 163.75 139.16 163.75 153.51 167.3 155.56 167.28 141.22 176.16 136.09 185.05 141.22 185.05 155.55 188.6 153.51 188.6 139.15 176.19 131.99"/><polygon class="cls-11" points="177.95 155.56 176.18 156.59 174.39 155.56 174.39 141.22 170.84 143.26 170.85 157.61 176.17 160.68 181.5 157.61 181.5 143.26 177.95 141.22 177.95 155.56"/><path class="cls-14" d="M233.68,197.16l4.88,12.33h0l4.76-12.33h1.86v14.13h-1.28V199h-.05c-.06.22-.13.44-.21.67l-.23.61-.23.63-4.09,10.4H238l-4.14-10.4q-.12-.27-.24-.6l-.22-.62c-.07-.24-.15-.47-.23-.69h0v12.31h-1.22V197.16Z" transform="translate(-36.94 -57.91)"/><path class="cls-14" d="M249,211.35a2.94,2.94,0,0,1-1.06-.53,2.52,2.52,0,0,1-.7-.89,2.88,2.88,0,0,1-.26-1.25,2.85,2.85,0,0,1,.34-1.48,2.59,2.59,0,0,1,.91-.92,4.56,4.56,0,0,1,1.33-.52c.54-.12,1.08-.21,1.63-.28s.93-.1,1.28-.16a4.67,4.67,0,0,0,.84-.23,1,1,0,0,0,.48-.37,1.12,1.12,0,0,0,.14-.62v-.2a1.85,1.85,0,0,0-.63-1.55,2.84,2.84,0,0,0-1.82-.51c-1.82,0-2.77.76-2.86,2.28h-1.21a3.32,3.32,0,0,1,1.1-2.37,4.29,4.29,0,0,1,3-.89,4.23,4.23,0,0,1,2.65.74,2.87,2.87,0,0,1,1,2.42v5.55a1,1,0,0,0,.17.67.67.67,0,0,0,.5.22h.21l.25-.06h.06v.89l-.34.11a2.73,2.73,0,0,1-.5.05,1.56,1.56,0,0,1-1.06-.35,1.49,1.49,0,0,1-.44-1.1v-.22h0a5.25,5.25,0,0,1-.53.62,3.4,3.4,0,0,1-.74.57,4.49,4.49,0,0,1-1,.42,4.69,4.69,0,0,1-1.3.15,4.27,4.27,0,0,1-1.33-.18m3-1.07a3.45,3.45,0,0,0,1.08-.69,2.79,2.79,0,0,0,.87-2v-1.84a4.43,4.43,0,0,1-1.2.42c-.47.1-.95.19-1.45.25l-1.21.21a2.94,2.94,0,0,0-1,.34,1.74,1.74,0,0,0-.64.65,2,2,0,0,0-.24,1.05,1.81,1.81,0,0,0,.19.89,1.53,1.53,0,0,0,.49.58,1.9,1.9,0,0,0,.72.3,4.28,4.28,0,0,0,.87.09,4,4,0,0,0,1.48-.26" transform="translate(-36.94 -57.91)"/><path class="cls-14" d="M258.34,214.11a2.72,2.72,0,0,1-1.16-1.91h1.18a1.68,1.68,0,0,0,1,1.28,4.34,4.34,0,0,0,1.91.38,3.29,3.29,0,0,0,2.42-.78,2.89,2.89,0,0,0,.78-2.14v-1.62h-.06a4.15,4.15,0,0,1-1.32,1.32,3.69,3.69,0,0,1-1.92.45,4.29,4.29,0,0,1-1.82-.37,4.06,4.06,0,0,1-1.38-1.05,4.64,4.64,0,0,1-.88-1.61,6.45,6.45,0,0,1-.31-2.06,6.53,6.53,0,0,1,.35-2.21,5.08,5.08,0,0,1,1-1.61,4.06,4.06,0,0,1,1.4-1,4.43,4.43,0,0,1,1.69-.33,3.61,3.61,0,0,1,1.95.48,4.07,4.07,0,0,1,1.29,1.32h.06v-1.59h1.21v9.83a4,4,0,0,1-.95,2.75,4.53,4.53,0,0,1-3.42,1.22,4.87,4.87,0,0,1-2.93-.76m5.36-5.17a5,5,0,0,0,.82-3,6.62,6.62,0,0,0-.2-1.66,3.52,3.52,0,0,0-.62-1.29,2.79,2.79,0,0,0-1-.84,3.34,3.34,0,0,0-1.46-.3,2.78,2.78,0,0,0-2.36,1.13,4.9,4.9,0,0,0-.84,3,6.23,6.23,0,0,0,.2,1.61,3.92,3.92,0,0,0,.59,1.29,3,3,0,0,0,1,.85,3,3,0,0,0,1.4.3,2.89,2.89,0,0,0,2.51-1.12" transform="translate(-36.94 -57.91)"/><path class="cls-14" d="M269.89,211.14A4,4,0,0,1,268.4,210a5.07,5.07,0,0,1-.92-1.7,6.94,6.94,0,0,1-.32-2.13,6.59,6.59,0,0,1,.34-2.12,5.11,5.11,0,0,1,.94-1.7,4.16,4.16,0,0,1,1.46-1.13,4.44,4.44,0,0,1,1.93-.4,4.21,4.21,0,0,1,2.06.46,3.8,3.8,0,0,1,1.36,1.25,5.17,5.17,0,0,1,.75,1.78,9.72,9.72,0,0,1,.21,2.08h-7.78a5.87,5.87,0,0,0,.24,1.61,3.85,3.85,0,0,0,.66,1.29,3,3,0,0,0,1.07.88,3.51,3.51,0,0,0,1.53.31,2.9,2.9,0,0,0,2-.62,3.43,3.43,0,0,0,1-1.67h1.19a4.42,4.42,0,0,1-1.39,2.43,4.08,4.08,0,0,1-2.78.91,4.86,4.86,0,0,1-2-.41m4.82-7.11a3.44,3.44,0,0,0-.57-1.15,2.6,2.6,0,0,0-.95-.76,3.17,3.17,0,0,0-1.36-.28,3.27,3.27,0,0,0-1.38.28,3.06,3.06,0,0,0-1,.76,3.82,3.82,0,0,0-.66,1.14,5.32,5.32,0,0,0-.32,1.42h6.48a5.19,5.19,0,0,0-.22-1.41" transform="translate(-36.94 -57.91)"/><path class="cls-14" d="M279,201.07v1.56h0a4.24,4.24,0,0,1,1.36-1.27,3.91,3.91,0,0,1,2.06-.51,3.45,3.45,0,0,1,2.35.82,3,3,0,0,1,.91,2.37v7.25h-1.22v-7.13a2.2,2.2,0,0,0-.62-1.72,2.55,2.55,0,0,0-1.72-.54,3.42,3.42,0,0,0-1.22.22,3.34,3.34,0,0,0-1,.6,2.77,2.77,0,0,0-.93,2.09v6.48h-1.22V201.07Z" transform="translate(-36.94 -57.91)"/><path class="cls-14" d="M288.85,211a1.71,1.71,0,0,1-.54-1.42v-7.45h-1.54v-1h1.54v-3.14h1.23v3.14h1.9v1h-1.9v7.26a.94.94,0,0,0,.25.76,1.11,1.11,0,0,0,.74.2,1.61,1.61,0,0,0,.44-.05,1.58,1.58,0,0,0,.37-.11h.06v1.05a3.66,3.66,0,0,1-1.13.18,2.17,2.17,0,0,1-1.42-.43" transform="translate(-36.94 -57.91)"/><path class="cls-14" d="M295.06,211.14a4.31,4.31,0,0,1-1.49-1.12,5.11,5.11,0,0,1-.94-1.7,7.22,7.22,0,0,1,0-4.25,5.11,5.11,0,0,1,.94-1.7,4.34,4.34,0,0,1,1.49-1.13,4.72,4.72,0,0,1,2-.41,4.64,4.64,0,0,1,2,.41,4.3,4.3,0,0,1,1.48,1.13,4.83,4.83,0,0,1,.93,1.7,7.44,7.44,0,0,1,0,4.25,4.92,4.92,0,0,1-.93,1.7,4.27,4.27,0,0,1-1.48,1.12,4.64,4.64,0,0,1-2,.41,4.72,4.72,0,0,1-2-.41m3.49-.95a3,3,0,0,0,1.09-.93,4.14,4.14,0,0,0,.65-1.39,6.6,6.6,0,0,0,0-3.36,4,4,0,0,0-.65-1.38,3,3,0,0,0-1.09-.93,3,3,0,0,0-1.5-.33,3.35,3.35,0,0,0-1.51.33,3.15,3.15,0,0,0-1.09.93,4.21,4.21,0,0,0-.66,1.38,6.6,6.6,0,0,0,0,3.36,4.36,4.36,0,0,0,.66,1.39,3.38,3.38,0,0,0,1.09.93,3.26,3.26,0,0,0,1.51.33,3.16,3.16,0,0,0,1.5-.33" transform="translate(-36.94 -57.91)"/><path class="cls-14" d="M303.32,202.77a1.23,1.23,0,0,1-1.28-1.31,1.29,1.29,0,1,1,1.28,1.31m0-2.48a1.16,1.16,0,1,0,1.11,1.16,1.07,1.07,0,0,0-1.11-1.16m.38,1.87-.44-.62h-.14v.6h-.25v-1.46h.45c.3,0,.5.15.5.42a.38.38,0,0,1-.29.4l.42.6Zm-.38-1.25h-.2v.43h.19c.16,0,.26-.07.26-.22s-.09-.21-.25-.21" transform="translate(-36.94 -57.91)"/></g></g></svg>