<svg id="Graphics" xmlns="http://www.w3.org/2000/svg" viewBox="0 0 422.02 209.19"><defs><style>.cls-1{fill:#eceff6;}.cls-2,.cls-23{fill:none;}.cls-2{stroke:#252525;stroke-miterlimit:10;stroke-width:0.5px;}.cls-3{fill:#fff;}.cls-4{fill:#bbb3e3;}.cls-5{fill:#f6f5fb;}.cls-6{opacity:0.15;}.cls-7{fill:#d5d5d5;}.cls-8{fill:#999;}.cls-9{fill:#f4f5fa;}.cls-10{fill:#f0eefb;}.cls-11{fill:#f5f7f9;}.cls-12{fill:#34219e;}.cls-13{fill:#e0e4f0;}.cls-14{fill:#fdfdfe;}.cls-15{fill:#1f0047;}.cls-16{fill:#ff0076;}.cls-17{fill:#a0dbe8;}.cls-18{fill:#525353;}.cls-19{fill:#aa9678;}.cls-20{fill:#c0b098;}.cls-21{fill:#786453;}.cls-22{fill:#8b7460;}.cls-24{fill:#bbbcbd;}.cls-25{fill:#676a6a;}.cls-26{fill:#909393;}.cls-27{fill:#e2dddb;}.cls-28{fill:#fbb040;}.cls-29{fill:#9f2255;}.cls-30{fill:#e2066f;}</style></defs><title>homepage_ps</title><g id="Layer_7" data-name="Layer 7"><rect class="cls-1" x="207.97" y="0.25" width="119.23" height="155.31"/><polyline class="cls-2" points="207.97 35.51 207.97 0.25 327.19 0.25 327.19 53.29"/><rect class="cls-3" x="212.15" y="15.63" width="110.93" height="63.87"/><circle class="cls-3" cx="219.79" cy="8.47" r="1.82"/><circle class="cls-3" cx="228.26" cy="8.47" r="1.82"/><circle class="cls-3" cx="236.73" cy="8.47" r="1.82"/><rect class="cls-4" x="278.99" y="22.29" width="39.7" height="6.32"/><rect class="cls-5" x="216.31" y="36.31" width="102.37" height="3.16"/><rect class="cls-5" x="216.43" y="45.8" width="102.37" height="3.16"/><rect class="cls-5" x="216.55" y="55.3" width="102.37" height="3.16"/><rect class="cls-5" x="216.66" y="64.79" width="102.37" height="3.16"/><g class="cls-6"><path class="cls-7" d="M87.06,203c-5.74-8.9-11.52-17.87-19-25.41-2.45-2.49-6-5-9.13-3.49-2.9,1.36-3.5,5.19-3.31,8.39.88,15,10.25,28.17,20.7,39a168.68,168.68,0,0,0,40,30.53l2.56.49Z" transform="translate(-36.04 -47.36)"/><path class="cls-8" d="M113.9,248.73C91,232.66,73,208.24,62.25,182.61c-.38-.91-1.73-.14-1.34.77a156.5,156.5,0,0,0,21.84,36.55c9,11.27,19.61,20.28,31.11,28.88,0,0,.09,0,0-.08Z" transform="translate(-36.04 -47.36)"/><path class="cls-8" d="M59.24,195a22.55,22.55,0,0,0,10.4,5.54c.6.13.85-.77.26-.92a23.86,23.86,0,0,1-10-5.25c-.43-.38-1.06.24-.63.63Z" transform="translate(-36.04 -47.36)"/><path class="cls-8" d="M67,207.06c2.83,3,7,6.62,11,7.66a.23.23,0,0,0,.18-.42c-1.67-1.23-3.68-2-5.43-3.14a56.79,56.79,0,0,1-5.64-4.23c-.1-.08-.23,0-.14.13Z" transform="translate(-36.04 -47.36)"/><path class="cls-8" d="M79,221.75A21.46,21.46,0,0,0,87,226a.33.33,0,0,0,.18-.63,31.81,31.81,0,0,1-8-3.83.14.14,0,0,0-.17.23Z" transform="translate(-36.04 -47.36)"/><path class="cls-8" d="M71,190.53c.66,4.67,1.33,8.78.82,13.51-.09.85,1.21.85,1.32,0,.56-4.4.4-9.69-1.41-13.82-.19-.44-.79-.11-.73.29Z" transform="translate(-36.04 -47.36)"/><path class="cls-8" d="M78.48,201.24a32.49,32.49,0,0,1,3,14.12.53.53,0,0,0,1,0,27,27,0,0,0-3.71-14.32.18.18,0,0,0-.31.18Z" transform="translate(-36.04 -47.36)"/><path class="cls-8" d="M88.61,213.61c2.46,5.45,4.43,10.18,4.85,16.23.07,1,1.61,1,1.55,0-.4-5.72-2.1-12.17-5.8-16.69-.29-.35-.76.09-.6.45Z" transform="translate(-36.04 -47.36)"/><path class="cls-7" d="M108.88,248l-40.1-22.2c-4.72-2.62-9.5-5.25-14.73-6.58s-11-1.21-15.7,1.49a5.07,5.07,0,0,0-1.73,1.45c-1.34,1.94-.09,4.59,1.31,6.49,11.11,15,30.51,21.21,48.87,24.78,11,2.13,22.67,3.58,33-.73A88.23,88.23,0,0,1,108.88,248Z" transform="translate(-36.04 -47.36)"/><path class="cls-8" d="M41.5,225.41c9.6,6.41,20.27,10.74,31.06,14.69,12,4.38,24,8.66,35.86,13.16.93.36,1.54-1.1.6-1.43-11.55-4-23-8.26-34.52-12.43-11.2-4.07-22.39-8.18-32.45-14.69-.48-.31-1,.38-.55.7Z" transform="translate(-36.04 -47.36)"/><path class="cls-8" d="M45.18,233.53A115.05,115.05,0,0,0,57,235c.94.05,1.17-1.36.2-1.47a119.71,119.71,0,0,0-12-.46.21.21,0,0,0-.06.42Z" transform="translate(-36.04 -47.36)"/><path class="cls-8" d="M60.92,242.16l7.73-.24a37.23,37.23,0,0,0,7.69-.55c.48-.12.57-.84,0-.92a34.86,34.86,0,0,0-7.36.21l-8.18.59c-.6,0-.47.93.11.91Z" transform="translate(-36.04 -47.36)"/><path class="cls-8" d="M80.74,249.6a40.39,40.39,0,0,1,6.52-1.54c1.84-.2,3.81.25,5.58-.22.49-.12.34-.76,0-.94-1.72-1-4.58-.52-6.44-.16a14.64,14.64,0,0,0-6,2.37c-.27.2,0,.57.28.49Z" transform="translate(-36.04 -47.36)"/><path class="cls-8" d="M52.4,223.69A51.73,51.73,0,0,1,56,230.18c.78,1.73,1.22,3.68,2.33,5.21a.25.25,0,0,0,.44-.17c-.14-2.17-1.44-4.28-2.4-6.19a64,64,0,0,0-3.33-5.8c-.26-.41-.86.05-.6.46Z" transform="translate(-36.04 -47.36)"/><path class="cls-8" d="M65.58,230.62c2.23,2.68,4.33,5.91,7,8.2.18.15.39-.1.28-.28-1.88-2.91-4.77-5.43-7.1-8-.07-.07-.2,0-.13.1Z" transform="translate(-36.04 -47.36)"/><path class="cls-8" d="M79.1,235.91c1.2,1.61,2.49,3.19,3.63,4.85,1,1.45,1.78,3.14,3.28,4.12a.31.31,0,0,0,.48-.36c-.53-1.71-2-2.92-3.08-4.28-1.28-1.56-2.46-3.21-3.68-4.81a.4.4,0,0,0-.63.48Z" transform="translate(-36.04 -47.36)"/><path class="cls-7" d="M105.56,180.28c-2-1.86-5.3-2.61-7.48-1-2,1.49-2.38,4.29-2.47,6.77-.77,22.44,11.31,46.11,21.79,66l2.28.61c-1.66-22-3.36-44.28-10.27-65.24C108.56,184.8,107.56,182.13,105.56,180.28Z" transform="translate(-36.04 -47.36)"/><path class="cls-8" d="M116.59,245c-5.89-18.93-9.92-38.26-14-57.66-.14-.64-1.17-.51-1,.13,4.52,19.25,8.17,38.95,14.68,57.66.07.2.37.07.3-.13Z" transform="translate(-36.04 -47.36)"/><path class="cls-8" d="M98.6,194.21l2.89,3.9a14.3,14.3,0,0,0,2.73,3.26.37.37,0,0,0,.56-.43,14.29,14.29,0,0,0-2.4-3.51l-3-3.83a.51.51,0,0,0-.82.61Z" transform="translate(-36.04 -47.36)"/><path class="cls-8" d="M100.92,205.16c1.7,2.76,3.3,6.14,5.55,8.47a.23.23,0,0,0,.4-.22c-.84-3.15-3.43-6.19-5.56-8.55a.25.25,0,0,0-.39.3Z" transform="translate(-36.04 -47.36)"/><path class="cls-8" d="M104.51,218.54a23.73,23.73,0,0,0,2.48,4.93,26.28,26.28,0,0,0,2.42,4.18.23.23,0,0,0,.39-.23,31.35,31.35,0,0,0-2.35-5,20.1,20.1,0,0,0-2.34-4.24.35.35,0,0,0-.6.34Z" transform="translate(-36.04 -47.36)"/><path class="cls-8" d="M109.88,199.79a21,21,0,0,0-2.44,5.72c-.4,1.55-1.07,3.82-.44,5.35a.35.35,0,0,0,.64,0c.7-1.43.52-3.48.86-5.07a35.38,35.38,0,0,1,1.8-5.77c.1-.25-.27-.49-.42-.24Z" transform="translate(-36.04 -47.36)"/><path class="cls-8" d="M113.63,215.19c-.35,2-.58,4-.78,6.07a24.1,24.1,0,0,0-.35,5.55c0,.36.64.5.76.1a26.06,26.06,0,0,0,.56-5.86c.12-2,.19-3.89.17-5.86,0-.21-.33-.2-.36,0Z" transform="translate(-36.04 -47.36)"/></g><g class="cls-6"><path class="cls-7" d="M370,255.72c1.41-12,3.27-21,12.08-29.6,4.12-4,9.57-6.88,12.83-11.6,4-5.76,4.28-13.78,9.73-18.27,5.84-4.82,15.22-3.5,21.23-8.11,4.3-3.3,5.87-8.82,8.95-13.19a24.25,24.25,0,0,1,23.24-9.52c-8.77,2.07-15,11.39-13.23,19.93,1.11,5.47,5,10.46,4.49,16-.94,11-17.62,15.75-18.91,26.74-.35,3,.56,6,.69,9,.38,9.35-8.06,18.2-17.75,18.62Z" transform="translate(-36.04 -47.36)"/><path class="cls-8" d="M435.58,192.88a154.92,154.92,0,0,0-23,27.11c-6.35,9.5-10.82,19.59-16,29.67a.92.92,0,0,1-1.68-.68c6.75-21.65,23.49-41.29,40.65-56.13a0,0,0,0,1,0,0Z" transform="translate(-36.04 -47.36)"/><path class="cls-8" d="M434.83,204.05a17.23,17.23,0,0,0-7.14.58c-2.43.74-4.08,2.27-6.31,3.29-.24.12-.59-.13-.41-.4,2.73-3.88,9.56-4.58,13.92-3.88a.21.21,0,0,1-.06.41Z" transform="translate(-36.04 -47.36)"/><path class="cls-8" d="M429.45,216.14A21.47,21.47,0,0,0,419.4,216c-3,.72-5.4,2.37-8.09,3.76a.44.44,0,0,1-.55-.68c4.5-4.69,12.86-5.07,18.75-3.16a.1.1,0,1,1-.06.2Z" transform="translate(-36.04 -47.36)"/><path class="cls-8" d="M423.5,232.18c-9.24-1.09-15.36.7-22.34,6.69-.41.36-1.15-.11-.81-.6,4.54-6.63,15.74-9.82,23.27-6.52a.23.23,0,0,1-.12.43Z" transform="translate(-36.04 -47.36)"/><path class="cls-8" d="M417.59,198.61c3.72,3.94,2.35,11.73-1.24,15.31-.13.13-.37,0-.27-.2a14.25,14.25,0,0,0,2.85-7.66c.08-2.7-1-4.71-1.81-7.18a.29.29,0,0,1,.47-.27Z" transform="translate(-36.04 -47.36)"/><path class="cls-8" d="M410.65,207.45c1.9,5.08,1.69,11.83-1.39,16.47-.15.23-.56.08-.47-.19,1.79-5.67,2.59-10.23,1.36-16.15a.26.26,0,0,1,.5-.13Z" transform="translate(-36.04 -47.36)"/><path class="cls-8" d="M399.91,217.16c3.32,7.13,2.86,15-.25,22.16-.28.65-1.4.37-1.12-.3,3-7.15,2.84-14.25.71-21.59-.11-.37.49-.64.66-.27Z" transform="translate(-36.04 -47.36)"/></g><rect class="cls-9" x="74.41" y="24.13" width="162.81" height="184.1"/><polyline class="cls-2" points="74.42 203.84 74.42 24.13 237.22 24.13 237.22 208.13"/><rect class="cls-3" x="80.71" y="42.09" width="149.41" height="166.75"/><rect class="cls-10" x="85.15" y="47.38" width="140.16" height="39.64"/><rect class="cls-10" x="85.15" y="91.61" width="57.62" height="116.61"/><path class="cls-3" d="M127.9,80.2a1.62,1.62,0,1,1-1.62-1.62A1.63,1.63,0,0,1,127.9,80.2Z" transform="translate(-36.04 -47.36)"/><path class="cls-3" d="M137.27,80.2a1.62,1.62,0,1,1-1.61-1.62A1.62,1.62,0,0,1,137.27,80.2Z" transform="translate(-36.04 -47.36)"/><path class="cls-3" d="M146.65,80.2A1.62,1.62,0,1,1,145,78.58,1.62,1.62,0,0,1,146.65,80.2Z" transform="translate(-36.04 -47.36)"/><rect class="cls-1" x="243.08" y="53.64" width="119.23" height="155.31"/><line class="cls-2" x1="362.31" y1="53.64" x2="362.31" y2="208.94"/><polyline class="cls-2" points="243.08 98.75 243.08 53.64 362.31 53.64"/><rect class="cls-3" x="247.26" y="69.02" width="110.93" height="139.67"/><path class="cls-3" d="M292.77,109.21a1.82,1.82,0,1,1-1.82-1.82A1.81,1.81,0,0,1,292.77,109.21Z" transform="translate(-36.04 -47.36)"/><path class="cls-3" d="M301.24,109.21a1.82,1.82,0,1,1-1.82-1.82A1.81,1.81,0,0,1,301.24,109.21Z" transform="translate(-36.04 -47.36)"/><path class="cls-3" d="M309.71,109.21a1.82,1.82,0,1,1-1.82-1.82A1.82,1.82,0,0,1,309.71,109.21Z" transform="translate(-36.04 -47.36)"/><rect class="cls-5" x="251.2" y="147.5" width="104.74" height="4.61"/><rect class="cls-5" x="251.17" y="158.05" width="104.74" height="4.61"/><rect class="cls-5" x="251.14" y="168.61" width="104.74" height="4.61"/><rect class="cls-5" x="251.12" y="179.17" width="104.74" height="4.61"/><rect class="cls-5" x="251.09" y="189.73" width="104.74" height="4.61"/><g id="_Group_" data-name="&lt;Group&gt;"><path id="_Compound_Path_" data-name="&lt;Compound Path&gt;" class="cls-3" d="M371.29,256H327.42V202.68a2.19,2.19,0,0,1,2.18-2.18h39.51a2.19,2.19,0,0,1,2.18,2.18Z" transform="translate(-36.04 -47.36)"/><path id="_Compound_Path_2" data-name="&lt;Compound Path&gt;" class="cls-2" d="M330.43,200.5h38.85a2,2,0,0,1,2,2V256" transform="translate(-36.04 -47.36)"/><rect id="_Rectangle_" data-name="&lt;Rectangle&gt;" class="cls-11" x="295.49" y="164.82" width="35.64" height="43.59"/><line class="cls-2" x1="306.92" y1="158.48" x2="319.64" y2="158.48"/><polygon id="_Path_" data-name="&lt;Path&gt;" class="cls-12" points="295.49 196.71 295.49 208.62 303.19 208.6 303.19 190.26 295.49 196.71"/><polygon id="_Path_2" data-name="&lt;Path&gt;" class="cls-12" points="309.9 193.26 309.88 193.25 309.88 208.62 318.72 208.59 318.72 186.68 309.9 193.26"/><polygon id="_Path_3" data-name="&lt;Path&gt;" class="cls-4" points="303.24 190.23 303.19 190.28 303.19 208.62 309.88 208.6 309.88 193.23 303.24 190.23"/><polygon id="_Path_4" data-name="&lt;Path&gt;" class="cls-12" points="331.13 183.84 324.2 189.81 324.2 208.62 331.13 208.6 331.13 183.84"/><polygon id="_Path_5" data-name="&lt;Path&gt;" class="cls-4" points="324.2 189.79 318.72 186.7 318.72 208.62 324.2 208.6 324.2 189.79 324.2 189.79"/></g></g><g id="Layer_6" data-name="Layer 6"><g id="_Group_2" data-name="&lt;Group&gt;"><g id="_Group_3" data-name="&lt;Group&gt;"><path class="cls-13" d="M139.23,98.75H292.08a1.25,1.25,0,0,1,1.25,1.25v96.4a0,0,0,0,1,0,0H138a0,0,0,0,1,0,0V100A1.25,1.25,0,0,1,139.23,98.75Z"/></g><g id="_Group_4" data-name="&lt;Group&gt;"><path class="cls-2" d="M139.23,98.75H292.08a1.25,1.25,0,0,1,1.25,1.25v96.4a0,0,0,0,1,0,0H138a0,0,0,0,1,0,0V100A1.25,1.25,0,0,1,139.23,98.75Z"/></g><g id="obalka"><path class="cls-3" d="M182,155.11c0,.13,6.95,5.34,15.5,11.6s24.36,17.88,35.19,25.86l19.76,14.49.71-.5c2.23-1.45,68.1-51.1,68.21-51.37s-14-.3-69.63-.3C211.43,154.89,182,155,182,155.11Z" transform="translate(-36.04 -47.36)"/><path class="cls-3" d="M182,196v39.46H321.41V156.55l-4.55,4c-2.54,2.23-12.72,11.23-22.65,20s-18.09,15.95-18.09,16,9.36,8,20.82,17.7c19.7,16.69,24.39,20.72,22.83,19.56-.87-.65-45.26-34.15-45.89-34.64-.43-.35-1.17.25-8.73,6.92-4.56,4-9.28,8.13-10.47,9.17l-2.24,1.91-10.56-9.08c-5.81-5-10.64-9.1-10.78-9.1S198.41,223,186.16,232.11a15.08,15.08,0,0,1-2.26,1.55c0-.07,10-8.38,22.24-18.44s22.23-18.44,22.23-18.54-35.63-31-44.8-38.8L182,156.55Z" transform="translate(-36.04 -47.36)"/></g><g id="_Group_5" data-name="&lt;Group&gt;"><path class="cls-11" d="M338.43,248.12H165a26.36,26.36,0,0,0,18.6,7.68H319.83a26.36,26.36,0,0,0,18.6-7.68Z" transform="translate(-36.04 -47.36)"/></g><g id="_Group_6" data-name="&lt;Group&gt;"><rect class="cls-14" x="128.92" y="195.89" width="173.46" height="4.88"/></g><g id="_Group_7" data-name="&lt;Group&gt;"><path class="cls-13" d="M262.44,247H241a1.33,1.33,0,0,1-1.32-1.33h0a1.32,1.32,0,0,1,1.32-1.32h21.48a1.32,1.32,0,0,1,1.32,1.32h0A1.33,1.33,0,0,1,262.44,247Z" transform="translate(-36.04 -47.36)"/></g><line class="cls-2" x1="145.94" y1="188.5" x2="285.37" y2="188.5"/></g></g><g id="Layer_11" data-name="Layer 11"><line class="cls-2" x1="29.19" y1="208.36" x2="160.37" y2="208.36"/><path class="cls-2" d="M44.24,255.71" transform="translate(-36.04 -47.36)"/><path class="cls-2" d="M62.24,255.71" transform="translate(-36.04 -47.36)"/><line class="cls-2" x1="270.6" y1="208.94" x2="410.19" y2="208.94"/><path class="cls-2" d="M451.74,255.71" transform="translate(-36.04 -47.36)"/><path class="cls-2" d="M457.74,255.71" transform="translate(-36.04 -47.36)"/></g><g id="PrestaShop"><g id="Calque_2" data-name="Calque 2"><g id="_Group_8" data-name="&lt;Group&gt;"><g id="_Group_9" data-name="&lt;Group&gt;"><path id="_Compound_Path_3" data-name="&lt;Compound Path&gt;" class="cls-15" d="M235.05,195.91a2.74,2.74,0,0,1,0-.35,2.91,2.91,0,0,1,1-2.35,3.33,3.33,0,0,1,2.2-.84,2.3,2.3,0,0,1,2.22,1.21Zm7.72-1.43a3.63,3.63,0,0,0-1.33-2.88,5,5,0,0,0-3.32-1.11,5.22,5.22,0,0,0-2.39.56,4.73,4.73,0,0,0-1.91,1.74,4.88,4.88,0,0,0-.77,2.73,4.73,4.73,0,0,0,1.49,3.63,5,5,0,0,0,3.55,1.37,5.52,5.52,0,0,0,4.1-1.8L241,197.39a3.37,3.37,0,0,1-2.7,1.28,3.16,3.16,0,0,1-2.59-1.17l7.1-3Z" transform="translate(-36.04 -47.36)"/><path id="_Path_6" data-name="&lt;Path&gt;" class="cls-15" d="M230.7,191.09a4.2,4.2,0,0,0-1.34,1.5v-2h-2.05v9.74h2.05V196.2a4.19,4.19,0,0,1,.77-2.66,2.72,2.72,0,0,1,2.28-1h.11l0-2.07a3.23,3.23,0,0,0-1.8.6" transform="translate(-36.04 -47.36)"/><path id="_Path_7" data-name="&lt;Path&gt;" class="cls-15" d="M250.12,195.41a5.47,5.47,0,0,0-.93-.51c-.28-.12-.58-.23-.88-.33s-.66-.2-1.06-.29a4.87,4.87,0,0,1-.92-.31.73.73,0,0,1-.48-.7.89.89,0,0,1,.46-.8,2.44,2.44,0,0,1,1.19-.26,4.53,4.53,0,0,1,2.58.79l.77-1.52a5.68,5.68,0,0,0-3.18-1,4.35,4.35,0,0,0-2.74.81,2.62,2.62,0,0,0-1.05,2.17c0,1.28,1,2.2,3,2.75l.22.07c1.29.39,1.94.83,1.94,1.32a1,1,0,0,1-.41.81,1.68,1.68,0,0,1-1.1.32,5.47,5.47,0,0,1-3.29-1.28l-1,1.59a6.43,6.43,0,0,0,2,1.08,6.87,6.87,0,0,0,2.21.39,3.89,3.89,0,0,0,2.58-.84,2.73,2.73,0,0,0,1-2.22,2.29,2.29,0,0,0-1-2.05" transform="translate(-36.04 -47.36)"/><path id="_Compound_Path_4" data-name="&lt;Compound Path&gt;" class="cls-15" d="M223,194a3.31,3.31,0,0,1-2.44.69H218v-5.12h2.2a4.71,4.71,0,0,1,2.58.55,2.07,2.07,0,0,1,.82,1.87,2.76,2.76,0,0,1-.65,2m1.53-5.28a6.58,6.58,0,0,0-4.24-1.11h-4.4v12.79H218v-3.75h2.27a6.71,6.71,0,0,0,4.19-1.08,4.11,4.11,0,0,0,1.36-3.4,4.26,4.26,0,0,0-1.34-3.45" transform="translate(-36.04 -47.36)"/><path id="_Path_8" data-name="&lt;Path&gt;" class="cls-15" d="M255.9,198.74a1.3,1.3,0,0,1-1-.41,1.57,1.57,0,0,1-.37-1.11v-4.94h2.57v-1.65h-2.57v-3h-2v9.59a3.25,3.25,0,0,0,.93,2.44,3,3,0,0,0,2.23.91,3.53,3.53,0,0,0,2.39-1l-.84-1.45a1.76,1.76,0,0,1-1.27.64" transform="translate(-36.04 -47.36)"/><path id="_Compound_Path_5" data-name="&lt;Compound Path&gt;" class="cls-15" d="M265.29,197.82a2.75,2.75,0,0,1-2.05.89,2.94,2.94,0,0,1-2.11-.88,3.06,3.06,0,0,1-.9-2.28,3.32,3.32,0,0,1,.88-2.34,2.81,2.81,0,0,1,2.11-.93,2.71,2.71,0,0,1,2.07.93,3.37,3.37,0,0,1,.84,2.33,3.18,3.18,0,0,1-.84,2.28m.8-5.5a3.71,3.71,0,0,0-3.17-1.83,4.65,4.65,0,0,0-3.33,1.35,4.81,4.81,0,0,0-1.41,3.63,5,5,0,0,0,1.38,3.66,4.4,4.4,0,0,0,3.22,1.39,4,4,0,0,0,1.82-.45,3.94,3.94,0,0,0,1.49-1.29v1.59h2.05v-9.74h-2.05v1.69Z" transform="translate(-36.04 -47.36)"/><path id="_Compound_Path_6" data-name="&lt;Compound Path&gt;" class="cls-16" d="M298.53,197.8a3.18,3.18,0,0,1-4.41,0,3.46,3.46,0,0,1,0-4.59,3.18,3.18,0,0,1,4.41,0,3.46,3.46,0,0,1,0,4.59m-2.21-7.31a5,5,0,0,0-3.66,1.45,5.07,5.07,0,0,0,0,7.12,5.32,5.32,0,0,0,7.32,0,5,5,0,0,0,0-7.12,5,5,0,0,0-3.66-1.45" transform="translate(-36.04 -47.36)"/><path id="_Compound_Path_7" data-name="&lt;Compound Path&gt;" class="cls-16" d="M309.66,197.81a2.94,2.94,0,0,1-2.1.88,2.72,2.72,0,0,1-2.05-.89,3.14,3.14,0,0,1-.85-2.28,3.25,3.25,0,0,1,.85-2.31,2.67,2.67,0,0,1,2.06-.93,2.81,2.81,0,0,1,2.11.93,3.21,3.21,0,0,1,.88,2.32,3.06,3.06,0,0,1-.9,2.28m1.56-6a4.65,4.65,0,0,0-3.35-1.35,3.64,3.64,0,0,0-3.17,1.85v-1.71h-2.05v13.29h2.05v-5a4.29,4.29,0,0,0,6.53.2,5,5,0,0,0,1.38-3.66,4.85,4.85,0,0,0-1.39-3.61" transform="translate(-36.04 -47.36)"/><path id="_Path_9" data-name="&lt;Path&gt;" class="cls-16" d="M286.42,190.49a3.77,3.77,0,0,0-1.91.51,3.29,3.29,0,0,0-1.33,1.41v-5.6h-2.05v13.56h2.05V195.1A2.64,2.64,0,0,1,284,193a2.69,2.69,0,0,1,1.85-.7c1.49,0,2.23.89,2.23,2.69v5.34h2.05v-6a4,4,0,0,0-1-2.91,3.64,3.64,0,0,0-2.67-1" transform="translate(-36.04 -47.36)"/><path id="_Path_10" data-name="&lt;Path&gt;" class="cls-16" d="M278.68,194.22a7,7,0,0,0-3-1.33,9.32,9.32,0,0,1-2.57-.89,1.35,1.35,0,0,1-.61-1.19,1.26,1.26,0,0,1,.61-1.16,2.79,2.79,0,0,1,1.54-.39,6,6,0,0,1,1.92.33,4.34,4.34,0,0,1,1.53.84l1.16-1.63a6.55,6.55,0,0,0-2.09-1.13,7.64,7.64,0,0,0-2.43-.4,5.22,5.22,0,0,0-3.2,1,3.2,3.2,0,0,0-1.29,2.73,3.09,3.09,0,0,0,1.14,2.64,4.84,4.84,0,0,0,1.3.74,16.32,16.32,0,0,0,2.14.62,6.18,6.18,0,0,1,2,.75,1.34,1.34,0,0,1,.58,1.16,1.4,1.4,0,0,1-.61,1.19,2.75,2.75,0,0,1-1.66.44,6.13,6.13,0,0,1-4-1.68l-1.35,1.63a7.77,7.77,0,0,0,5.33,2.07,5,5,0,0,0,3.31-1.05,3.35,3.35,0,0,0,1.26-2.71,3.16,3.16,0,0,0-1-2.54" transform="translate(-36.04 -47.36)"/></g><path id="_Path_11" data-name="&lt;Path&gt;" class="cls-17" d="M197.24,199.29l.48-.2.56-.19c.23-.07.47-.13.71-.18a7.83,7.83,0,0,1,1-.15c-.18.58-.39,1.15-.61,1.72,0,.11,0,.22,0,.34a6.77,6.77,0,0,1,2.74,0c0-.12,0-.23,0-.34-.22-.57-.43-1.14-.61-1.72a7.83,7.83,0,0,1,1,.15c.24.05.48.11.71.18l.56.19.48.2a8.73,8.73,0,0,1,3,2.21,10,10,0,1,0-13,0A8.73,8.73,0,0,1,197.24,199.29Z" transform="translate(-36.04 -47.36)"/><path id="_Path_12" data-name="&lt;Path&gt;" class="cls-18" d="M197.9,201.09a6.62,6.62,0,0,1,1.47-.46c0-.12,0-.23,0-.34.22-.57.43-1.14.61-1.72a7.83,7.83,0,0,0-1,.15c-.24.05-.48.11-.71.18l-.56.19.73.18Z" transform="translate(-36.04 -47.36)"/><path id="_Path_13" data-name="&lt;Path&gt;" class="cls-18" d="M196.19,202.16c0-.18,0-.37,0-.56a.2.2,0,0,1,.2-.2h.18l.64-2.11a8.73,8.73,0,0,0-3,2.21,9.76,9.76,0,0,0,1.5,1.07C195.89,202.43,196,202.29,196.19,202.16Z" transform="translate(-36.04 -47.36)"/><path id="_Path_14" data-name="&lt;Path&gt;" class="cls-18" d="M204.24,199.29l.64,2.11h.18a.2.2,0,0,1,.2.2,5.12,5.12,0,0,0,0,.56c.16.13.3.27.45.41a9.76,9.76,0,0,0,1.5-1.07A8.73,8.73,0,0,0,204.24,199.29Z" transform="translate(-36.04 -47.36)"/><path id="_Path_15" data-name="&lt;Path&gt;" class="cls-18" d="M203,199.27l.73-.18-.56-.19c-.23-.07-.47-.13-.71-.18a7.83,7.83,0,0,0-1-.15c.18.58.39,1.15.61,1.72,0,.11,0,.22,0,.34a6.62,6.62,0,0,1,1.47.46Z" transform="translate(-36.04 -47.36)"/><path id="_Path_16" data-name="&lt;Path&gt;" d="M200.74,201.4h1.4a5,5,0,0,1,0-.77,6.77,6.77,0,0,0-2.74,0,5,5,0,0,1,0,.77Z" transform="translate(-36.04 -47.36)"/><path id="_Path_17" data-name="&lt;Path&gt;" d="M195.74,202.57l.35.2a4.09,4.09,0,0,0,.1-.61C196,202.29,195.89,202.43,195.74,202.57Z" transform="translate(-36.04 -47.36)"/><path id="_Path_18" data-name="&lt;Path&gt;" d="M197.8,201.4h1.54a5,5,0,0,0,0-.77,6.62,6.62,0,0,0-1.47.46Z" transform="translate(-36.04 -47.36)"/><path id="_Path_19" data-name="&lt;Path&gt;" d="M205.29,202.16a4.09,4.09,0,0,0,.1.61l.35-.2C205.59,202.43,205.45,202.29,205.29,202.16Z" transform="translate(-36.04 -47.36)"/><path id="_Path_20" data-name="&lt;Path&gt;" d="M203.68,201.4l-.1-.31a6.62,6.62,0,0,0-1.47-.46,5,5,0,0,0,0,.77Z" transform="translate(-36.04 -47.36)"/><path id="_Path_21" data-name="&lt;Path&gt;" class="cls-19" d="M197.8,201.4l.1-.31.55-1.82-.73-.18-.48.2-.64,2.11h1.2Z" transform="translate(-36.04 -47.36)"/><path id="_Path_22" data-name="&lt;Path&gt;" class="cls-19" d="M203.58,201.09l.1.31h1.2l-.64-2.11-.48-.2-.73.18Z" transform="translate(-36.04 -47.36)"/><path id="_Path_23" data-name="&lt;Path&gt;" class="cls-20" d="M196.62,201.82h0Z" transform="translate(-36.04 -47.36)"/><path id="_Path_24" data-name="&lt;Path&gt;" class="cls-20" d="M200.74,201.81h-4.12a5.39,5.39,0,0,1-.15,1.14,9.86,9.86,0,0,0,4.27,1Z" transform="translate(-36.04 -47.36)"/><path id="_Path_25" data-name="&lt;Path&gt;" class="cls-19" d="M204.85,201.81h0Z" transform="translate(-36.04 -47.36)"/><path id="_Path_26" data-name="&lt;Path&gt;" class="cls-19" d="M204.84,201.81h-4.1v2.11a9.86,9.86,0,0,0,4.27-1,5.39,5.39,0,0,1-.15-1.14Z" transform="translate(-36.04 -47.36)"/><rect id="_Path_27" data-name="&lt;Path&gt;" class="cls-21" x="164.7" y="154.24" height="0.21"/><path id="_Path_28" data-name="&lt;Path&gt;" class="cls-22" d="M205.29,202.16a5.12,5.12,0,0,1,0-.56.2.2,0,0,0-.2-.2h-8.64a.2.2,0,0,0-.2.2c0,.19,0,.38,0,.56a4.09,4.09,0,0,1-.1.61l.38.19a5.39,5.39,0,0,0,.15-1.14h8.23A6.14,6.14,0,0,0,205,203l.38-.19A4.09,4.09,0,0,1,205.29,202.16Z" transform="translate(-36.04 -47.36)"/><g id="_Group_10" data-name="&lt;Group&gt;"><path id="_Path_29" data-name="&lt;Path&gt;" class="cls-23" d="M204.09,192.46h0a9.23,9.23,0,0,1,.34,1.09v.08s0,.07,0,.11l0-.18a8.86,8.86,0,0,0-.34-1.11h0Z" transform="translate(-36.04 -47.36)"/><path id="_Path_30" data-name="&lt;Path&gt;" class="cls-23" d="M207,194.71h0Z" transform="translate(-36.04 -47.36)"/><path id="_Path_31" data-name="&lt;Path&gt;" class="cls-23" d="M207.05,194.66l0,0Z" transform="translate(-36.04 -47.36)"/><path id="_Path_32" data-name="&lt;Path&gt;" class="cls-23" d="M203.79,192.2a6,6,0,0,0-.72-.52h0A6,6,0,0,1,203.79,192.2Z" transform="translate(-36.04 -47.36)"/><path id="_Path_33" data-name="&lt;Path&gt;" class="cls-23" d="M206.1,194.59Z" transform="translate(-36.04 -47.36)"/><path id="_Path_34" data-name="&lt;Path&gt;" class="cls-23" d="M206.52,195.11l0,0Z" transform="translate(-36.04 -47.36)"/><path id="_Path_35" data-name="&lt;Path&gt;" class="cls-23" d="M204.4,193.76a.31.31,0,0,0,0,.08A.31.31,0,0,1,204.4,193.76Z" transform="translate(-36.04 -47.36)"/><path id="_Path_36" data-name="&lt;Path&gt;" class="cls-23" d="M203.42,197.39a2.75,2.75,0,0,0-.31.72,2.75,2.75,0,0,1,.31-.72l.15-.25-.15.25Z" transform="translate(-36.04 -47.36)"/><path id="_Path_37" data-name="&lt;Path&gt;" class="cls-23" d="M204.09,192.46l0-.05h0l0,.05.18.16Z" transform="translate(-36.04 -47.36)"/><path id="_Path_38" data-name="&lt;Path&gt;" class="cls-23" d="M202.11,193.77Z" transform="translate(-36.04 -47.36)"/><path id="_Path_39" data-name="&lt;Path&gt;" class="cls-23" d="M202,193.6Z" transform="translate(-36.04 -47.36)"/><path id="_Path_40" data-name="&lt;Path&gt;" class="cls-23" d="M202.71,191.47h0Z" transform="translate(-36.04 -47.36)"/><path id="_Path_41" data-name="&lt;Path&gt;" class="cls-23" d="M202.76,191.5l0,0Z" transform="translate(-36.04 -47.36)"/><path id="_Path_42" data-name="&lt;Path&gt;" class="cls-23" d="M203.09,192.3v0Z" transform="translate(-36.04 -47.36)"/><path id="_Path_43" data-name="&lt;Path&gt;" class="cls-23" d="M202.08,193.68Z" transform="translate(-36.04 -47.36)"/><path id="_Path_44" data-name="&lt;Path&gt;" class="cls-23" d="M206.92,195.64l0,0Z" transform="translate(-36.04 -47.36)"/><path id="_Path_45" data-name="&lt;Path&gt;" class="cls-23" d="M203.09,192.62c0,.1,0,.21,0,.31C203.08,192.83,203.09,192.72,203.09,192.62Z" transform="translate(-36.04 -47.36)"/><path id="_Path_46" data-name="&lt;Path&gt;" class="cls-23" d="M202.14,193.86Z" transform="translate(-36.04 -47.36)"/><path id="_Path_47" data-name="&lt;Path&gt;" class="cls-23" d="M203.05,191.67l-.22-.13Z" transform="translate(-36.04 -47.36)"/><path id="_Path_48" data-name="&lt;Path&gt;" class="cls-23" d="M202.83,191.54l-.07,0Z" transform="translate(-36.04 -47.36)"/><path id="_Path_49" data-name="&lt;Path&gt;" class="cls-23" d="M203.06,191.67Z" transform="translate(-36.04 -47.36)"/><path id="_Path_50" data-name="&lt;Path&gt;" class="cls-23" d="M207.25,194.09v0h0v0A0,0,0,0,1,207.25,194.09Z" transform="translate(-36.04 -47.36)"/><path id="_Path_51" data-name="&lt;Path&gt;" class="cls-23" d="M205.63,194l0,0h0l0,0Z" transform="translate(-36.04 -47.36)"/><path id="_Path_52" data-name="&lt;Path&gt;" class="cls-23" d="M204.27,192.62l.39.37Z" transform="translate(-36.04 -47.36)"/><path id="_Path_53" data-name="&lt;Path&gt;" class="cls-23" d="M206.86,193.38h0Z" transform="translate(-36.04 -47.36)"/><path id="_Path_54" data-name="&lt;Path&gt;" class="cls-23" d="M206.47,193.87v0Z" transform="translate(-36.04 -47.36)"/><path id="_Path_55" data-name="&lt;Path&gt;" class="cls-23" d="M207,193.4l.05,0Z" transform="translate(-36.04 -47.36)"/><path id="_Path_56" data-name="&lt;Path&gt;" class="cls-23" d="M207.1,193.53l0,0Z" transform="translate(-36.04 -47.36)"/><path id="_Path_57" data-name="&lt;Path&gt;" class="cls-23" d="M207.25,193.92Z" transform="translate(-36.04 -47.36)"/><path id="_Path_58" data-name="&lt;Path&gt;" class="cls-23" d="M207.25,194.21Z" transform="translate(-36.04 -47.36)"/><path id="_Path_59" data-name="&lt;Path&gt;" class="cls-23" d="M206.6,193.55v0Z" transform="translate(-36.04 -47.36)"/><path id="_Path_60" data-name="&lt;Path&gt;" class="cls-23" d="M206.78,193.39h0Z" transform="translate(-36.04 -47.36)"/><path id="_Path_61" data-name="&lt;Path&gt;" class="cls-23" d="M205,193.36l-.19-.19Z" transform="translate(-36.04 -47.36)"/><path id="_Path_62" data-name="&lt;Path&gt;" class="cls-23" d="M206.86,191.2h0v.93l-.36,1.62h0l.36-1.62v-.93Z" transform="translate(-36.04 -47.36)"/><path id="_Path_63" data-name="&lt;Path&gt;" class="cls-23" d="M205.35,193.72l-.1-.11Z" transform="translate(-36.04 -47.36)"/><path id="_Path_64" data-name="&lt;Path&gt;" class="cls-23" d="M207.21,193.75v0h0v0Z" transform="translate(-36.04 -47.36)"/><path id="_Path_65" data-name="&lt;Path&gt;" class="cls-23" d="M206.46,194.06h0v0Z" transform="translate(-36.04 -47.36)"/><path id="_Path_66" data-name="&lt;Path&gt;" class="cls-23" d="M206.72,193.42l0,0Z" transform="translate(-36.04 -47.36)"/><path id="_Path_67" data-name="&lt;Path&gt;" class="cls-23" d="M206.64,193.49l.05-.05Z" transform="translate(-36.04 -47.36)"/><path id="_Path_68" data-name="&lt;Path&gt;" class="cls-23" d="M207.22,194.34h0l0,.1,0-.1Z" transform="translate(-36.04 -47.36)"/><path id="_Path_69" data-name="&lt;Path&gt;" class="cls-23" d="M195.1,193.76a.43.43,0,0,1,0-.07A.43.43,0,0,0,195.1,193.76Z" transform="translate(-36.04 -47.36)"/><path id="_Path_70" data-name="&lt;Path&gt;" class="cls-23" d="M207,193.44l0,.05Z" transform="translate(-36.04 -47.36)"/><path id="_Path_71" data-name="&lt;Path&gt;" class="cls-23" d="M195.38,193.34l0,0Z" transform="translate(-36.04 -47.36)"/><path id="_Path_72" data-name="&lt;Path&gt;" class="cls-23" d="M202.16,194.06Z" transform="translate(-36.04 -47.36)"/><path id="_Path_73" data-name="&lt;Path&gt;" class="cls-23" d="M194.67,194.55a.54.54,0,0,0,0,.11A.54.54,0,0,1,194.67,194.55Z" transform="translate(-36.04 -47.36)"/><path id="_Path_74" data-name="&lt;Path&gt;" class="cls-23" d="M194.45,195.06v0Z" transform="translate(-36.04 -47.36)"/><polygon id="_Path_75" data-name="&lt;Path&gt;" class="cls-23" points="171.06 144.08 171.06 144.08 171.06 144.08 171.06 144.08"/><path id="_Path_76" data-name="&lt;Path&gt;" class="cls-23" d="M196.42,192.23h0Z" transform="translate(-36.04 -47.36)"/><path id="_Path_77" data-name="&lt;Path&gt;" class="cls-23" d="M196,192.59l.06-.06Z" transform="translate(-36.04 -47.36)"/><path id="_Path_78" data-name="&lt;Path&gt;" class="cls-23" d="M195.68,193l.06-.07Z" transform="translate(-36.04 -47.36)"/><path id="_Path_79" data-name="&lt;Path&gt;" class="cls-23" d="M207.21,193.75l-.35-1.62Z" transform="translate(-36.04 -47.36)"/><path id="_Path_80" data-name="&lt;Path&gt;" class="cls-23" d="M201,195h0Z" transform="translate(-36.04 -47.36)"/><path id="_Path_81" data-name="&lt;Path&gt;" class="cls-23" d="M201.13,195h0Z" transform="translate(-36.04 -47.36)"/><path id="_Path_82" data-name="&lt;Path&gt;" class="cls-23" d="M194.89,194.12a.75.75,0,0,0-.07.12A.75.75,0,0,1,194.89,194.12Z" transform="translate(-36.04 -47.36)"/><path id="_Path_83" data-name="&lt;Path&gt;" class="cls-23" d="M200.77,194.88Z" transform="translate(-36.04 -47.36)"/><path id="_Path_84" data-name="&lt;Path&gt;" class="cls-23" d="M200.94,195h0Z" transform="translate(-36.04 -47.36)"/><path id="_Path_85" data-name="&lt;Path&gt;" class="cls-23" d="M200.85,194.92Z" transform="translate(-36.04 -47.36)"/><path id="_Path_86" data-name="&lt;Path&gt;" class="cls-23" d="M200.36,194.42Z" transform="translate(-36.04 -47.36)"/><path id="_Path_87" data-name="&lt;Path&gt;" class="cls-23" d="M200.31,193.85v0Z" transform="translate(-36.04 -47.36)"/><path id="_Path_88" data-name="&lt;Path&gt;" class="cls-23" d="M200.41,193.6Z" transform="translate(-36.04 -47.36)"/><path id="_Path_89" data-name="&lt;Path&gt;" class="cls-23" d="M200.72,193.27Z" transform="translate(-36.04 -47.36)"/><path id="_Path_90" data-name="&lt;Path&gt;" class="cls-23" d="M200.34,193.76v0Z" transform="translate(-36.04 -47.36)"/><path id="_Path_91" data-name="&lt;Path&gt;" class="cls-23" d="M200.37,193.68h0Z" transform="translate(-36.04 -47.36)"/><path id="_Path_92" data-name="&lt;Path&gt;" class="cls-23" d="M201.41,193.14h0Z" transform="translate(-36.04 -47.36)"/><path id="_Path_93" data-name="&lt;Path&gt;" class="cls-23" d="M201.58,193.2h0Z" transform="translate(-36.04 -47.36)"/><path id="_Path_94" data-name="&lt;Path&gt;" class="cls-23" d="M200.88,193.19h0Z" transform="translate(-36.04 -47.36)"/><path id="_Path_95" data-name="&lt;Path&gt;" class="cls-23" d="M201.05,193.14h0Z" transform="translate(-36.04 -47.36)"/><path id="_Path_96" data-name="&lt;Path&gt;" class="cls-23" d="M202.16,194Z" transform="translate(-36.04 -47.36)"/><path id="_Path_97" data-name="&lt;Path&gt;" class="cls-23" d="M201.23,191.05v0Z" transform="translate(-36.04 -47.36)"/><path id="_Path_98" data-name="&lt;Path&gt;" class="cls-23" d="M201.23,191v0Z" transform="translate(-36.04 -47.36)"/><path id="_Path_99" data-name="&lt;Path&gt;" class="cls-23" d="M201.23,190.94Z" transform="translate(-36.04 -47.36)"/><path id="_Path_100" data-name="&lt;Path&gt;" class="cls-23" d="M201.23,191.17h0v0Z" transform="translate(-36.04 -47.36)"/><path id="_Path_101" data-name="&lt;Path&gt;" class="cls-23" d="M207.13,194.56l0,.05Z" transform="translate(-36.04 -47.36)"/><path id="_Path_102" data-name="&lt;Path&gt;" class="cls-23" d="M200.3,193.94v0Z" transform="translate(-36.04 -47.36)"/><path id="_Path_103" data-name="&lt;Path&gt;" class="cls-23" d="M200.31,194.24h0Z" transform="translate(-36.04 -47.36)"/><path id="_Path_104" data-name="&lt;Path&gt;" class="cls-23" d="M207.18,194.46l0,.07Z" transform="translate(-36.04 -47.36)"/><path id="_Path_105" data-name="&lt;Path&gt;" class="cls-18" d="M203.59,200l-.1-.12.1.12Z" transform="translate(-36.04 -47.36)"/><path id="_Path_106" data-name="&lt;Path&gt;" class="cls-19" d="M203.82,200.2h0a2.39,2.39,0,0,1-.23-.22h0A2.39,2.39,0,0,0,203.82,200.2Z" transform="translate(-36.04 -47.36)"/><polygon id="_Path_107" data-name="&lt;Path&gt;" class="cls-3" points="170.81 143.85 170.81 143.85 170.81 143.85 170.81 143.85 170.81 143.85"/><path id="_Path_108" data-name="&lt;Path&gt;" class="cls-3" d="M207.26,194.07h0Z" transform="translate(-36.04 -47.36)"/><path id="_Path_109" data-name="&lt;Path&gt;" class="cls-24" d="M207.36,191.76h0a2.66,2.66,0,0,0-.26-.31h0l-.12-.13,0,0-.07-.07h0v.93l.35,1.62h0v0l.25.27h.26V194h0a7.17,7.17,0,0,0-.35-2.19h0Z" transform="translate(-36.04 -47.36)"/><path id="_Path_110" data-name="&lt;Path&gt;" class="cls-24" d="M207.26,194.06Z" transform="translate(-36.04 -47.36)"/><path id="_Path_111" data-name="&lt;Path&gt;" class="cls-25" d="M207.25,193.91h0v.14h0v.14h0a.5.5,0,0,1,0,.12h0l.25-.28-.25-.27h0Z" transform="translate(-36.04 -47.36)"/><path id="_Compound_Path_8" data-name="&lt;Compound Path&gt;" d="M207.24,194.22h0V194a.49.49,0,0,1,0-.12h0l0-.12v0a.75.75,0,0,0-.09-.2l0,0,0,0,0-.05,0,0-.05,0h-.19l0,0,0,0-.05.05,0,0v0a.93.93,0,0,0-.1.2h0l0,.11v0a.57.57,0,0,0,0,.13v0h0c0,.38.18.69.4.69a.23.23,0,0,0,.11,0h0l.05,0,0,0,0,0,0-.05,0,0,0-.07v0l0-.1A.5.5,0,0,0,207.24,194.22Zm-.37-.25c-.08,0-.15-.11-.15-.25s.07-.26.15-.26.15.11.15.26S207,194,206.87,194Z" transform="translate(-36.04 -47.36)"/><ellipse id="_Path_112" data-name="&lt;Path&gt;" class="cls-3" cx="170.83" cy="146.36" rx="0.15" ry="0.26"/><path id="_Path_113" data-name="&lt;Path&gt;" class="cls-26" d="M206.5,193.75h0a.75.75,0,0,1,.1-.2v0l0,0,.05-.05,0,0,0,0H207l.05,0,0,0,0,.05,0,0,0,0a.75.75,0,0,1,.09.2h0l-.35-1.62-.36,1.62Z" transform="translate(-36.04 -47.36)"/><path id="_Compound_Path_9" data-name="&lt;Compound Path&gt;" d="M202.16,194.05V194h0s0-.06,0-.09h0l0-.09h0l0-.09h0l0-.08h0a1.18,1.18,0,0,0-.17-.22.79.79,0,0,0-.29-.18h0l-.17-.05H201l-.16.05h0l-.15.08h0l-.14.11h0a1.18,1.18,0,0,0-.17.22h0a.3.3,0,0,0,0,.08h0l0,.07v0a.64.64,0,0,0,0,.07v0a.17.17,0,0,0,0,.07v.12a.52.52,0,0,0,0,.18h0a1.09,1.09,0,0,0,.05.17h0a.81.81,0,0,0,.19.29.92.92,0,0,0,.22.17h0l.08,0h0l.08,0h0l.07,0h.21a1.11,1.11,0,0,0,.37-.07l.16-.09a1,1,0,0,0,.25-.25,1.29,1.29,0,0,0,.09-.16.9.9,0,0,0,.07-.37h0Zm-.93-.11a.36.36,0,0,1-.36-.35.36.36,0,0,1,.71,0A.35.35,0,0,1,201.23,193.94Z" transform="translate(-36.04 -47.36)"/><path id="_Path_114" data-name="&lt;Path&gt;" class="cls-3" d="M201.23,193.24a.35.35,0,0,1,.35.35.36.36,0,0,1-.71,0A.35.35,0,0,1,201.23,193.24Z" transform="translate(-36.04 -47.36)"/><path id="_Path_115" data-name="&lt;Path&gt;" class="cls-24" d="M200.58,193.38h0l.65-2v-.47h0a5.8,5.8,0,0,0-1.11-.12l-.37,0h-.06a5.51,5.51,0,0,0-1.87.49,5.87,5.87,0,0,0-1.4.9h0c-.11.09-.22.2-.32.3l-.06.06c-.1.1-.2.2-.29.31l-.06.07c-.1.11-.19.23-.28.34l0,0-.24.35a.43.43,0,0,0,0,.07l-.18.3h2.94Z" transform="translate(-36.04 -47.36)"/><path id="_Path_116" data-name="&lt;Path&gt;" class="cls-27" d="M203.06,193.16c0-.08,0-.15,0-.23s0-.21,0-.31v-.32c0-.2,0-.41,0-.62h0l-.22-.13h0l-.07,0h0l0,0h0l-.41-.2a7.86,7.86,0,0,0-1-.32v.22h0v.24l.64,2h0a1.18,1.18,0,0,1,.17.22h0l0,.08h0l0,.09h0l0,.09h0s0,.06,0,.09h0v.1H203a8.62,8.62,0,0,0,.11-.87Z" transform="translate(-36.04 -47.36)"/><path id="_Path_117" data-name="&lt;Path&gt;" class="cls-28" d="M204.09,192.46h0Z" transform="translate(-36.04 -47.36)"/><path id="_Path_118" data-name="&lt;Path&gt;" class="cls-28" d="M202.17,196.87c.18-.17.34-.34.5-.51l.28-.29a6.11,6.11,0,0,0,1.43-2.23.31.31,0,0,1,0-.08h0s0-.07,0-.11v-.08a9.85,9.85,0,0,0-.34-1.09h0l-.08-.07-.22-.2a6,6,0,0,0-.72-.52h0c0,.21,0,.42,0,.62v.32c0,.1,0,.21,0,.31s0,.15,0,.23v0a8.08,8.08,0,0,1-.11.86l-.09.44a14.78,14.78,0,0,1-.91,2.22c-.08.19-.16.38-.23.58l0,.06c.11-.1.19-.2.26-.26Z" transform="translate(-36.04 -47.36)"/><path id="_Path_119" data-name="&lt;Path&gt;" class="cls-26" d="M200.58,193.38h0l.14-.11h0l.15-.08h0l.16-.05h.37l.17.05h0a.81.81,0,0,1,.29.19h0l-.64-2Z" transform="translate(-36.04 -47.36)"/><path id="_Path_120" data-name="&lt;Path&gt;" class="cls-25" d="M200.36,194.42a1.09,1.09,0,0,1-.05-.17h0a.5.5,0,0,1,0-.18v-.12a.17.17,0,0,1,0-.07v0a.19.19,0,0,0,0-.07v0l0-.07h0a.3.3,0,0,1,0-.08h0a1.18,1.18,0,0,1,.17-.22h0l-2.72.67h0l2.69.66a.81.81,0,0,1-.19-.29Z" transform="translate(-36.04 -47.36)"/><path id="_Path_121" data-name="&lt;Path&gt;" class="cls-27" d="M206.47,193.91v0l0-.11h0l.36-1.62v-.93a1.45,1.45,0,0,0-.93-.37,1.65,1.65,0,0,0-1.07.5,4,4,0,0,0-.74,1.08l0,.05.18.16.39.37.17.18.19.19.23.25.1.11.28.31h0l0,0h.8v0A.57.57,0,0,1,206.47,193.91Z" transform="translate(-36.04 -47.36)"/><path id="_Path_122" data-name="&lt;Path&gt;" class="cls-27" d="M204.09,192.47h0Z" transform="translate(-36.04 -47.36)"/><path id="_Path_123" data-name="&lt;Path&gt;" class="cls-18" d="M194.44,195.08v0c.05-.14.11-.27.17-.4a.54.54,0,0,1,0-.11l.15-.31a.75.75,0,0,1,.07-.12l0-.07.18-.29a.43.43,0,0,1,0-.07l.24-.35,0,0,.27-.34.06-.07.3-.31.06-.06c.1-.1.21-.21.32-.3h0a3.61,3.61,0,0,1,3.44-2.59,3.55,3.55,0,0,1,1.85.53,3.74,3.74,0,0,1,1.34,1.45h0a.08.08,0,0,1,0,0h0a6,6,0,0,1,.72.52l.22.2.08.07h0l0-.05c.23-1.44.87-2.48,1.61-2.48.57,0,1.07.59,1.38,1.5h0c.09.09.17.2.26.31h0v0h0v-.05a7,7,0,0,0-13.24,4.41h0c0-.2.1-.4.16-.61S194.38,195.23,194.44,195.08Z" transform="translate(-36.04 -47.36)"/><path id="_Path_124" data-name="&lt;Path&gt;" class="cls-3" d="M207.47,194.06l-.25.28h0l0,.1v0l0,.07,0,0,0,.05,0,0,0,0-.05,0h0a.23.23,0,0,1-.11,0c-.22,0-.4-.31-.4-.69h-.81l.45.53h0l.42.52,0,0c.13.16.26.33.38.5l0,0,.4.54h0a7,7,0,0,0,.37-2.16h-.26Z" transform="translate(-36.04 -47.36)"/><path id="_Path_125" data-name="&lt;Path&gt;" d="M199.69,190.84h.06l.37,0a5.8,5.8,0,0,1,1.11.12h0v0a7.86,7.86,0,0,1,1,.32l.41.2h0l0,0h0l.07,0h0l.22.13h0l0,0h0a3.74,3.74,0,0,0-1.34-1.45,3.55,3.55,0,0,0-1.85-.53,3.61,3.61,0,0,0-3.44,2.59,6.14,6.14,0,0,1,1.41-.9A5.51,5.51,0,0,1,199.69,190.84Z" transform="translate(-36.04 -47.36)"/><line id="_Path_126" data-name="&lt;Path&gt;" class="cls-23" x1="165.19" y1="143.76" x2="165.19" y2="143.8"/><path id="_Path_127" data-name="&lt;Path&gt;" d="M204.86,191.33a1.65,1.65,0,0,1,1.07-.5,1.45,1.45,0,0,1,.93.37h0a.46.46,0,0,0,.07.07l0,0,.12.13h0c-.31-.91-.81-1.5-1.38-1.5-.74,0-1.38,1-1.61,2.48h0A4.26,4.26,0,0,1,204.86,191.33Z" transform="translate(-36.04 -47.36)"/><path id="_Path_128" data-name="&lt;Path&gt;" class="cls-3" d="M198.25,200.5l.2.06a6.74,6.74,0,0,0,2.3.4,6.9,6.9,0,0,0,2.61-.51l.12,0,.21-.09.18-.09h-.05a2.62,2.62,0,0,1-.74,0c-1.43-.2-1.75-.9-1.71-1.62l-.31-.2a9.52,9.52,0,0,1-1.76-1.65,9.4,9.4,0,0,0,2.12,1.14l.08,0c.06-.2.13-.4.2-.57h0l0-.06c.07-.2.15-.39.23-.58a14.78,14.78,0,0,0,.91-2.22l.09-.43h-.79a.9.9,0,0,1-.07.37,1.29,1.29,0,0,1-.09.16,1,1,0,0,1-.25.25l-.16.09a1.1,1.1,0,0,1-.36.07H201l-.07,0h0l-.08,0h0a.2.2,0,0,1-.08,0h0a.92.92,0,0,1-.22-.17l-2.69-.65h-2.94l0,.06a.75.75,0,0,0-.07.12l-.15.31a.54.54,0,0,0,0,.11c-.06.13-.12.26-.17.4v0c-.06.15-.11.31-.16.46s-.11.41-.16.61a7,7,0,0,0,2.54,3.48l.1.07c.2.14.41.27.62.39A8.65,8.65,0,0,0,198.25,200.5Z" transform="translate(-36.04 -47.36)"/><path id="_Path_129" data-name="&lt;Path&gt;" class="cls-29" d="M203.07,198.33a1.64,1.64,0,0,0,0,.22c0,.13,0,.25,0,.36s0,.16.05.23a1.88,1.88,0,0,0,.12.3,2,2,0,0,0,.13.25l0,.07.07.1.1.12a2.39,2.39,0,0,0,.23.22h0v0h.05a4.51,4.51,0,0,0,.93-.23l.47-.19.14-.07a12.1,12.1,0,0,0,2.94-2.14A8.77,8.77,0,0,1,203.07,198.33Z" transform="translate(-36.04 -47.36)"/><path id="_Path_130" data-name="&lt;Path&gt;" class="cls-30" d="M206.92,195.64c-.12-.17-.25-.34-.38-.5l0,0-.42-.52h0l-.45-.53,0,0c-.09-.11-.19-.21-.28-.31l-.1-.11-.23-.25-.19-.19-.17-.18-.39-.37-.18-.16h0a8.86,8.86,0,0,1,.34,1.11c0,.1,0,.19,0,.29a4.7,4.7,0,0,1-.91,3.28l-.15.25a2.75,2.75,0,0,0-.31.72c0,.07,0,.15,0,.22a8.77,8.77,0,0,0,5.28-.74s-.4-.58-1-1.37l-.4-.54Z" transform="translate(-36.04 -47.36)"/><path id="_Path_131" data-name="&lt;Path&gt;" d="M203.82,200.2a2.39,2.39,0,0,1-.23-.22l-.1-.12-.07-.1,0-.07-.14-.25c0-.1-.08-.2-.11-.3s0-.15-.05-.23,0-.23,0-.36a1.64,1.64,0,0,1,0-.22c0-.07,0-.15,0-.22a2.75,2.75,0,0,1,.31-.72h0l.15-.25a4.71,4.71,0,0,0,.91-3.28c0-.1,0-.19,0-.29l0,.18h0a.31.31,0,0,0,0,.08,6.11,6.11,0,0,1-1.43,2.23l-.28.29c-.16.17-.32.34-.5.51l-.22.22c-.07.06-.15.16-.26.26h0c-.06.17-.13.37-.19.57l-.08,0a9.4,9.4,0,0,1-2.12-1.14,9.52,9.52,0,0,0,1.76,1.65l.31.2c0,.72.28,1.42,1.71,1.62a2.62,2.62,0,0,0,.74,0v0Z" transform="translate(-36.04 -47.36)"/></g></g></g></g></svg>