<svg xmlns="http://www.w3.org/2000/svg" viewBox="0 0 500 308.67"><defs><style>.cls-1{fill:#fff;}.cls-2,.cls-21{opacity:0.15;}.cls-3{fill:#ddd;}.cls-4{fill:#999;}.cls-5{fill:#e0e4f0;}.cls-6{fill:none;stroke:#252525;stroke-miterlimit:10;stroke-width:0.5px;}.cls-7{fill:#f9f9fb;}.cls-8{fill:#feeee7;}.cls-9{fill:#f26322;}.cls-10{fill:#2cacb3;}.cls-11{fill:#fefaf9;}.cls-12{fill:#f8d6ca;}.cls-13{fill:#252525;}.cls-14{fill:#454545;}.cls-15{fill:#31639c;}.cls-16{fill:#3b6ba1;}.cls-17,.cls-18,.cls-19{fill:#231f20;}.cls-17{opacity:0.3;}.cls-18,.cls-22{opacity:0.2;}.cls-20{fill:#f1f2f2;}.cls-21,.cls-23,.cls-25{fill:#525d7a;}.cls-24{fill:#f5f7f9;}.cls-25{opacity:0.1;}</style></defs><title>installation_mg</title><g id="Bg"><rect class="cls-1" width="500" height="308.67"/></g><g id="Graphics"><g id="Layer_7" data-name="Layer 7"><g class="cls-2"><path class="cls-3" d="M70.57,213.57c-4.1-6.36-8.24-12.78-13.55-18.17-1.75-1.77-4.28-3.55-6.53-2.49-2.07,1-2.5,3.71-2.37,6,.63,10.73,7.33,20.14,14.8,27.86A120.81,120.81,0,0,0,91.51,248.6l1.84.35C85.66,237,78.25,225.51,70.57,213.57Z"/><path class="cls-4" d="M89.76,246.3c-16.36-11.49-29.27-29-36.93-47.28-.27-.65-1.24-.1-1,.55a112,112,0,0,0,15.62,26.14c6.45,8,14,14.49,22.24,20.64,0,0,.06,0,0,0Z"/><path class="cls-4" d="M50.68,207.84a16.05,16.05,0,0,0,7.43,4c.43.1.61-.54.19-.65a17,17,0,0,1-7.17-3.76c-.31-.27-.76.18-.45.45Z"/><path class="cls-4" d="M56.25,216.51c2,2.12,5,4.73,7.89,5.47a.17.17,0,0,0,.13-.3c-1.19-.88-2.63-1.44-3.89-2.24a42.41,42.41,0,0,1-4-3,.07.07,0,0,0-.1.1Z"/><path class="cls-4" d="M64.77,227a15.27,15.27,0,0,0,5.73,3,.23.23,0,0,0,.12-.45,22.55,22.55,0,0,1-5.73-2.74.1.1,0,0,0-.12.17Z"/><path class="cls-4" d="M59.09,204.69a36.83,36.83,0,0,1,.59,9.66c-.07.61.87.6.94,0a19.53,19.53,0,0,0-1-9.88c-.13-.32-.56-.08-.52.21Z"/><path class="cls-4" d="M64.43,212.34a23.19,23.19,0,0,1,2.13,10.1.38.38,0,0,0,.75,0,19.35,19.35,0,0,0-2.65-10.24.13.13,0,0,0-.23.13Z"/><path class="cls-4" d="M71.68,221.19c1.75,3.89,3.17,7.28,3.46,11.6,0,.71,1.16.72,1.11,0-.28-4.09-1.5-8.7-4.15-11.94-.2-.25-.54.07-.42.33Z"/><path class="cls-3" d="M86.17,245.78,57.5,229.9A45.28,45.28,0,0,0,47,225.2c-3.74-.95-7.89-.87-11.23,1.06a3.79,3.79,0,0,0-1.24,1c-1,1.39-.06,3.28.94,4.64,7.94,10.76,21.81,15.17,34.94,17.72,7.83,1.52,16.21,2.56,23.57-.52A63.12,63.12,0,0,1,86.17,245.78Z"/><path class="cls-4" d="M38,229.63c6.85,4.58,14.48,7.67,22.2,10.5,8.55,3.13,17.12,6.19,25.64,9.41.67.25,1.1-.79.43-1-8.26-2.89-16.46-5.91-24.68-8.9-8-2.91-16-5.84-23.21-10.5-.34-.22-.73.28-.38.51Z"/><path class="cls-4" d="M40.62,235.43c2.8.43,5.64.93,8.47,1.08.67,0,.83-1,.15-1a84.75,84.75,0,0,0-8.58-.33.15.15,0,0,0,0,.3Z"/><path class="cls-4" d="M51.88,241.6l5.53-.17a26.66,26.66,0,0,0,5.5-.4.33.33,0,0,0,0-.65,25.13,25.13,0,0,0-5.27.14L51.8,241c-.43,0-.34.66.08.65Z"/><path class="cls-4" d="M66.05,246.92a29.77,29.77,0,0,1,4.66-1.1c1.32-.14,2.73.18,4-.16.35-.09.25-.54,0-.67-1.24-.69-3.28-.37-4.61-.12a10.52,10.52,0,0,0-4.25,1.7c-.19.14,0,.4.2.35Z"/><path class="cls-4" d="M45.78,228.39A36.76,36.76,0,0,1,48.33,233,21.59,21.59,0,0,0,50,236.76a.18.18,0,0,0,.32-.13,12.19,12.19,0,0,0-1.72-4.42,43.49,43.49,0,0,0-2.38-4.14c-.18-.3-.61,0-.43.32Z"/><path class="cls-4" d="M55.21,233.35c1.59,1.92,3.09,4.23,5,5.86.13.11.28-.07.2-.2-1.35-2.08-3.41-3.88-5.08-5.73a.06.06,0,1,0-.09.07Z"/><path class="cls-4" d="M64.87,237.13c.87,1.15,1.79,2.28,2.6,3.47a9.67,9.67,0,0,0,2.35,3,.22.22,0,0,0,.34-.26,9.86,9.86,0,0,0-2.2-3.06c-.92-1.12-1.76-2.3-2.64-3.44a.28.28,0,0,0-.45.34Z"/><path class="cls-3" d="M83.79,197.35c-1.43-1.32-3.78-1.86-5.34-.69s-1.71,3.06-1.77,4.84c-.55,16,8.09,33,15.58,47.16l1.63.44c-1.18-15.74-2.4-31.67-7.34-46.66A11.72,11.72,0,0,0,83.79,197.35Z"/><path class="cls-4" d="M91.68,243.65c-4.21-13.54-7.09-27.36-10-41.23-.1-.46-.83-.37-.73.09,3.23,13.76,5.84,27.85,10.49,41.23a.12.12,0,0,0,.22-.09Z"/><path class="cls-4" d="M78.82,207.32c.69.93,1.38,1.85,2.06,2.78a10.24,10.24,0,0,0,2,2.33.26.26,0,0,0,.4-.3,9.91,9.91,0,0,0-1.72-2.51c-.7-.92-1.41-1.83-2.12-2.74a.36.36,0,0,0-.58.44Z"/><path class="cls-4" d="M80.48,215.14c1.21,2,2.36,4.39,4,6.06a.16.16,0,0,0,.28-.16c-.6-2.25-2.45-4.42-4-6.11a.18.18,0,0,0-.28.21Z"/><path class="cls-4" d="M83.05,224.71a16.62,16.62,0,0,0,1.76,3.53,19.66,19.66,0,0,0,1.74,3,.16.16,0,0,0,.28-.16,22.61,22.61,0,0,0-1.68-3.56,14.21,14.21,0,0,0-1.68-3,.25.25,0,0,0-.42.24Z"/><path class="cls-4" d="M86.88,211.3a14.85,14.85,0,0,0-1.74,4.1c-.29,1.1-.76,2.73-.32,3.82a.25.25,0,0,0,.46,0c.5-1,.38-2.49.62-3.63a25.2,25.2,0,0,1,1.29-4.12c.07-.18-.2-.35-.31-.18Z"/><path class="cls-4" d="M89.56,222.32c-.24,1.44-.41,2.88-.55,4.34a17,17,0,0,0-.25,4c0,.26.45.36.54.08a18.33,18.33,0,0,0,.4-4.19c.08-1.41.14-2.78.12-4.19,0-.15-.23-.14-.26,0Z"/></g><g class="cls-2"><path class="cls-3" d="M347.54,111.33C353.73,101.72,360,92,368,83.89c2.64-2.68,6.46-5.37,9.86-3.77,3.13,1.47,3.77,5.61,3.57,9.06-.95,16.2-11.06,30.42-22.35,42.08a182.37,182.37,0,0,1-43.17,33l-2.77.53Z"/><path class="cls-4" d="M318.56,160.75c24.71-17.36,44.19-43.73,55.76-71.39.41-1,1.88-.16,1.46.82a169.56,169.56,0,0,1-23.59,39.47c-9.75,12.16-21.17,21.89-33.59,31.18,0,0-.09-.05,0-.08Z"/><path class="cls-4" d="M377.58,102.68a24.45,24.45,0,0,1-11.23,6c-.65.14-.93-.83-.28-1A25.83,25.83,0,0,0,376.9,102c.45-.41,1.14.26.68.68Z"/><path class="cls-4" d="M369.16,115.76c-3.06,3.21-7.54,7.14-11.92,8.26a.25.25,0,0,1-.19-.45c1.8-1.33,4-2.17,5.87-3.39a61.6,61.6,0,0,0,6.09-4.57c.1-.09.25,0,.15.15Z"/><path class="cls-4" d="M356.3,131.61a23.12,23.12,0,0,1-8.65,4.57.35.35,0,0,1-.19-.68,33.6,33.6,0,0,0,8.65-4.14c.15-.1.33.13.19.25Z"/><path class="cls-4" d="M364.87,97.91c-.72,5-1.44,9.47-.89,14.59.1.91-1.31.91-1.42,0-.61-4.75-.44-10.46,1.52-14.91.21-.48.85-.13.79.31Z"/><path class="cls-4" d="M356.81,109.47a34.93,34.93,0,0,0-3.21,15.25.57.57,0,0,1-1.14,0,29.17,29.17,0,0,1,4-15.46c.13-.22.44,0,.34.2Z"/><path class="cls-4" d="M345.86,122.83c-2.65,5.88-4.78,11-5.23,17.51-.07,1.07-1.74,1.1-1.67,0,.42-6.18,2.26-13.14,6.26-18,.31-.38.82.1.64.49Z"/><path class="cls-3" d="M324,160l43.3-24c5.09-2.82,10.26-5.67,15.9-7.1s11.91-1.3,16.95,1.61a5.56,5.56,0,0,1,1.87,1.56c1.45,2.1.1,5-1.42,7-12,16.25-32.93,22.91-52.76,26.76-11.83,2.29-24.48,3.86-35.59-.79A93.87,93.87,0,0,0,324,160Z"/><path class="cls-4" d="M396.73,135.57c-10.36,6.92-21.89,11.59-33.53,15.86-12.91,4.73-25.86,9.35-38.72,14.21-1,.38-1.66-1.19-.65-1.55,12.47-4.35,24.86-8.92,37.27-13.43,12.09-4.39,24.18-8.83,35-15.86.51-.33,1.1.42.59.77Z"/><path class="cls-4" d="M392.76,144.33A125.23,125.23,0,0,1,380,146c-1,.06-1.26-1.46-.22-1.58,4.28-.49,8.65-.45,12.94-.51.29,0,.37.42.07.46Z"/><path class="cls-4" d="M375.76,153.65l-8.35-.26c-2.74-.08-5.63.06-8.3-.6a.5.5,0,0,1,0-1,38.46,38.46,0,0,1,7.95.23l8.83.63c.64.05.51,1-.12,1Z"/><path class="cls-4" d="M354.37,161.68a45,45,0,0,0-7-1.66c-2-.22-4.12.27-6-.23-.53-.14-.37-.82,0-1,1.86-1,4.94-.55,6.95-.17a15.8,15.8,0,0,1,6.42,2.57c.3.21,0,.6-.29.52Z"/><path class="cls-4" d="M385,133.7a54.27,54.27,0,0,0-3.85,7c-.84,1.87-1.32,4-2.51,5.63a.27.27,0,0,1-.48-.19c.15-2.34,1.55-4.62,2.59-6.68a71.81,71.81,0,0,1,3.59-6.26c.29-.44.94,0,.66.49Z"/><path class="cls-4" d="M370.73,141.19c-2.41,2.9-4.67,6.38-7.51,8.85-.19.17-.42-.11-.3-.3,2-3.14,5.15-5.87,7.67-8.65.07-.09.21,0,.14.1Z"/><path class="cls-4" d="M356.14,146.9c-1.3,1.74-2.69,3.44-3.92,5.23-1.08,1.57-1.93,3.4-3.55,4.46a.34.34,0,0,1-.52-.39c.58-1.85,2.13-3.16,3.33-4.63,1.38-1.68,2.65-3.46,4-5.19a.43.43,0,0,1,.68.52Z"/><path class="cls-4" d="M327.57,86.83c2.16-2,5.71-2.81,8.07-1,2.15,1.61,2.57,4.63,2.67,7.31.83,24.23-12.21,49.78-23.53,71.22l-2.46.66c1.79-23.77,3.62-47.81,11.09-70.45C324.33,91.72,325.41,88.84,327.57,86.83Z"/><path class="cls-4" d="M315.65,156.74c6.36-20.44,10.72-41.32,15.08-62.25.15-.7,1.26-.56,1.1.13C327,115.4,323,136.68,316,156.87c-.07.22-.39.09-.33-.13Z"/><path class="cls-4" d="M335.08,101.88,332,106.09A15.37,15.37,0,0,1,329,109.6a.39.39,0,0,1-.6-.45,15.41,15.41,0,0,1,2.59-3.8c1.06-1.38,2.13-2.75,3.2-4.13a.55.55,0,0,1,.88.66Z"/><path class="cls-4" d="M332.58,113.7c-1.84,3-3.57,6.63-6,9.15a.25.25,0,0,1-.43-.24c.9-3.4,3.7-6.68,6-9.23a.27.27,0,0,1,.43.32Z"/><path class="cls-4" d="M328.69,128.15a25.69,25.69,0,0,1-2.66,5.32,30.13,30.13,0,0,1-2.62,4.51.25.25,0,0,1-.43-.24,34.28,34.28,0,0,1,2.54-5.38,22.19,22.19,0,0,1,2.53-4.58.37.37,0,0,1,.64.37Z"/><path class="cls-4" d="M322.9,107.9a22.07,22.07,0,0,1,2.63,6.18c.44,1.67,1.16,4.13.48,5.78a.38.38,0,0,1-.69,0c-.76-1.54-.57-3.76-.93-5.47a37.66,37.66,0,0,0-1.94-6.22c-.11-.27.29-.54.45-.27Z"/><path class="cls-4" d="M318.86,124.53c.37,2.18.62,4.35.84,6.56a26.15,26.15,0,0,1,.37,6c-.05.4-.69.55-.82.12a27.91,27.91,0,0,1-.6-6.33c-.13-2.12-.21-4.2-.18-6.33,0-.23.35-.21.39,0Z"/></g><g class="cls-2"><path class="cls-3" d="M339.05,252.78c1.53-13.09,3.56-22.8,13.13-32.19,4.49-4.4,10.42-7.49,14-12.63,4.31-6.26,4.65-15,10.58-19.87,6.36-5.24,16.55-3.81,23.1-8.83,4.67-3.58,6.38-9.59,9.74-14.35,5.43-7.71,15.74-11.93,25.27-10.34-9.54,2.24-16.27,12.38-14.39,21.68,1.21,5.94,5.4,11.37,4.89,17.41-1,12-19.17,17.13-20.57,29.08-.38,3.26.61,6.51.74,9.79.42,10.17-8.76,19.8-19.3,20.25Z"/><path class="cls-4" d="M410.38,184.42a168,168,0,0,0-25.05,29.49c-6.91,10.34-11.77,21.31-17.37,32.29a1,1,0,0,1-1.84-.75c7.35-23.55,25.55-44.92,44.23-61.06a0,0,0,0,1,0,0Z"/><path class="cls-4" d="M409.57,196.57a18.93,18.93,0,0,0-7.78.63c-2.64.81-4.44,2.48-6.85,3.59-.27.12-.65-.15-.45-.44,3-4.22,10.4-5,15.14-4.22a.22.22,0,0,1-.06.44Z"/><path class="cls-4" d="M403.71,209.73a23.52,23.52,0,0,0-10.94-.14c-3.3.79-5.86,2.58-8.8,4.1a.48.48,0,0,1-.59-.74c4.89-5.1,14-5.52,20.39-3.44a.11.11,0,1,1-.06.22Z"/><path class="cls-4" d="M397.24,227.17c-10.06-1.18-16.71.77-24.3,7.28-.46.39-1.25-.11-.88-.65,4.93-7.21,17.12-10.69,25.31-7.09a.25.25,0,0,1-.13.46Z"/><path class="cls-4" d="M390.81,190.66c4,4.28,2.56,12.76-1.35,16.65-.14.14-.41,0-.29-.22,1.74-2.62,3-5.14,3.09-8.33.09-2.93-1.09-5.13-2-7.81a.31.31,0,0,1,.51-.29Z"/><path class="cls-4" d="M383.25,200.27c2.07,5.53,1.85,12.87-1.5,17.92-.17.25-.61.09-.51-.21,1.94-6.16,2.81-11.13,1.47-17.57a.28.28,0,0,1,.54-.14Z"/><path class="cls-4" d="M371.58,210.84c3.6,7.76,3.1,16.35-.27,24.1-.31.71-1.53.41-1.22-.33,3.26-7.77,3.08-15.5.76-23.48-.12-.4.54-.7.73-.29Z"/></g><g class="cls-2"><path class="cls-3" d="M198.23,206.05c-1.8-15.38-4.19-26.8-15.44-37.83-5.28-5.18-12.25-8.8-16.41-14.85-5.07-7.36-5.47-17.61-12.44-23.35-7.47-6.17-19.46-4.48-27.15-10.38-5.49-4.21-7.51-11.27-11.45-16.87-6.39-9.06-18.5-14-29.7-12.16,11.21,2.64,19.13,14.56,16.91,25.49-1.42,7-6.35,13.37-5.74,20.47C98,150.66,119.34,156.7,121,170.75c.45,3.83-.71,7.65-.87,11.5-.5,11.95,10.3,23.27,22.69,23.8Z"/><path class="cls-4" d="M114.39,125.71a197.63,197.63,0,0,1,29.44,34.66c8.12,12.15,13.84,25,20.42,37.94a1.19,1.19,0,0,0,2.16-.88c-8.64-27.67-30-52.79-52-71.76,0,0-.07,0,0,0Z"/><path class="cls-4" d="M115.34,140a22.23,22.23,0,0,1,9.14.75c3.11,1,5.22,2.9,8.06,4.21.32.15.76-.17.53-.51-3.49-5-12.23-5.85-17.8-5-.3,0-.24.56.07.52Z"/><path class="cls-4" d="M122.23,155.45a27.63,27.63,0,0,1,12.85-.16c3.89.93,6.9,3,10.35,4.82a.57.57,0,0,0,.69-.88c-5.75-6-16.44-6.48-24-4a.13.13,0,1,0,.08.25Z"/><path class="cls-4" d="M129.84,176c11.81-1.39,19.64.9,28.56,8.55.53.46,1.47-.14,1-.77-5.8-8.47-20.12-12.56-29.75-8.33a.3.3,0,0,0,.16.55Z"/><path class="cls-4" d="M137.39,133c-4.75,5-3,15,1.59,19.57.17.17.48-.05.34-.26-2-3.08-3.53-6-3.64-9.79-.1-3.45,1.29-6,2.31-9.19a.36.36,0,0,0-.6-.33Z"/><path class="cls-4" d="M146.27,144.33c-2.43,6.5-2.17,15.13,1.77,21.06.19.3.71.11.6-.24-2.29-7.24-3.31-13.08-1.73-20.65a.33.33,0,0,0-.64-.17Z"/><path class="cls-4" d="M160,156.76c-4.23,9.11-3.64,19.22.32,28.32.37.83,1.8.48,1.43-.38-3.83-9.14-3.62-18.22-.89-27.6.14-.47-.63-.82-.86-.34Z"/></g><rect class="cls-5" x="161.64" y="58.18" width="176.72" height="193.38"/><polyline class="cls-6" points="161.64 87.07 161.64 58.18 338.36 58.18 338.36 207.57"/><rect class="cls-1" x="168.87" y="78.29" width="162.77" height="173.28"/><rect class="cls-7" x="178.04" y="157" width="62.11" height="94.57"/><path class="cls-1" d="M179.09,68.69a2.33,2.33,0,1,1-2.33-2.33A2.34,2.34,0,0,1,179.09,68.69Z"/><path class="cls-1" d="M189.91,68.69a2.33,2.33,0,1,1-2.33-2.33A2.33,2.33,0,0,1,189.91,68.69Z"/><path class="cls-1" d="M200.74,68.69a2.33,2.33,0,1,1-2.33-2.33A2.33,2.33,0,0,1,200.74,68.69Z"/><rect class="cls-8" x="178.04" y="90.93" width="143.91" height="59.24"/><rect class="cls-5" x="261.5" y="189.09" width="60.46" height="20.77"/><rect class="cls-1" x="264.81" y="191.74" width="16.94" height="15.07"/><rect class="cls-1" x="283.47" y="191.74" width="35.84" height="3.51"/><rect class="cls-1" x="283.47" y="197.48" width="35.84" height="3.51"/><rect class="cls-1" x="283.47" y="203.22" width="22.66" height="3.51"/><rect class="cls-6" x="261.5" y="189.09" width="60.46" height="20.77"/><rect class="cls-1" x="261.5" y="154.36" width="60.46" height="20.77"/><rect class="cls-5" x="264.81" y="157.01" width="16.94" height="15.07"/><rect class="cls-5" x="283.47" y="157.01" width="35.84" height="3.51"/><rect class="cls-5" x="283.47" y="162.75" width="35.84" height="3.51"/><rect class="cls-5" x="283.47" y="168.49" width="22.66" height="3.51"/><rect class="cls-6" x="261.5" y="154.36" width="60.46" height="20.77"/><rect class="cls-1" x="261.5" y="223.83" width="60.46" height="20.77"/><rect class="cls-5" x="264.81" y="226.47" width="16.94" height="15.07"/><rect class="cls-5" x="283.47" y="226.47" width="35.84" height="3.51"/><rect class="cls-5" x="283.47" y="232.21" width="35.84" height="3.51"/><rect class="cls-5" x="283.47" y="237.95" width="22.66" height="3.51"/><rect class="cls-6" x="261.5" y="223.83" width="60.46" height="20.77"/><polyline class="cls-6" points="178.04 139.18 188.75 139.18 207.25 104.56 226.75 139.18 240.84 118.24 256.16 139.18 321.91 139.18"/><path class="cls-1" d="M290.45,118.24a5.2,5.2,0,1,1-5.2-5.2A5.2,5.2,0,0,1,290.45,118.24Z"/><circle class="cls-6" cx="285.25" cy="118.24" r="8.21"/><rect class="cls-1" x="198.81" y="89.67" width="50.37" height="10.36"/><rect class="cls-9" x="236.02" y="89.67" width="13.23" height="10.36"/><rect class="cls-6" x="198.81" y="89.67" width="50.37" height="10.36"/><path class="cls-6" d="M244.91,97"/><path id="_Compound_Path_" data-name="&lt;Compound Path&gt;" class="cls-10" d="M217.7,244.34h2a.72.72,0,0,0,.72-.72V241.1a.72.72,0,0,0-.72-.72h-1.55a.62.62,0,0,1-.56-.4l-.18-.43a.61.61,0,0,1,.11-.69l1.09-1.09a.71.71,0,0,0,0-1L216.8,235a.72.72,0,0,0-1,0l-1.1,1.1a.62.62,0,0,1-.66.13l-.47-.2a.58.58,0,0,1-.38-.55v-1.56a.72.72,0,0,0-.72-.72h-2.52a.72.72,0,0,0-.72.72v1.54a.6.6,0,0,1-.4.57l-.45.18a.61.61,0,0,1-.69-.11L206.58,235a.72.72,0,0,0-1,0l-1.78,1.78a.72.72,0,0,0,0,1l1.11,1.1a.62.62,0,0,1,.13.66c-.07.16-.14.33-.19.47a.6.6,0,0,1-.56.38h-1.56a.72.72,0,0,0-.72.72v2.52a.72.72,0,0,0,.72.72h1.54a.61.61,0,0,1,.57.41c.06.14.11.28.18.42a.61.61,0,0,1-.11.69L203.81,247a.74.74,0,0,0,0,1l1.78,1.77a.72.72,0,0,0,1,0l1.1-1.1a.59.59,0,0,1,.66-.13l.47.19a.6.6,0,0,1,.38.56v1.55a.74.74,0,0,0,.73.73h2.51a.73.73,0,0,0,.73-.72v-1.55a.61.61,0,0,1,.41-.56l.42-.18a.61.61,0,0,1,.69.11l1.09,1.09a.72.72,0,0,0,1,0l1.77-1.78a.72.72,0,0,0,0-1l-1.1-1.1a.62.62,0,0,1-.13-.66C217.52,244.82,217.69,244.37,217.7,244.34Zm-10-2.62a3.57,3.57,0,1,1,2.22,4A3.57,3.57,0,0,1,207.68,241.72Z"/><rect class="cls-1" x="96.85" y="187.29" width="89.58" height="64.5"/><rect class="cls-8" x="96.85" y="187.29" width="89.58" height="6.93"/><rect class="cls-1" x="101.33" y="189.17" width="3.75" height="3.16"/><polyline class="cls-6" points="96.85 207.28 96.85 187.28 186.43 187.28 186.43 234.78"/><rect class="cls-11" x="103.28" y="198.09" width="17.31" height="17.28" transform="translate(223.88 413.46) rotate(180)"/><rect class="cls-11" x="126.93" y="198.09" width="17.31" height="17.28" transform="translate(271.16 413.46) rotate(180)"/><rect class="cls-11" x="150.57" y="198.09" width="29.26" height="17.28" transform="translate(330.4 413.46) rotate(180)"/><rect class="cls-8" x="103.16" y="220.14" width="34.87" height="3.12"/><rect class="cls-8" x="102.79" y="228.51" width="77.03" height="1.56"/><rect class="cls-8" x="102.79" y="234.21" width="77.03" height="1.56"/><rect class="cls-8" x="103.12" y="239.91" width="77.03" height="1.56"/><rect class="cls-8" x="103.45" y="245.61" width="38.53" height="1.56"/><rect class="cls-1" x="121.14" y="218.69" width="59.56" height="3.67" transform="translate(301.83 441.05) rotate(180)"/><rect class="cls-6" x="121.14" y="218.69" width="59.56" height="3.67" transform="translate(301.83 441.05) rotate(180)"/><line class="cls-6" x1="144.14" y1="222.54" x2="129.5" y2="251.5"/><line class="cls-6" x1="130.43" y1="222.68" x2="115.79" y2="251.64"/><line class="cls-6" x1="141.93" y1="226.89" x2="128.3" y2="226.89"/><line class="cls-6" x1="137.44" y1="235.75" x2="123.81" y2="235.75"/><line class="cls-6" x1="132.95" y1="244.6" x2="119.32" y2="244.6"/><line class="cls-6" x1="159.65" y1="222.54" x2="174.29" y2="251.42"/><line class="cls-6" x1="173.36" y1="222.68" x2="188" y2="251.57"/><line class="cls-6" x1="161.85" y1="226.89" x2="175.49" y2="226.89"/><line class="cls-6" x1="166.34" y1="235.75" x2="179.98" y2="235.75"/><line class="cls-6" x1="170.83" y1="244.6" x2="184.47" y2="244.6"/><rect class="cls-1" x="371.56" y="138.84" width="70.46" height="41.69"/><rect class="cls-9" x="371.56" y="138.84" width="70.46" height="5.45"/><rect class="cls-1" x="375.08" y="140.32" width="2.95" height="2.48"/><polyline class="cls-6" points="392.13 180.52 371.56 180.52 371.56 138.84 442.02 138.84 442.02 180.52 431.94 180.52"/><path class="cls-8" d="M383.07,151a3.27,3.27,0,1,1-3.27-3.27A3.26,3.26,0,0,1,383.07,151Z"/><path class="cls-8" d="M383.07,161.94a3.27,3.27,0,1,1-3.27-3.27A3.26,3.26,0,0,1,383.07,161.94Z"/><path class="cls-8" d="M383.07,172.87a3.27,3.27,0,1,1-3.27-3.26A3.26,3.26,0,0,1,383.07,172.87Z"/><rect class="cls-8" x="385.41" y="149.73" width="27.43" height="3.23"/><rect class="cls-8" x="385.41" y="160.32" width="27.43" height="3.23"/><rect class="cls-11" x="416.12" y="147.73" width="21.89" height="28.41" transform="translate(854.12 323.87) rotate(180)"/><rect class="cls-8" x="385.41" y="170.92" width="27.43" height="3.23"/><path id="_Compound_Path_2" data-name="&lt;Compound Path&gt;" class="cls-1" d="M206.74,241.77h2.67a1,1,0,0,0,1-1v-3.41a1,1,0,0,0-1-1h-2.1a.81.81,0,0,1-.76-.55l-.24-.58a.81.81,0,0,1,.15-.93l1.48-1.48a1,1,0,0,0,0-1.39l-2.42-2.41a1,1,0,0,0-1.38,0l-1.49,1.5a.83.83,0,0,1-.9.17c-.21-.09-.44-.19-.64-.26a.81.81,0,0,1-.51-.76v-2.11a1,1,0,0,0-1-1h-3.41a1,1,0,0,0-1,1v2.09a.82.82,0,0,1-.54.77l-.61.25a.8.8,0,0,1-.93-.15l-1.49-1.48a1,1,0,0,0-1.38,0l-2.41,2.42a1,1,0,0,0,0,1.38l1.5,1.49a.81.81,0,0,1,.17.9c-.09.21-.18.44-.25.64a.82.82,0,0,1-.76.51h-2.11a1,1,0,0,0-1,1v3.41a1,1,0,0,0,1,1h2.1a.81.81,0,0,1,.76.54l.24.58a.8.8,0,0,1-.15.93l-1.48,1.49a1,1,0,0,0,0,1.38l2.42,2.41a1,1,0,0,0,1.38,0l1.49-1.5a.83.83,0,0,1,.9-.17l.64.26a.8.8,0,0,1,.51.75v2.12a1,1,0,0,0,1,1h3.41a1,1,0,0,0,1-1v-2.1a.83.83,0,0,1,.55-.76l.58-.24a.8.8,0,0,1,.93.15l1.48,1.48a1,1,0,0,0,1.39,0l2.41-2.42a1,1,0,0,0,0-1.39l-1.49-1.49a.8.8,0,0,1-.18-.89C206.5,242.41,206.72,241.8,206.74,241.77Zm-13.59-3.56a4.84,4.84,0,1,1,3,5.38A4.84,4.84,0,0,1,193.15,238.21Z"/><path id="_Compound_Path_3" data-name="&lt;Compound Path&gt;" class="cls-6" d="M206.74,241.77h2.67a1,1,0,0,0,1-1v-3.41a1,1,0,0,0-1-1h-2.1a.81.81,0,0,1-.76-.55l-.24-.58a.81.81,0,0,1,.15-.93l1.48-1.48a1,1,0,0,0,0-1.39l-2.42-2.41a1,1,0,0,0-1.38,0l-1.49,1.5a.83.83,0,0,1-.9.17c-.21-.09-.44-.19-.64-.26a.81.81,0,0,1-.51-.76v-2.11a1,1,0,0,0-1-1h-3.41a1,1,0,0,0-1,1v2.09a.82.82,0,0,1-.54.77l-.61.25a.8.8,0,0,1-.93-.15l-1.49-1.48a1,1,0,0,0-1.38,0l-2.41,2.42a1,1,0,0,0,0,1.38l1.5,1.49a.81.81,0,0,1,.17.9c-.09.21-.18.44-.25.64a.82.82,0,0,1-.76.51h-2.11a1,1,0,0,0-1,1v3.41a1,1,0,0,0,1,1h2.1a.81.81,0,0,1,.76.54l.24.58a.8.8,0,0,1-.15.93l-1.48,1.49a1,1,0,0,0,0,1.38l2.42,2.41a1,1,0,0,0,1.38,0l1.49-1.5a.83.83,0,0,1,.9-.17l.64.26a.8.8,0,0,1,.51.75v2.12a1,1,0,0,0,1,1h3.41a1,1,0,0,0,1-1v-2.1a.83.83,0,0,1,.55-.76l.58-.24a.8.8,0,0,1,.93.15l1.48,1.48a1,1,0,0,0,1.39,0l2.41-2.42a1,1,0,0,0,0-1.39l-1.49-1.49a.8.8,0,0,1-.18-.89C206.5,242.41,206.72,241.8,206.74,241.77Zm-13.59-3.56a4.84,4.84,0,1,1,3,5.38A4.84,4.84,0,0,1,193.15,238.21Z"/></g><g id="Layer_9" data-name="Layer 9"><path class="cls-12" d="M331.34,247l-3.54,1.57L322.16,250a1.6,1.6,0,0,0-1.25,1.56h0l16.48-.07-.4-2.89L334.63,247Z"/><path class="cls-13" d="M329.71,249.84l-1.91-1.28-5.53.94a2.36,2.36,0,0,0-1.36,2.07h0l16.48-.07-.4-2.89-1.35,1.17-2.35,0C332.21,250,330.68,250.37,329.71,249.84Z"/><polygon class="cls-12" points="336.31 248.61 331.34 247.35 331.34 240.5 336.31 240.5 336.31 248.61"/><path class="cls-14" d="M371.38,228.1s-31.48-11.39-35.15-10c0,0-4.69,0-5.69,7.47l.18,16.14h6.17l1.63-12.32a1.31,1.31,0,0,1,1.88-.74l19,10.6Z"/><path class="cls-14" d="M354.54,231l-19,11.73a3.83,3.83,0,0,0-1.82,3.26v1.12a4.48,4.48,0,0,0,4.47,4.48L364,250.29v-7.54s7.93-3.08,7.53-9.68Z"/><polygon class="cls-12" points="365.42 242.08 378.42 251.57 378.42 251.57 364.03 250.29 364.03 242.75 365.42 242.08"/><path class="cls-13" d="M365.42,242.08l-1.39.67V246h0a2.88,2.88,0,0,1,2.72.11l6.4,4.88a2.91,2.91,0,0,0,1.77.6h3.5Z"/><path class="cls-12" d="M352.59,187.46s3.08,5.89.71,9.38l8.37-.77-3.34-10.65Z"/><path class="cls-15" d="M359.2,184.55a7.18,7.18,0,0,0-.71-1.92c-.92-1.88-1.89-3.83-3.59-5a22.17,22.17,0,0,1-2.29-1.52l-.49.3-.91.16a2.72,2.72,0,0,0-2,1.63,2.35,2.35,0,0,0,.52,2.52,6.73,6.73,0,0,0,1.41.86,6.12,6.12,0,0,1,2.44,2.5,12,12,0,0,0,.6,1.12c.77,1.06,2.17,1.39,3.45,1.65a1.39,1.39,0,0,0,.73,0,1,1,0,0,0,.45-.32A2.4,2.4,0,0,0,359.2,184.55Z"/><path class="cls-12" d="M358.92,182.26a34.93,34.93,0,0,0-2.24-3.6,2.37,2.37,0,0,0-2.07-1.2,20.55,20.55,0,0,0-3-.1l-.15.22a22.32,22.32,0,0,0-1.15,6.35,8.59,8.59,0,0,0,0,2.43,2.84,2.84,0,0,0,1.33,2,3.64,3.64,0,0,0,2.68.05,11.84,11.84,0,0,0,3.49-1.63,3.44,3.44,0,0,0,1.8-2.56A3.92,3.92,0,0,0,358.92,182.26Z"/><path class="cls-13" d="M365.29,198.75c-1.74,5.39,8,34.39,8,34.39-4.17,5.51-14.23-2.22-20.72-.81,0,0,.07-12.18-2.38-17.63l-3.31-5.38a3.52,3.52,0,0,1,.16-3.93l6.24-8.55,8.94-3.39a1.89,1.89,0,0,1,2.11.55h0A5,5,0,0,1,365.29,198.75Z"/><path class="cls-15" d="M366.93,198c.15-4-1.28-7.92-1.39-11.93-.08-3.11.56-6.56-1.29-9.07-1.52-2.06-4.31-2.78-6.87-2.82a9.25,9.25,0,0,0-3.7.55,5.91,5.91,0,0,0-1.94,1.3c-.3.3-.63.57-.49,1s.76.68,1.08.8c.47.18,1,.21,1.45.35,1.13.33,1.21,1.16,1.36,2.19a31.91,31.91,0,0,1,.32,3.65,8.52,8.52,0,0,0,.1,1.43,2.89,2.89,0,0,0,.21.69,5.87,5.87,0,0,0,1.8,1.92,3.68,3.68,0,0,1,1.41,1.8c.19.85-.14,1.78.09,2.67.38,1.44,1.66,2.42,2.6,3.57a11.24,11.24,0,0,1,2.27,6.14c.2,2.2,2,4.93,2.38,6.62C367.87,205.37,366.78,201.79,366.93,198Z"/><path class="cls-12" d="M324.49,204.35l14.65,11.34a2.21,2.21,0,0,0,2.17.31l18.13-7.15a3.23,3.23,0,0,0,1.61-4.64h0a3.24,3.24,0,0,0-4.08-1.34L340,210.2,326.41,202l-1.22-1.72-2.78-1.87-.41-.11v1.29l.22.07.28.78-3-.53-4.09-.75c-.17.13-.13.67,0,.84l3.4,1.06,0,.38-4-1c-.17.13-.13.7,0,.87l4,1.22-.1.47-3.64-.87c-.12.09-.09.47,0,.59l3.49,1.11a.32.32,0,0,1,0,.3l-3.14-.55c-.48.34-.05.72,0,.8l5.85.82a3.44,3.44,0,0,0,1.9-.25Z"/><path class="cls-13" d="M362,203.56a3.48,3.48,0,0,0-4.39-1.44l-9.3,3.2c-.87,1.92,3.49,4.77,3.13,7.8l8.83-4.58A3.47,3.47,0,0,0,362,203.56Z"/></g><g id="Layer_8" data-name="Layer 8"><path class="cls-12" d="M243.62,140.17a7.48,7.48,0,0,0,2.21-5.09h6.69s.13,4.23,1.73,5.09Z"/><path class="cls-12" d="M232.94,148l-13.81,4a3.37,3.37,0,0,1-1.61.07l-14.6-3-1.13-2.83-.18.06a1.52,1.52,0,0,0-1,1.43v.83l-.91.43-2.92.68-.74.48h-2.72l1,.9a1.05,1.05,0,0,0,.52.25l6.54,1,3,.53,11.8,4.84a3.92,3.92,0,0,0,2.46.18l15.06-3.75Z"/><path class="cls-12" d="M264,148l13.81,4a3.33,3.33,0,0,0,1.6.07l14.61-3,1.13-2.83.18.06a1.51,1.51,0,0,1,1,1.43v.83l.92.43,2.92.68.74.48h2.72l-1,.9a1,1,0,0,1-.53.25l-6.54,1-3,.53-11.8,4.84a3.89,3.89,0,0,1-2.45.18l-15.06-3.75Z"/><path class="cls-12" d="M249.32,125.55a2.87,2.87,0,0,0-1.51-1.91l1-.84a5.41,5.41,0,0,0-1.33.19,9,9,0,0,0-1.23.55c-.61.3-.93.35-1.23,1l-1,2a8,8,0,0,0-.38.91,6.32,6.32,0,0,0-.2,1.43l-.09,1.2a6.38,6.38,0,0,0,0,1.07,5.87,5.87,0,0,0,.34,1.31,4.74,4.74,0,0,0,1.19,2.36,4.26,4.26,0,0,0,2.42,1,1.06,1.06,0,0,0,.58-.14,1.11,1.11,0,0,0,.34-.48,18,18,0,0,0,1.21-7.15A8.71,8.71,0,0,0,249.32,125.55Z"/><rect class="cls-12" x="259.68" y="244.72" width="4.64" height="3.89" transform="translate(524.01 493.32) rotate(180)"/><path class="cls-14" d="M263.38,247.4H259.6l-.7,2.12v1a1,1,0,0,0,1,1h3.93L268,250v-.72a3.69,3.69,0,0,0-1.53-3l-2.17-1.57v2.52Z"/><path class="cls-13" d="M259.92,250.15h3.93l4.1-1.54a3.72,3.72,0,0,1,.08.66V250l-4.18,1.58h-3.93a1,1,0,0,1-1-1v-1l0-.15A1,1,0,0,0,259.92,250.15Z"/><rect class="cls-12" x="235.51" y="244.72" width="4.64" height="3.89"/><path class="cls-16" d="M237.53,183.05s-1,6.76-1.77,13.28a38.07,38.07,0,0,0-.25,4.27v45.14h4.65s3.59-15.72,4.31-26.21a54.85,54.85,0,0,1,1.28-8.25l4.88-22V184Z"/><path class="cls-15" d="M262.35,184.77s1,5.83,1.82,12.42a21,21,0,0,1,.15,2.5v46.05l-4.64.08s-4-15.1-4.46-26.62a33.24,33.24,0,0,0-.8-5.43L249.21,196V184Z"/><path class="cls-14" d="M236.46,247.4h3.78l.71,2.12v1a1,1,0,0,1-1,1H236L231.82,250v-.72a3.68,3.68,0,0,1,1.52-3l2.17-1.57v2.52Z"/><path class="cls-13" d="M239.92,250.15H236l-4.1-1.54a3.7,3.7,0,0,0-.07.66V250l4.17,1.58h3.93a1,1,0,0,0,1-1v-1l0-.15A1,1,0,0,1,239.92,250.15Z"/><path class="cls-13" d="M254.25,139.72l5.2,1.62c1.9.59,11.71,7.71,11.71,7.71l-2.91,7.2L262,154l1.33,34.7c-4-3.42-17.31,5.12-27.78-1.34,0,0,4.81-22.18,1.58-32.73l-7.34,1.53-3.42-7.3,4.75-3a20.2,20.2,0,0,0,2.34-1.66,16.31,16.31,0,0,1,5.8-3.15l4.4-1.33Z"/><path class="cls-13" d="M255.47,129.44a9.59,9.59,0,0,1,.15-2.2,5.48,5.48,0,0,0-.58-3,6.42,6.42,0,0,0-1.47-2,6.85,6.85,0,0,0-4.64-1.3,3.89,3.89,0,0,0-1.48.22c-.36.15-.69.4-1.06.52s-.52.09-.77.15a4.26,4.26,0,0,0-1,.42,2.47,2.47,0,0,0-.87.7,4.13,4.13,0,0,0-.05,3.34c.14.33.34.64.48,1,.5,1.23,0,2.65.38,3.92a24.28,24.28,0,0,0,1.15,2.49,8.22,8.22,0,0,0,.64,1.6c.66,1,1.82,1.08,2.86,1.3a19.07,19.07,0,0,0,3.82.72c2.34,0,1.83-2.09,2.56-3.61a6.63,6.63,0,0,0,.52-1C256.44,131.54,255.63,130.51,255.47,129.44Z"/></g><g id="Layer_10" data-name="Layer 10"><rect class="cls-12" x="58.22" y="241.18" width="4.56" height="4.77" transform="matrix(0.84, 0.54, -0.54, 0.84, 142.31, 6.31)"/><polygon class="cls-15" points="72.65 197.85 69.74 220.79 57.75 242.72 63.15 244.62 78.24 226.5 84.42 206.59 72.65 197.85"/><path class="cls-14" d="M70,251.57H64.11l-9.74-3.76-.7-1.47,3.47-4.77.52.46v2.22l4.79,1.63,1.73-1.63,1.55,3.11,1.46,1.3,4.68.89a3.3,3.3,0,0,1,.82,2H70Z"/><path class="cls-13" d="M70,251.57h2.67a2.93,2.93,0,0,0-.42-1.43h-7l-10-3.8-.61-1.4-1,1.4.7,1.47,9.74,3.76Z"/><polygon class="cls-1" points="65.36 246.62 63.8 246.13 63.68 246.52 65.61 247.12 65.36 246.62"/><polygon class="cls-1" points="66.14 247.72 64.58 247.24 64.45 247.63 66.87 248.38 66.14 247.72"/><polygon class="cls-1" points="64.83 245.55 63.3 245.07 62.97 245.4 65.08 246.05 64.83 245.55"/><rect class="cls-12" x="94.51" y="159.77" width="8.13" height="11.48" transform="translate(190.58 -3.74) rotate(59.31)"/><rect class="cls-12" x="90.76" y="242.72" width="5.01" height="4.77"/><path class="cls-17" d="M77.82,212.66l3.52,3.85,3.07-9.93-11.76-8.73L72,202.68A27.15,27.15,0,0,0,77.82,212.66Z"/><path class="cls-15" d="M70.68,198.8h0a27.08,27.08,0,0,0,8.9,11.27l12.75,9.4L90.16,244h6.6c.34-4.79,3.34-14.16,4.75-19.76a20.69,20.69,0,0,0,.46-4.86,8.48,8.48,0,0,0-1.12-4.78l-2.1-3.6-5.63-6-5.28-5.91-.09-4H70.68Z"/><path class="cls-14" d="M98.16,243.72l5.92,4.1,3,.91a1.56,1.56,0,0,1,1.1,1.49v.92H89.76l-.85-1.35v-5.43l.85.14,1.34,1.84h2.54Z"/><path class="cls-13" d="M108,249.44a1.49,1.49,0,0,1,.23.78v.92H89.76l-.85-1.35V248.1l.85,1.34Z"/><polygon class="cls-1" points="98.72 246.1 98.72 245.68 100.99 245.68 101.6 246.1 98.72 246.1"/><polygon class="cls-1" points="97.64 244.78 99.69 244.78 100.3 245.2 97.64 245.2 97.64 244.78"/><polygon class="cls-1" points="99.83 246.97 99.83 246.54 102.23 246.54 102.85 246.97 99.83 246.97"/><path class="cls-12" d="M113.29,160.85a5.38,5.38,0,0,1-.3,1.56q-.31,1.2-.75,2.37a11.55,11.55,0,0,1-1.91,3.56,6.48,6.48,0,0,1-3,1.94c-1.09.38-2,.77-3.11,0l-1.61-1.18a6.83,6.83,0,0,1-2-8.84L104,154.2a19.47,19.47,0,0,1,3.59,1.06,11.45,11.45,0,0,1,4.4,2.86,5.85,5.85,0,0,1,1.27,2.3A2,2,0,0,1,113.29,160.85Z"/><path class="cls-14" d="M105.12,161a2.18,2.18,0,0,0-.82-2.41,2.38,2.38,0,0,0-2.56.51,5,5,0,0,0-1.3,1.59,2.22,2.22,0,0,1-.45.76c-.18.15-.39.06-.62.08a1.55,1.55,0,0,1-1.32-.43.72.72,0,0,1-.14-.24c-.11-.37.15-.62.38-.83a1.89,1.89,0,0,0,.62-1.06,10,10,0,0,0,.09-1.55,2.3,2.3,0,0,1,.46-1.45c.24-.26.58-.38.78-.66a3.77,3.77,0,0,0,.4-.92,3.54,3.54,0,0,1,.85-1.72,2.9,2.9,0,0,1,1.06-.51,8.46,8.46,0,0,1,1-.15,3.73,3.73,0,0,0,1-.49,3.06,3.06,0,0,1,1.22-.48c.43,0,.65.2,1,.31a9.59,9.59,0,0,0,1.21,0,8.77,8.77,0,0,1,1.34.34,3.06,3.06,0,0,1,1,.49,4.43,4.43,0,0,1,.64.79c.44.58.94.56,1.36,1.14s.75,1.19,1.16,1.74a11.18,11.18,0,0,1,1.11,1.38c.29.6.28,1.36.76,1.82.15.15.35.26.44.45a.72.72,0,0,1-.1.69c-.67,1-2.19.68-3.13.42a4.87,4.87,0,0,1-.84-.28,3.17,3.17,0,0,1-.89-.6c-.19-.19-.25-.61-.55-.6a.73.73,0,0,0-.39.15,3.26,3.26,0,0,0-.63.75,3.06,3.06,0,0,1-.61.58,2.4,2.4,0,0,1-1.26.36,1.13,1.13,0,0,0-.77.37c-.21.26-.37.83-.57,1.11A11,11,0,0,0,105,164c-.3.61-1.1,1.4-.41,2.33a4.89,4.89,0,0,0,1.63,1.66,1.36,1.36,0,0,0,.52.12c.52,0,.69-.55,1.16-.62.32,0,.69.24.92.44a2.56,2.56,0,0,1,.61.62.6.6,0,0,1,.08.29c0,.59-.46,1.13-.8,1.56a3.28,3.28,0,0,1-.73.71,3.75,3.75,0,0,1-.94.4l-1,.31a3.38,3.38,0,0,1-1.67.08,2.22,2.22,0,0,1-.68-.36,13.73,13.73,0,0,1-3-2.32,5.06,5.06,0,0,1-1.13-3.69,2.21,2.21,0,0,1,2.13-1.91c.23,0,.46,0,.68,0a3.6,3.6,0,0,0,1.69-.89A3.43,3.43,0,0,0,105.12,161Z"/><path class="cls-13" d="M96.06,162.27l-7.46,1a10.54,10.54,0,0,0-3.78,1.25h0a10.54,10.54,0,0,0-4.41,4.72L67.65,196.27c4.5,7.37,15.92-1.61,22.83.95l7-17a27.79,27.79,0,0,0,2.07-10.53h0Z"/><polygon class="cls-13" points="93.93 171.03 96.06 182.91 87.36 182.91 81.85 171.36 93.93 171.03"/><path class="cls-18" d="M83.24,174.06l4.12,8.85h2.8L88,178.46a8.71,8.71,0,0,0-4.8-4.4Z"/><path class="cls-12" d="M88.14,182.91l1.43,6.54,2,2.48a5.46,5.46,0,0,0,.67.69l4.41,3.56,8.22,7.46L107.3,208l.71,5.9a1,1,0,0,0,.93,0l.32-4h.85l1.94,5.36c.17.12.72.16.85,0l-1.24-6,2.7,6c.2.13.81.19,1,0l-2-6.68.23-.54,3.64,4.42c.28,0,.75-.5.79-.77l-4.43-7.45.16-1.17,1.94-.21a1.74,1.74,0,0,0,1.54-1.73h0l-4-.23-4-.39L96.06,186.25l-.62-3.34Z"/><g class="cls-2"><path class="cls-19" d="M108.7,207.05l-2.39-4.35-8.22-7.46-4.41-3.55A5.54,5.54,0,0,1,93,191l-2-2.48-1.23-5.61h-1.6l1.43,6.54,2,2.48a5.46,5.46,0,0,0,.67.69l4.41,3.56,8.22,7.46L107.3,208l.71,5.9a1,1,0,0,0,.93,0l.23-2.9Z"/></g></g><g id="Layer_12" data-name="Layer 12"><rect class="cls-12" x="402.38" y="240.79" width="4.63" height="3.31"/><rect class="cls-12" x="432.95" y="239.04" width="4.17" height="3.31" transform="translate(-61.57 216.76) rotate(-26.2)"/><polygon class="cls-13" points="428.17 184.57 423.13 195.51 412.61 211.35 407.87 241.87 401.68 241.87 403.69 213.06 410.03 192.49 411.61 184.57 428.17 184.57"/><g class="cls-2"><path d="M425.08,191.28l-14.37-2.21-.68,3.42-.75,2.43a48.57,48.57,0,0,1,3.38,16.35l10.47-15.76Z"/></g><path class="cls-13" d="M428.17,184.57s1,4.9,0,8.06a17.47,17.47,0,0,1-2.45,5l1.45,15.41,10.94,26.4-5.91,1.76-8.06-13.73-4.75-9.28-9.22-26.42,1.44-7.22Z"/><path class="cls-9" d="M407.29,243h-5.51l-2.3,2.6h-4.72a7.89,7.89,0,0,0-7,4.32h19.57Z"/><path class="cls-1" d="M406.21,246.48a1.73,1.73,0,1,1-1.72-1.73A1.73,1.73,0,0,1,406.21,246.48Z"/><rect class="cls-20" x="386.94" y="249.94" width="21.12" height="1.63"/><path class="cls-9" d="M438,240.38l-5.08,2.14-1.12,3.28-5.5.1c-2.74,1.15-3.46,1.2-3.67,4.16h10.19l7.86-3.29Z"/><path class="cls-1" d="M438.33,244a1.73,1.73,0,1,1-2.26-.92A1.72,1.72,0,0,1,438.33,244Z"/><rect class="cls-20" x="422.19" y="249.83" width="11.49" height="1.63"/><rect class="cls-20" x="433.02" y="248.2" width="8.59" height="1.63" transform="translate(-62.72 192.3) rotate(-23.19)"/><rect class="cls-12" x="427.92" y="145.4" width="6.33" height="7.34"/><path class="cls-9" d="M427.18,149.32l8,.41v1.58s3.32,4.46,3.17,6.77S429,184,429.6,188.6c0,0-17,5-20,1.29,0,0,8.68-22.74,9.11-24.61,0,0,2-9.36,5.61-12.24C424.28,153,427.07,151.06,427.18,149.32Z"/><path class="cls-9" d="M428.2,155.21h1.06a3.5,3.5,0,0,1,3.5,3.5v7.06a0,0,0,0,1,0,0H424.7a0,0,0,0,1,0,0v-7.06A3.5,3.5,0,0,1,428.2,155.21Z" transform="translate(295.69 -277.54) rotate(52.58)"/><path class="cls-18" d="M418,167.43c-.74,2.11-2,5.41-3.25,8.85l3-1.73,8.8-8.49-4.13-4.5Z"/><path class="cls-12" d="M401.29,181.16l15.6-7.34,9.53-7.67-3.71-4.85L414.92,170l-14.13,8.83.55.67-2.84.13c-1.22,0-4.5-.42-5.8.93l5.71.62Z"/><path class="cls-21" d="M425.38,164.79l-9.53,7.68-15.92,8.06-4-.18-1.54-.6a3.25,3.25,0,0,0-1.69.79l5.71.62h2.88l15.6-7.34,9.53-7.67Z"/><path class="cls-12" d="M436.29,147h-3.14c-2.38,0-4.26.27-6.42-1a4.06,4.06,0,0,1-1.93-2.38,5.6,5.6,0,0,1-.12-1.36c0-2.07-.17-4.16-.2-6.22,0-1.47-.08-3.47,1.46-4.24s4.47-.31,6.29-.31h4.06Z"/><path class="cls-12" d="M400.48,180.22l-1.89-1.83a.67.67,0,0,1-.29-.9h0a.67.67,0,0,1,.9-.29l2.47,1.25a.66.66,0,0,1,.29.9h0C401.79,179.68,400.81,180.39,400.48,180.22Z"/><path class="cls-14" d="M438.57,139.49c-.35-.52.16-.93.35-1.39a2,2,0,0,0-.29-1.74c-.08-.11-.19-.23-.17-.37a.41.41,0,0,1,.1-.21,1.89,1.89,0,0,0,.17-2.08,4.88,4.88,0,0,1-.47-.55,2,2,0,0,1-.11-1.08,1.65,1.65,0,0,0-.61-1.51,2.13,2.13,0,0,0-1.66,0c-.79.23-.7-.47-1.11-.95a1.65,1.65,0,0,0-1.1-.64.87.87,0,0,0-.94.7,2.55,2.55,0,0,0-1.49-.8,1.52,1.52,0,0,0-1.6.92,2.5,2.5,0,0,0-1.17-1,2.13,2.13,0,0,0-1-.15,1.84,1.84,0,0,0-1.65,1.67,2.5,2.5,0,0,0-1.8-.66c-1.83.07-.83,2.6.06,3.29a2.56,2.56,0,0,0,2.36.4,1.64,1.64,0,0,0,.95,1.64,1.5,1.5,0,0,0,1.65-.29,1.6,1.6,0,0,0,2.56,1.6c-.51.29-.69,1.66-.75,2.19a3.13,3.13,0,0,0,.59,2.29,4.86,4.86,0,0,1,.53-2.21,1.79,1.79,0,0,1,1-1,1.2,1.2,0,0,1,1.35.62,1.42,1.42,0,0,1-.21,1.51,2.54,2.54,0,0,0-.36.45c-.32.63.36,1.77.58,2.38.34.92.7,1.84,1.08,2.74a2,2,0,0,1,.17,1.64c0,.08-.09.17,0,.25a.23.23,0,0,0,.18.06,2.68,2.68,0,0,0,1.55-1.05,4.18,4.18,0,0,0,.48-1.15,4.3,4.3,0,0,0,.21-1.33c0-.37-.22-.83-.11-1.2s.59-.6.83-.91a1.54,1.54,0,0,0,.3-1.08A2.3,2.3,0,0,0,438.57,139.49Z"/></g><g id="Layer_6" data-name="Layer 6"><rect class="cls-12" x="140.24" y="206.07" width="5.6" height="5.78" transform="translate(186.76 458.4) rotate(-155.55)"/><polygon class="cls-13" points="164.18 176.39 158.9 189.38 146.35 209.47 140.24 206.71 152.83 183.03 162.21 152.96 164.18 176.39"/><polygon class="cls-13" points="146.3 209.29 146.73 209.48 148.72 214.33 149.83 216.03 153.3 216.98 153.3 218.4 149.2 218.48 136.6 213.17 136.34 211.46 138.07 207.53 139.17 207.33 140.03 207.71 141.14 210.58 145.1 212.27 146.3 209.29"/><polygon class="cls-15" points="136.34 211.45 138.07 207.53 139.17 207.33 140.03 207.71 141.14 210.58 145.1 212.27 146.3 209.29 146.73 209.48 148.72 214.33 149.83 216.03 153.3 216.98 153.3 217.34 150.29 217.34 136.34 211.45"/><rect class="cls-12" x="160.55" y="208.97" width="5.6" height="5.78" transform="translate(326.71 423.71) rotate(180)"/><path class="cls-22" d="M158.22,190.45c.33-3.82.77-6.95,1.33-8l-.08-20.72,2.74-8.79,2,23.43-5.28,13Z"/><path class="cls-13" d="M176.73,142.21l-7.26,42.15L166.26,211h-5.81s-.49-24.94,1.2-28.3l-1.2-28.88h0a18.19,18.19,0,0,1-.53-8.73h0a6.41,6.41,0,0,1,1.54-3.14l.19-.21Z"/><polygon class="cls-13" points="166.93 211.02 167.4 211.02 171.18 214.64 177.19 216.92 177.19 218.48 159.62 218.48 158.69 217.03 158.69 212.73 159.62 212.1 160.56 212.1 162.73 214.28 167.03 214.23 166.93 211.02"/><polygon class="cls-15" points="160.56 212.1 162.73 214.28 167.03 214.23 166.93 211.02 167.4 211.02 171.18 214.64 177.09 216.88 158.69 216.88 158.69 212.73 159.62 212.1 160.56 212.1"/><rect class="cls-12" x="160.66" y="104.86" width="5.75" height="5.6" transform="translate(327.07 215.32) rotate(180)"/><path class="cls-12" d="M167.91,92.68c.32.49-.14,1.11-.11,1.56a12.55,12.55,0,0,0,1.08,3,17.93,17.93,0,0,1,.83,6.5,2,2,0,0,1-2,2h-1.88a7.59,7.59,0,0,1-7.22-5.25L157.19,96l2.12-4.46,5.34-.31A3.35,3.35,0,0,1,167.91,92.68Z"/><path class="cls-14" d="M168.14,90.23c1.21,1.43.16,3.27-1,4.34a9.19,9.19,0,0,1-2.31,1.48,5.65,5.65,0,0,0-1,.42,3.08,3.08,0,0,0-.69,1.22c-.07.16-.13.33-.2.5-.31.69-1.35,1.21-1.33,2a1.18,1.18,0,0,0,.55.85,3.18,3.18,0,0,1,.76.7,2.13,2.13,0,0,1,0,1.73,2.26,2.26,0,0,0-.09,1.73c.27.49.94.78,1.3,1.2s.94.78,1.33,1.28c.58.74.7,1.77,1.26,2.45a12.45,12.45,0,0,0,2.44,1.65,3.18,3.18,0,0,1,1.6,2.66c-1.64-.57-3.67.27-5.06-.76-.25-.19-.46-.43-.71-.63a10.85,10.85,0,0,0-2-1,5.06,5.06,0,0,1-1.73-1.46,4.64,4.64,0,0,1-2.1.08,6.57,6.57,0,0,1-2.83-.77,6.76,6.76,0,0,1-1.72-1.85l-.75-1c-.22-.32-.45-.64-.67-1a8.89,8.89,0,0,1-1.52-6.12A13.57,13.57,0,0,1,154,94.81c.82-1.26,1.65-2.51,2.47-3.76a5.11,5.11,0,0,1,1.06-1.29,4.07,4.07,0,0,1,1.32-.65,14.41,14.41,0,0,1,5-.4C165.4,88.8,167.13,89,168.14,90.23Z"/><path class="cls-12" d="M173.87,117.13,182,116a7.31,7.31,0,0,0,3.9-1.94l13.68-13,1.62-1,4.66-1.87,2.56-2c.73-.68.29-1.22-.41-1.15l-2,1.64-.94.39-.54-.32,3.19-3.18a1,1,0,0,0-.78-.62l-2.88,2.72-.64-.6,3.25-3.54c.43-.61-.71-.81-1.76.15l-2.09,2.9-.62-.24,2-4.06c-.17-.28-.8.22-1.09.39-1.08.61-2.66,3.83-2.66,3.83l-1.09.31-.62-1,.23-1.32-1.76,1.79.23,2.81-12.7,11.8-11.38,2.64Z"/><g class="cls-2"><path class="cls-23" d="M168.39,90.67a4.68,4.68,0,0,0-2.85-1.77,4.31,4.31,0,0,1,2.6,1.33,2.17,2.17,0,0,1,.43.82A2.64,2.64,0,0,0,168.39,90.67Z"/><path class="cls-23" d="M166.64,112.18a12,12,0,0,1-2.21-1.93c-.47-.74-.47-1.78-.94-2.59-.33-.55-.82-.91-1.17-1.43s-.93-.84-1.14-1.36a2.24,2.24,0,0,1,.31-1.7,2.13,2.13,0,0,0,.23-1.71,3,3,0,0,0-.67-.79,1.22,1.22,0,0,1-.44-.91c.08-.82,1.18-1.19,1.57-1.85.09-.15.17-.31.26-.47a3.13,3.13,0,0,1,.83-1.13,6.45,6.45,0,0,1,1.09-.28,9.6,9.6,0,0,0,2.11-1,10.33,10.33,0,0,1-1.66,1,6.47,6.47,0,0,0-1,.43,3.08,3.08,0,0,0-.69,1.22c-.07.16-.13.33-.2.5-.31.69-1.35,1.21-1.33,2a1.18,1.18,0,0,0,.55.85,3.18,3.18,0,0,1,.76.7,2.13,2.13,0,0,1,0,1.73,2.26,2.26,0,0,0-.09,1.73c.27.49.94.78,1.3,1.2s.94.78,1.33,1.28c.58.74.7,1.77,1.26,2.45a12.45,12.45,0,0,0,2.44,1.65,3.18,3.18,0,0,1,1.6,2.66,8.44,8.44,0,0,0-2.76-.21A3.83,3.83,0,0,0,166.64,112.18Z"/></g><path class="cls-24" d="M160.34,107.86s-4.76,1.77-5,6l5.72,19.28-1.61,11c5,4.45,12.45-3,18.82,1.72l-6.14-24.46h0a6.28,6.28,0,0,0,.87-5.4l-.18-.59-6.26-5Z"/><path class="cls-25" d="M161.65,111.7l6.88.3,4.3,3.46.18.59a6.25,6.25,0,0,1-.45,4.69L163.09,119Z"/><polygon class="cls-24" points="161.65 110.46 173.31 110.95 173.88 117.94 161.07 118.88 161.65 110.46"/><path class="cls-14" d="M151.39,102a3.82,3.82,0,0,1,.62-2.49,3.57,3.57,0,0,1,1-.71,6.78,6.78,0,0,1,.92-.49c1.46-.55,3.09.09,4.43.88a9.55,9.55,0,0,1,2.27,1.78,5.35,5.35,0,0,1,.82,1.13,1.31,1.31,0,0,1,.15,1.26,33.34,33.34,0,0,1-1.22,4.46A4.39,4.39,0,0,1,157,110.7c.77,2.66-.09,5.15-.51,7.54a12.39,12.39,0,0,1-1.23-1.93c-.59-1-1.19-2-1.76-3.08a21.07,21.07,0,0,1-1.81-4C151,106.91,151.37,104.44,151.39,102Z"/></g><g id="Layer_11" data-name="Layer 11"><line class="cls-6" x1="40.59" y1="251.57" x2="217.5" y2="251.57"/><line class="cls-6" x1="38.59" y1="251.57" x2="34.91" y2="251.57"/><line class="cls-6" x1="460.67" y1="251.57" x2="472.66" y2="251.57"/><line class="cls-6" x1="454.75" y1="251.57" x2="299.92" y2="251.57"/></g></g></svg>