<svg id="Layer_1" data-name="Layer 1" xmlns="http://www.w3.org/2000/svg" viewBox="0 0 288.05 287.71"><defs><style>.cls-1{fill:#4d4c4c;fill-rule:evenodd;}</style></defs><title>logo</title><path class="cls-1" d="M369.75,512.4s-.36,12.08-11.7,14.64c-6.4.73-160.87,12.81-160.87,12.81s-13.7.36-14.63-11.35c-.91-11.48-20.47-248.84-20.47-248.84s-1.83-12.44,11.7-14.63c6.7-1.09,159.41-12.82,159.41-12.82s14.81-1.64,16.09,11.35l4.46,52.76-9.57.84-3.67-39.68L172.32,291.37l19,224,168.18-13.17L357.3,476l9.4-.69ZM255.68,273.81a2.93,2.93,0,1,0-2.93-2.93A2.93,2.93,0,0,0,255.68,273.81ZM276.15,512.4a8.79,8.79,0,1,0,8.78,8.78A8.78,8.78,0,0,0,276.15,512.4Z" transform="translate(-162 -252.15)"/><path class="cls-1" d="M243.74,350.74V455s0,11.17,13.87,13.4H436.14S450,466.79,450,455V350.38s-3.24-10.05-13.88,0c-12.44,9.3-78.17,59.24-78.17,59.24s-10.68,7.88-22.23,0-78.15-59.23-78.15-59.23S245.69,341,243.74,350.74Zm16.17-18.44,70.78,56s14.56,14.56,32.39,0,70.75-56,70.75-56,7.69-7-.47-8.33h-173S251.07,324.43,259.91,332.3Z" transform="translate(-162 -252.15)"/></svg>